%TF.GenerationSoftware,KiCad,Pcbnew,(6.0.6-1)-1*%
%TF.CreationDate,2022-08-11T03:14:31+08:00*%
%TF.ProjectId,card,63617264-2e6b-4696-9361-645f70636258,rev?*%
%TF.SameCoordinates,Original*%
%TF.FileFunction,Legend,Bot*%
%TF.FilePolarity,Positive*%
%FSLAX46Y46*%
G04 Gerber Fmt 4.6, Leading zero omitted, Abs format (unit mm)*
G04 Created by KiCad (PCBNEW (6.0.6-1)-1) date 2022-08-11 03:14:31*
%MOMM*%
%LPD*%
G01*
G04 APERTURE LIST*
%ADD10C,0.150000*%
%ADD11C,0.100000*%
%ADD12C,0.149900*%
%ADD13C,0.254000*%
%ADD14C,0.120000*%
G04 APERTURE END LIST*
D10*
X31678305Y-28080132D02*
X31541400Y-28127751D01*
X31499734Y-28175370D01*
X31464019Y-28270608D01*
X31481876Y-28413465D01*
X31541400Y-28508703D01*
X31594972Y-28556322D01*
X31696162Y-28603941D01*
X32077114Y-28603941D01*
X31952114Y-27603941D01*
X31618781Y-27603941D01*
X31529495Y-27651561D01*
X31487829Y-27699180D01*
X31452114Y-27794418D01*
X31464019Y-27889656D01*
X31523543Y-27984894D01*
X31577114Y-28032513D01*
X31678305Y-28080132D01*
X32011638Y-28080132D01*
X30934257Y-28603941D02*
X31023543Y-28556322D01*
X31059257Y-28461084D01*
X30952114Y-27603941D01*
X30410448Y-28603941D02*
X30499734Y-28556322D01*
X30541400Y-28508703D01*
X30577114Y-28413465D01*
X30541400Y-28127751D01*
X30481876Y-28032513D01*
X30428305Y-27984894D01*
X30327114Y-27937275D01*
X30184257Y-27937275D01*
X30094972Y-27984894D01*
X30053305Y-28032513D01*
X30017591Y-28127751D01*
X30053305Y-28413465D01*
X30112829Y-28508703D01*
X30166400Y-28556322D01*
X30267591Y-28603941D01*
X30410448Y-28603941D01*
X29505686Y-28603941D02*
X29594972Y-28556322D01*
X29636638Y-28508703D01*
X29672353Y-28413465D01*
X29636638Y-28127751D01*
X29577114Y-28032513D01*
X29523543Y-27984894D01*
X29422353Y-27937275D01*
X29279495Y-27937275D01*
X29190210Y-27984894D01*
X29148543Y-28032513D01*
X29112829Y-28127751D01*
X29148543Y-28413465D01*
X29208067Y-28508703D01*
X29261638Y-28556322D01*
X29362829Y-28603941D01*
X29505686Y-28603941D01*
X28743781Y-28603941D02*
X28618781Y-27603941D01*
X28600924Y-28222989D02*
X28362829Y-28603941D01*
X28279495Y-27937275D02*
X28708067Y-28318227D01*
D11*
X33335445Y-26765139D02*
X33335445Y-27265139D01*
X33335445Y-26788948D02*
X33287826Y-26765139D01*
X33192588Y-26765139D01*
X33144969Y-26788948D01*
X33121160Y-26812758D01*
X33097350Y-26860377D01*
X33097350Y-27003234D01*
X33121160Y-27050853D01*
X33144969Y-27074662D01*
X33192588Y-27098472D01*
X33287826Y-27098472D01*
X33335445Y-27074662D01*
X32811636Y-27098472D02*
X32859255Y-27074662D01*
X32883064Y-27050853D01*
X32906874Y-27003234D01*
X32906874Y-26860377D01*
X32883064Y-26812758D01*
X32859255Y-26788948D01*
X32811636Y-26765139D01*
X32740207Y-26765139D01*
X32692588Y-26788948D01*
X32668779Y-26812758D01*
X32644969Y-26860377D01*
X32644969Y-27003234D01*
X32668779Y-27050853D01*
X32692588Y-27074662D01*
X32740207Y-27098472D01*
X32811636Y-27098472D01*
X32478302Y-26765139D02*
X32383064Y-27098472D01*
X32287826Y-26860377D01*
X32192588Y-27098472D01*
X32097350Y-26765139D01*
X31716398Y-27074662D02*
X31764017Y-27098472D01*
X31859255Y-27098472D01*
X31906874Y-27074662D01*
X31930683Y-27027043D01*
X31930683Y-26836567D01*
X31906874Y-26788948D01*
X31859255Y-26765139D01*
X31764017Y-26765139D01*
X31716398Y-26788948D01*
X31692588Y-26836567D01*
X31692588Y-26884186D01*
X31930683Y-26931805D01*
X31478302Y-27098472D02*
X31478302Y-26765139D01*
X31478302Y-26860377D02*
X31454493Y-26812758D01*
X31430683Y-26788948D01*
X31383064Y-26765139D01*
X31335445Y-26765139D01*
X30978302Y-27074662D02*
X31025921Y-27098472D01*
X31121160Y-27098472D01*
X31168779Y-27074662D01*
X31192588Y-27027043D01*
X31192588Y-26836567D01*
X31168779Y-26788948D01*
X31121160Y-26765139D01*
X31025921Y-26765139D01*
X30978302Y-26788948D01*
X30954493Y-26836567D01*
X30954493Y-26884186D01*
X31192588Y-26931805D01*
X30525921Y-27098472D02*
X30525921Y-26598472D01*
X30525921Y-27074662D02*
X30573541Y-27098472D01*
X30668779Y-27098472D01*
X30716398Y-27074662D01*
X30740207Y-27050853D01*
X30764017Y-27003234D01*
X30764017Y-26860377D01*
X30740207Y-26812758D01*
X30716398Y-26788948D01*
X30668779Y-26765139D01*
X30573541Y-26765139D01*
X30525921Y-26788948D01*
X29906874Y-27098472D02*
X29906874Y-26598472D01*
X29906874Y-26788948D02*
X29859255Y-26765139D01*
X29764017Y-26765139D01*
X29716398Y-26788948D01*
X29692588Y-26812758D01*
X29668779Y-26860377D01*
X29668779Y-27003234D01*
X29692588Y-27050853D01*
X29716398Y-27074662D01*
X29764017Y-27098472D01*
X29859255Y-27098472D01*
X29906874Y-27074662D01*
X29502112Y-26765139D02*
X29383064Y-27098472D01*
X29264017Y-26765139D02*
X29383064Y-27098472D01*
X29430683Y-27217520D01*
X29454493Y-27241329D01*
X29502112Y-27265139D01*
D12*
%TO.C,USB1*%
X29814964Y-32945536D02*
X30624488Y-32945536D01*
X30719726Y-32993155D01*
X30767345Y-33040774D01*
X30814964Y-33136012D01*
X30814964Y-33326489D01*
X30767345Y-33421727D01*
X30719726Y-33469346D01*
X30624488Y-33516965D01*
X29814964Y-33516965D01*
X30767345Y-33945536D02*
X30814964Y-34088393D01*
X30814964Y-34326489D01*
X30767345Y-34421727D01*
X30719726Y-34469346D01*
X30624488Y-34516965D01*
X30529250Y-34516965D01*
X30434012Y-34469346D01*
X30386393Y-34421727D01*
X30338774Y-34326489D01*
X30291155Y-34136012D01*
X30243536Y-34040774D01*
X30195917Y-33993155D01*
X30100679Y-33945536D01*
X30005441Y-33945536D01*
X29910203Y-33993155D01*
X29862584Y-34040774D01*
X29814964Y-34136012D01*
X29814964Y-34374108D01*
X29862584Y-34516965D01*
X30291155Y-35278870D02*
X30338774Y-35421727D01*
X30386393Y-35469346D01*
X30481631Y-35516965D01*
X30624488Y-35516965D01*
X30719726Y-35469346D01*
X30767345Y-35421727D01*
X30814964Y-35326489D01*
X30814964Y-34945536D01*
X29814964Y-34945536D01*
X29814964Y-35278870D01*
X29862584Y-35374108D01*
X29910203Y-35421727D01*
X30005441Y-35469346D01*
X30100679Y-35469346D01*
X30195917Y-35421727D01*
X30243536Y-35374108D01*
X30291155Y-35278870D01*
X30291155Y-34945536D01*
X30814964Y-36469346D02*
X30814964Y-35897917D01*
X30814964Y-36183632D02*
X29814964Y-36183632D01*
X29957822Y-36088393D01*
X30053060Y-35993155D01*
X30100679Y-35897917D01*
D10*
%TO.C,R1*%
X70014305Y-37788562D02*
X69538115Y-37455229D01*
X70014305Y-37217133D02*
X69014305Y-37217133D01*
X69014305Y-37598086D01*
X69061925Y-37693324D01*
X69109544Y-37740943D01*
X69204782Y-37788562D01*
X69347639Y-37788562D01*
X69442877Y-37740943D01*
X69490496Y-37693324D01*
X69538115Y-37598086D01*
X69538115Y-37217133D01*
X70014305Y-38740943D02*
X70014305Y-38169514D01*
X70014305Y-38455229D02*
X69014305Y-38455229D01*
X69157163Y-38359990D01*
X69252401Y-38264752D01*
X69300020Y-38169514D01*
%TO.C,Q1*%
X72814419Y-32946113D02*
X72766800Y-32850875D01*
X72671561Y-32755637D01*
X72528704Y-32612780D01*
X72481085Y-32517542D01*
X72481085Y-32422304D01*
X72719180Y-32469923D02*
X72671561Y-32374685D01*
X72576323Y-32279447D01*
X72385847Y-32231828D01*
X72052514Y-32231828D01*
X71862038Y-32279447D01*
X71766800Y-32374685D01*
X71719180Y-32469923D01*
X71719180Y-32660399D01*
X71766800Y-32755637D01*
X71862038Y-32850875D01*
X72052514Y-32898494D01*
X72385847Y-32898494D01*
X72576323Y-32850875D01*
X72671561Y-32755637D01*
X72719180Y-32660399D01*
X72719180Y-32469923D01*
X72719180Y-33850875D02*
X72719180Y-33279447D01*
X72719180Y-33565161D02*
X71719180Y-33565161D01*
X71862038Y-33469923D01*
X71957276Y-33374685D01*
X72004895Y-33279447D01*
%TO.C,C6*%
X40127416Y-33666082D02*
X40175035Y-33713701D01*
X40317892Y-33761320D01*
X40413130Y-33761320D01*
X40555988Y-33713701D01*
X40651226Y-33618463D01*
X40698845Y-33523225D01*
X40746464Y-33332749D01*
X40746464Y-33189892D01*
X40698845Y-32999416D01*
X40651226Y-32904178D01*
X40555988Y-32808940D01*
X40413130Y-32761320D01*
X40317892Y-32761320D01*
X40175035Y-32808940D01*
X40127416Y-32856559D01*
X39270273Y-32761320D02*
X39460750Y-32761320D01*
X39555988Y-32808940D01*
X39603607Y-32856559D01*
X39698845Y-32999416D01*
X39746464Y-33189892D01*
X39746464Y-33570844D01*
X39698845Y-33666082D01*
X39651226Y-33713701D01*
X39555988Y-33761320D01*
X39365511Y-33761320D01*
X39270273Y-33713701D01*
X39222654Y-33666082D01*
X39175035Y-33570844D01*
X39175035Y-33332749D01*
X39222654Y-33237511D01*
X39270273Y-33189892D01*
X39365511Y-33142273D01*
X39555988Y-33142273D01*
X39651226Y-33189892D01*
X39698845Y-33237511D01*
X39746464Y-33332749D01*
%TO.C,C2*%
X45228829Y-38337906D02*
X45276448Y-38385525D01*
X45419305Y-38433144D01*
X45514543Y-38433144D01*
X45657401Y-38385525D01*
X45752639Y-38290287D01*
X45800258Y-38195049D01*
X45847877Y-38004573D01*
X45847877Y-37861716D01*
X45800258Y-37671240D01*
X45752639Y-37576002D01*
X45657401Y-37480764D01*
X45514543Y-37433144D01*
X45419305Y-37433144D01*
X45276448Y-37480764D01*
X45228829Y-37528383D01*
X44847877Y-37528383D02*
X44800258Y-37480764D01*
X44705020Y-37433144D01*
X44466924Y-37433144D01*
X44371686Y-37480764D01*
X44324067Y-37528383D01*
X44276448Y-37623621D01*
X44276448Y-37718859D01*
X44324067Y-37861716D01*
X44895496Y-38433144D01*
X44276448Y-38433144D01*
%TO.C,U1*%
X47212149Y-27048125D02*
X48021673Y-27048125D01*
X48116911Y-27095744D01*
X48164530Y-27143363D01*
X48212149Y-27238601D01*
X48212149Y-27429077D01*
X48164530Y-27524315D01*
X48116911Y-27571934D01*
X48021673Y-27619553D01*
X47212149Y-27619553D01*
X48212149Y-28619553D02*
X48212149Y-28048125D01*
X48212149Y-28333839D02*
X47212149Y-28333839D01*
X47355007Y-28238601D01*
X47450245Y-28143363D01*
X47497864Y-28048125D01*
%TO.C,C5*%
X45188287Y-35576383D02*
X45235906Y-35624002D01*
X45378763Y-35671621D01*
X45474001Y-35671621D01*
X45616859Y-35624002D01*
X45712097Y-35528764D01*
X45759716Y-35433526D01*
X45807335Y-35243050D01*
X45807335Y-35100193D01*
X45759716Y-34909717D01*
X45712097Y-34814479D01*
X45616859Y-34719241D01*
X45474001Y-34671621D01*
X45378763Y-34671621D01*
X45235906Y-34719241D01*
X45188287Y-34766860D01*
X44283525Y-34671621D02*
X44759716Y-34671621D01*
X44807335Y-35147812D01*
X44759716Y-35100193D01*
X44664478Y-35052574D01*
X44426382Y-35052574D01*
X44331144Y-35100193D01*
X44283525Y-35147812D01*
X44235906Y-35243050D01*
X44235906Y-35481145D01*
X44283525Y-35576383D01*
X44331144Y-35624002D01*
X44426382Y-35671621D01*
X44664478Y-35671621D01*
X44759716Y-35624002D01*
X44807335Y-35576383D01*
%TO.C,R11*%
X60725682Y-37702193D02*
X61059015Y-37226003D01*
X61297110Y-37702193D02*
X61297110Y-36702193D01*
X60916158Y-36702193D01*
X60820920Y-36749813D01*
X60773301Y-36797432D01*
X60725682Y-36892670D01*
X60725682Y-37035527D01*
X60773301Y-37130765D01*
X60820920Y-37178384D01*
X60916158Y-37226003D01*
X61297110Y-37226003D01*
X59773301Y-37702193D02*
X60344729Y-37702193D01*
X60059015Y-37702193D02*
X60059015Y-36702193D01*
X60154253Y-36845051D01*
X60249491Y-36940289D01*
X60344729Y-36987908D01*
X58820920Y-37702193D02*
X59392348Y-37702193D01*
X59106634Y-37702193D02*
X59106634Y-36702193D01*
X59201872Y-36845051D01*
X59297110Y-36940289D01*
X59392348Y-36987908D01*
%TO.C,L1*%
X76345911Y-32754371D02*
X76345911Y-32278180D01*
X75345911Y-32278180D01*
X76345911Y-33611514D02*
X76345911Y-33040085D01*
X76345911Y-33325799D02*
X75345911Y-33325799D01*
X75488769Y-33230561D01*
X75584007Y-33135323D01*
X75631626Y-33040085D01*
%TO.C,R2*%
X66593152Y-37788562D02*
X66116962Y-37455229D01*
X66593152Y-37217133D02*
X65593152Y-37217133D01*
X65593152Y-37598086D01*
X65640772Y-37693324D01*
X65688391Y-37740943D01*
X65783629Y-37788562D01*
X65926486Y-37788562D01*
X66021724Y-37740943D01*
X66069343Y-37693324D01*
X66116962Y-37598086D01*
X66116962Y-37217133D01*
X65688391Y-38169514D02*
X65640772Y-38217133D01*
X65593152Y-38312371D01*
X65593152Y-38550467D01*
X65640772Y-38645705D01*
X65688391Y-38693324D01*
X65783629Y-38740943D01*
X65878867Y-38740943D01*
X66021724Y-38693324D01*
X66593152Y-38121895D01*
X66593152Y-38740943D01*
%TO.C,C1*%
X73340220Y-37788562D02*
X73387839Y-37740943D01*
X73435458Y-37598086D01*
X73435458Y-37502848D01*
X73387839Y-37359990D01*
X73292601Y-37264752D01*
X73197363Y-37217133D01*
X73006887Y-37169514D01*
X72864030Y-37169514D01*
X72673554Y-37217133D01*
X72578316Y-37264752D01*
X72483078Y-37359990D01*
X72435458Y-37502848D01*
X72435458Y-37598086D01*
X72483078Y-37740943D01*
X72530697Y-37788562D01*
X73435458Y-38740943D02*
X73435458Y-38169514D01*
X73435458Y-38455229D02*
X72435458Y-38455229D01*
X72578316Y-38359990D01*
X72673554Y-38264752D01*
X72721173Y-38169514D01*
%TO.C,C10*%
X38138374Y-38256164D02*
X38185993Y-38303783D01*
X38328850Y-38351402D01*
X38424088Y-38351402D01*
X38566945Y-38303783D01*
X38662183Y-38208545D01*
X38709802Y-38113307D01*
X38757421Y-37922831D01*
X38757421Y-37779974D01*
X38709802Y-37589498D01*
X38662183Y-37494260D01*
X38566945Y-37399022D01*
X38424088Y-37351402D01*
X38328850Y-37351402D01*
X38185993Y-37399022D01*
X38138374Y-37446641D01*
X37185993Y-38351402D02*
X37757421Y-38351402D01*
X37471707Y-38351402D02*
X37471707Y-37351402D01*
X37566945Y-37494260D01*
X37662183Y-37589498D01*
X37757421Y-37637117D01*
X36566945Y-37351402D02*
X36471707Y-37351402D01*
X36376469Y-37399022D01*
X36328850Y-37446641D01*
X36281231Y-37541879D01*
X36233612Y-37732355D01*
X36233612Y-37970450D01*
X36281231Y-38160926D01*
X36328850Y-38256164D01*
X36376469Y-38303783D01*
X36471707Y-38351402D01*
X36566945Y-38351402D01*
X36662183Y-38303783D01*
X36709802Y-38256164D01*
X36757421Y-38160926D01*
X36805040Y-37970450D01*
X36805040Y-37732355D01*
X36757421Y-37541879D01*
X36709802Y-37446641D01*
X36662183Y-37399022D01*
X36566945Y-37351402D01*
%TO.C,R5*%
X59799008Y-25056654D02*
X60132342Y-24580464D01*
X60370437Y-25056654D02*
X60370437Y-24056654D01*
X59989484Y-24056654D01*
X59894246Y-24104274D01*
X59846627Y-24151893D01*
X59799008Y-24247131D01*
X59799008Y-24389988D01*
X59846627Y-24485226D01*
X59894246Y-24532845D01*
X59989484Y-24580464D01*
X60370437Y-24580464D01*
X58894246Y-24056654D02*
X59370437Y-24056654D01*
X59418056Y-24532845D01*
X59370437Y-24485226D01*
X59275199Y-24437607D01*
X59037103Y-24437607D01*
X58941865Y-24485226D01*
X58894246Y-24532845D01*
X58846627Y-24628083D01*
X58846627Y-24866178D01*
X58894246Y-24961416D01*
X58941865Y-25009035D01*
X59037103Y-25056654D01*
X59275199Y-25056654D01*
X59370437Y-25009035D01*
X59418056Y-24961416D01*
%TO.C,L2*%
X46133363Y-33883929D02*
X46609554Y-33883929D01*
X46609554Y-32883929D01*
X45847649Y-32979168D02*
X45800030Y-32931549D01*
X45704792Y-32883929D01*
X45466697Y-32883929D01*
X45371458Y-32931549D01*
X45323839Y-32979168D01*
X45276220Y-33074406D01*
X45276220Y-33169644D01*
X45323839Y-33312501D01*
X45895268Y-33883929D01*
X45276220Y-33883929D01*
%TO.C,F1*%
X38786919Y-25401542D02*
X38786919Y-25068209D01*
X39310728Y-25068209D02*
X38310728Y-25068209D01*
X38310728Y-25544399D01*
X39310728Y-26449161D02*
X39310728Y-25877733D01*
X39310728Y-26163447D02*
X38310728Y-26163447D01*
X38453586Y-26068209D01*
X38548824Y-25972971D01*
X38596443Y-25877733D01*
%TO.C,C8*%
X41263431Y-38337906D02*
X41311050Y-38385525D01*
X41453907Y-38433144D01*
X41549145Y-38433144D01*
X41692003Y-38385525D01*
X41787241Y-38290287D01*
X41834860Y-38195049D01*
X41882479Y-38004573D01*
X41882479Y-37861716D01*
X41834860Y-37671240D01*
X41787241Y-37576002D01*
X41692003Y-37480764D01*
X41549145Y-37433144D01*
X41453907Y-37433144D01*
X41311050Y-37480764D01*
X41263431Y-37528383D01*
X40692003Y-37861716D02*
X40787241Y-37814097D01*
X40834860Y-37766478D01*
X40882479Y-37671240D01*
X40882479Y-37623621D01*
X40834860Y-37528383D01*
X40787241Y-37480764D01*
X40692003Y-37433144D01*
X40501526Y-37433144D01*
X40406288Y-37480764D01*
X40358669Y-37528383D01*
X40311050Y-37623621D01*
X40311050Y-37671240D01*
X40358669Y-37766478D01*
X40406288Y-37814097D01*
X40501526Y-37861716D01*
X40692003Y-37861716D01*
X40787241Y-37909335D01*
X40834860Y-37956954D01*
X40882479Y-38052192D01*
X40882479Y-38242668D01*
X40834860Y-38337906D01*
X40787241Y-38385525D01*
X40692003Y-38433144D01*
X40501526Y-38433144D01*
X40406288Y-38385525D01*
X40358669Y-38337906D01*
X40311050Y-38242668D01*
X40311050Y-38052192D01*
X40358669Y-37956954D01*
X40406288Y-37909335D01*
X40501526Y-37861716D01*
%TO.C,R8*%
X59716976Y-31382550D02*
X60050310Y-30906360D01*
X60288405Y-31382550D02*
X60288405Y-30382550D01*
X59907452Y-30382550D01*
X59812214Y-30430170D01*
X59764595Y-30477789D01*
X59716976Y-30573027D01*
X59716976Y-30715884D01*
X59764595Y-30811122D01*
X59812214Y-30858741D01*
X59907452Y-30906360D01*
X60288405Y-30906360D01*
X59145548Y-30811122D02*
X59240786Y-30763503D01*
X59288405Y-30715884D01*
X59336024Y-30620646D01*
X59336024Y-30573027D01*
X59288405Y-30477789D01*
X59240786Y-30430170D01*
X59145548Y-30382550D01*
X58955071Y-30382550D01*
X58859833Y-30430170D01*
X58812214Y-30477789D01*
X58764595Y-30573027D01*
X58764595Y-30620646D01*
X58812214Y-30715884D01*
X58859833Y-30763503D01*
X58955071Y-30811122D01*
X59145548Y-30811122D01*
X59240786Y-30858741D01*
X59288405Y-30906360D01*
X59336024Y-31001598D01*
X59336024Y-31192074D01*
X59288405Y-31287312D01*
X59240786Y-31334931D01*
X59145548Y-31382550D01*
X58955071Y-31382550D01*
X58859833Y-31334931D01*
X58812214Y-31287312D01*
X58764595Y-31192074D01*
X58764595Y-31001598D01*
X58812214Y-30906360D01*
X58859833Y-30858741D01*
X58955071Y-30811122D01*
%TO.C,R10*%
X60736473Y-35475815D02*
X61069806Y-34999625D01*
X61307901Y-35475815D02*
X61307901Y-34475815D01*
X60926949Y-34475815D01*
X60831711Y-34523435D01*
X60784092Y-34571054D01*
X60736473Y-34666292D01*
X60736473Y-34809149D01*
X60784092Y-34904387D01*
X60831711Y-34952006D01*
X60926949Y-34999625D01*
X61307901Y-34999625D01*
X59784092Y-35475815D02*
X60355520Y-35475815D01*
X60069806Y-35475815D02*
X60069806Y-34475815D01*
X60165044Y-34618673D01*
X60260282Y-34713911D01*
X60355520Y-34761530D01*
X59165044Y-34475815D02*
X59069806Y-34475815D01*
X58974568Y-34523435D01*
X58926949Y-34571054D01*
X58879330Y-34666292D01*
X58831711Y-34856768D01*
X58831711Y-35094863D01*
X58879330Y-35285339D01*
X58926949Y-35380577D01*
X58974568Y-35428196D01*
X59069806Y-35475815D01*
X59165044Y-35475815D01*
X59260282Y-35428196D01*
X59307901Y-35380577D01*
X59355520Y-35285339D01*
X59403139Y-35094863D01*
X59403139Y-34856768D01*
X59355520Y-34666292D01*
X59307901Y-34571054D01*
X59260282Y-34523435D01*
X59165044Y-34475815D01*
D12*
%TO.C,LED6*%
X54861189Y-35565943D02*
X55337380Y-35565943D01*
X55337380Y-34565943D01*
X54527856Y-35042134D02*
X54194522Y-35042134D01*
X54051665Y-35565943D02*
X54527856Y-35565943D01*
X54527856Y-34565943D01*
X54051665Y-34565943D01*
X53623094Y-35565943D02*
X53623094Y-34565943D01*
X53384999Y-34565943D01*
X53242142Y-34613563D01*
X53146903Y-34708801D01*
X53099284Y-34804039D01*
X53051665Y-34994515D01*
X53051665Y-35137372D01*
X53099284Y-35327848D01*
X53146903Y-35423086D01*
X53242142Y-35518324D01*
X53384999Y-35565943D01*
X53623094Y-35565943D01*
X52194522Y-34565943D02*
X52384999Y-34565943D01*
X52480237Y-34613563D01*
X52527856Y-34661182D01*
X52623094Y-34804039D01*
X52670713Y-34994515D01*
X52670713Y-35375467D01*
X52623094Y-35470705D01*
X52575475Y-35518324D01*
X52480237Y-35565943D01*
X52289761Y-35565943D01*
X52194522Y-35518324D01*
X52146903Y-35470705D01*
X52099284Y-35375467D01*
X52099284Y-35137372D01*
X52146903Y-35042134D01*
X52194522Y-34994515D01*
X52289761Y-34946896D01*
X52480237Y-34946896D01*
X52575475Y-34994515D01*
X52623094Y-35042134D01*
X52670713Y-35137372D01*
D10*
%TO.C,C16*%
X38296739Y-35708063D02*
X38344358Y-35755682D01*
X38487215Y-35803301D01*
X38582453Y-35803301D01*
X38725310Y-35755682D01*
X38820548Y-35660444D01*
X38868167Y-35565206D01*
X38915786Y-35374730D01*
X38915786Y-35231873D01*
X38868167Y-35041397D01*
X38820548Y-34946159D01*
X38725310Y-34850921D01*
X38582453Y-34803301D01*
X38487215Y-34803301D01*
X38344358Y-34850921D01*
X38296739Y-34898540D01*
X37344358Y-35803301D02*
X37915786Y-35803301D01*
X37630072Y-35803301D02*
X37630072Y-34803301D01*
X37725310Y-34946159D01*
X37820548Y-35041397D01*
X37915786Y-35089016D01*
X36487215Y-34803301D02*
X36677691Y-34803301D01*
X36772929Y-34850921D01*
X36820548Y-34898540D01*
X36915786Y-35041397D01*
X36963405Y-35231873D01*
X36963405Y-35612825D01*
X36915786Y-35708063D01*
X36868167Y-35755682D01*
X36772929Y-35803301D01*
X36582453Y-35803301D01*
X36487215Y-35755682D01*
X36439596Y-35708063D01*
X36391977Y-35612825D01*
X36391977Y-35374730D01*
X36439596Y-35279492D01*
X36487215Y-35231873D01*
X36582453Y-35184254D01*
X36772929Y-35184254D01*
X36868167Y-35231873D01*
X36915786Y-35279492D01*
X36963405Y-35374730D01*
D12*
%TO.C,LED2*%
X54827501Y-27244844D02*
X55303692Y-27244844D01*
X55303692Y-26244844D01*
X54494168Y-26721035D02*
X54160834Y-26721035D01*
X54017977Y-27244844D02*
X54494168Y-27244844D01*
X54494168Y-26244844D01*
X54017977Y-26244844D01*
X53589406Y-27244844D02*
X53589406Y-26244844D01*
X53351311Y-26244844D01*
X53208454Y-26292464D01*
X53113215Y-26387702D01*
X53065596Y-26482940D01*
X53017977Y-26673416D01*
X53017977Y-26816273D01*
X53065596Y-27006749D01*
X53113215Y-27101987D01*
X53208454Y-27197225D01*
X53351311Y-27244844D01*
X53589406Y-27244844D01*
X52637025Y-26340083D02*
X52589406Y-26292464D01*
X52494168Y-26244844D01*
X52256073Y-26244844D01*
X52160834Y-26292464D01*
X52113215Y-26340083D01*
X52065596Y-26435321D01*
X52065596Y-26530559D01*
X52113215Y-26673416D01*
X52684644Y-27244844D01*
X52065596Y-27244844D01*
D10*
%TO.C,C7*%
X63076760Y-37788562D02*
X63124379Y-37740943D01*
X63171998Y-37598086D01*
X63171998Y-37502848D01*
X63124379Y-37359990D01*
X63029141Y-37264752D01*
X62933903Y-37217133D01*
X62743427Y-37169514D01*
X62600570Y-37169514D01*
X62410094Y-37217133D01*
X62314856Y-37264752D01*
X62219618Y-37359990D01*
X62171998Y-37502848D01*
X62171998Y-37598086D01*
X62219618Y-37740943D01*
X62267237Y-37788562D01*
X62171998Y-38121895D02*
X62171998Y-38788562D01*
X63171998Y-38359990D01*
D12*
%TO.C,LED3*%
X54838730Y-29299852D02*
X55314921Y-29299852D01*
X55314921Y-28299852D01*
X54505397Y-28776043D02*
X54172063Y-28776043D01*
X54029206Y-29299852D02*
X54505397Y-29299852D01*
X54505397Y-28299852D01*
X54029206Y-28299852D01*
X53600635Y-29299852D02*
X53600635Y-28299852D01*
X53362540Y-28299852D01*
X53219683Y-28347472D01*
X53124444Y-28442710D01*
X53076825Y-28537948D01*
X53029206Y-28728424D01*
X53029206Y-28871281D01*
X53076825Y-29061757D01*
X53124444Y-29156995D01*
X53219683Y-29252233D01*
X53362540Y-29299852D01*
X53600635Y-29299852D01*
X52695873Y-28299852D02*
X52076825Y-28299852D01*
X52410159Y-28680805D01*
X52267302Y-28680805D01*
X52172063Y-28728424D01*
X52124444Y-28776043D01*
X52076825Y-28871281D01*
X52076825Y-29109376D01*
X52124444Y-29204614D01*
X52172063Y-29252233D01*
X52267302Y-29299852D01*
X52553016Y-29299852D01*
X52648254Y-29252233D01*
X52695873Y-29204614D01*
%TO.C,LED7*%
X54849960Y-37654639D02*
X55326151Y-37654639D01*
X55326151Y-36654639D01*
X54516627Y-37130830D02*
X54183293Y-37130830D01*
X54040436Y-37654639D02*
X54516627Y-37654639D01*
X54516627Y-36654639D01*
X54040436Y-36654639D01*
X53611865Y-37654639D02*
X53611865Y-36654639D01*
X53373770Y-36654639D01*
X53230913Y-36702259D01*
X53135674Y-36797497D01*
X53088055Y-36892735D01*
X53040436Y-37083211D01*
X53040436Y-37226068D01*
X53088055Y-37416544D01*
X53135674Y-37511782D01*
X53230913Y-37607020D01*
X53373770Y-37654639D01*
X53611865Y-37654639D01*
X52707103Y-36654639D02*
X52040436Y-36654639D01*
X52469008Y-37654639D01*
D10*
%TO.C,C4*%
X69243942Y-28482853D02*
X69291561Y-28435234D01*
X69339180Y-28292377D01*
X69339180Y-28197139D01*
X69291561Y-28054281D01*
X69196323Y-27959043D01*
X69101085Y-27911424D01*
X68910609Y-27863805D01*
X68767752Y-27863805D01*
X68577276Y-27911424D01*
X68482038Y-27959043D01*
X68386800Y-28054281D01*
X68339180Y-28197139D01*
X68339180Y-28292377D01*
X68386800Y-28435234D01*
X68434419Y-28482853D01*
X68672514Y-29339996D02*
X69339180Y-29339996D01*
X68291561Y-29101900D02*
X69005847Y-28863805D01*
X69005847Y-29482853D01*
D12*
%TO.C,LED4*%
X54872419Y-31388549D02*
X55348610Y-31388549D01*
X55348610Y-30388549D01*
X54539086Y-30864740D02*
X54205752Y-30864740D01*
X54062895Y-31388549D02*
X54539086Y-31388549D01*
X54539086Y-30388549D01*
X54062895Y-30388549D01*
X53634324Y-31388549D02*
X53634324Y-30388549D01*
X53396229Y-30388549D01*
X53253372Y-30436169D01*
X53158133Y-30531407D01*
X53110514Y-30626645D01*
X53062895Y-30817121D01*
X53062895Y-30959978D01*
X53110514Y-31150454D01*
X53158133Y-31245692D01*
X53253372Y-31340930D01*
X53396229Y-31388549D01*
X53634324Y-31388549D01*
X52205752Y-30721883D02*
X52205752Y-31388549D01*
X52443848Y-30340930D02*
X52681943Y-31055216D01*
X52062895Y-31055216D01*
D10*
%TO.C,D2*%
X62683727Y-30059733D02*
X62683727Y-29059733D01*
X62445632Y-29059733D01*
X62302774Y-29107353D01*
X62207536Y-29202591D01*
X62159917Y-29297829D01*
X62112298Y-29488305D01*
X62112298Y-29631162D01*
X62159917Y-29821638D01*
X62207536Y-29916876D01*
X62302774Y-30012114D01*
X62445632Y-30059733D01*
X62683727Y-30059733D01*
X61731346Y-29154972D02*
X61683727Y-29107353D01*
X61588489Y-29059733D01*
X61350393Y-29059733D01*
X61255155Y-29107353D01*
X61207536Y-29154972D01*
X61159917Y-29250210D01*
X61159917Y-29345448D01*
X61207536Y-29488305D01*
X61778965Y-30059733D01*
X61159917Y-30059733D01*
D12*
%TO.C,LED1*%
X54816271Y-25133688D02*
X55292462Y-25133688D01*
X55292462Y-24133688D01*
X54482938Y-24609879D02*
X54149604Y-24609879D01*
X54006747Y-25133688D02*
X54482938Y-25133688D01*
X54482938Y-24133688D01*
X54006747Y-24133688D01*
X53578176Y-25133688D02*
X53578176Y-24133688D01*
X53340081Y-24133688D01*
X53197224Y-24181308D01*
X53101985Y-24276546D01*
X53054366Y-24371784D01*
X53006747Y-24562260D01*
X53006747Y-24705117D01*
X53054366Y-24895593D01*
X53101985Y-24990831D01*
X53197224Y-25086069D01*
X53340081Y-25133688D01*
X53578176Y-25133688D01*
X52054366Y-25133688D02*
X52625795Y-25133688D01*
X52340081Y-25133688D02*
X52340081Y-24133688D01*
X52435319Y-24276546D01*
X52530557Y-24371784D01*
X52625795Y-24419403D01*
D10*
%TO.C,R6*%
X59735115Y-27132984D02*
X60068449Y-26656794D01*
X60306544Y-27132984D02*
X60306544Y-26132984D01*
X59925591Y-26132984D01*
X59830353Y-26180604D01*
X59782734Y-26228223D01*
X59735115Y-26323461D01*
X59735115Y-26466318D01*
X59782734Y-26561556D01*
X59830353Y-26609175D01*
X59925591Y-26656794D01*
X60306544Y-26656794D01*
X58877972Y-26132984D02*
X59068449Y-26132984D01*
X59163687Y-26180604D01*
X59211306Y-26228223D01*
X59306544Y-26371080D01*
X59354163Y-26561556D01*
X59354163Y-26942508D01*
X59306544Y-27037746D01*
X59258925Y-27085365D01*
X59163687Y-27132984D01*
X58973210Y-27132984D01*
X58877972Y-27085365D01*
X58830353Y-27037746D01*
X58782734Y-26942508D01*
X58782734Y-26704413D01*
X58830353Y-26609175D01*
X58877972Y-26561556D01*
X58973210Y-26513937D01*
X59163687Y-26513937D01*
X59258925Y-26561556D01*
X59306544Y-26609175D01*
X59354163Y-26704413D01*
%TO.C,D1*%
X62582367Y-26294809D02*
X62582367Y-25294809D01*
X62344272Y-25294809D01*
X62201414Y-25342429D01*
X62106176Y-25437667D01*
X62058557Y-25532905D01*
X62010938Y-25723381D01*
X62010938Y-25866238D01*
X62058557Y-26056714D01*
X62106176Y-26151952D01*
X62201414Y-26247190D01*
X62344272Y-26294809D01*
X62582367Y-26294809D01*
X61058557Y-26294809D02*
X61629986Y-26294809D01*
X61344272Y-26294809D02*
X61344272Y-25294809D01*
X61439510Y-25437667D01*
X61534748Y-25532905D01*
X61629986Y-25580524D01*
%TO.C,D3*%
X62639207Y-33797436D02*
X62639207Y-32797436D01*
X62401112Y-32797436D01*
X62258254Y-32845056D01*
X62163016Y-32940294D01*
X62115397Y-33035532D01*
X62067778Y-33226008D01*
X62067778Y-33368865D01*
X62115397Y-33559341D01*
X62163016Y-33654579D01*
X62258254Y-33749817D01*
X62401112Y-33797436D01*
X62639207Y-33797436D01*
X61734445Y-32797436D02*
X61115397Y-32797436D01*
X61448731Y-33178389D01*
X61305873Y-33178389D01*
X61210635Y-33226008D01*
X61163016Y-33273627D01*
X61115397Y-33368865D01*
X61115397Y-33606960D01*
X61163016Y-33702198D01*
X61210635Y-33749817D01*
X61305873Y-33797436D01*
X61591588Y-33797436D01*
X61686826Y-33749817D01*
X61734445Y-33702198D01*
%TO.C,C20*%
X41792743Y-35566778D02*
X41840362Y-35614397D01*
X41983219Y-35662016D01*
X42078457Y-35662016D01*
X42221314Y-35614397D01*
X42316552Y-35519159D01*
X42364171Y-35423921D01*
X42411790Y-35233445D01*
X42411790Y-35090588D01*
X42364171Y-34900112D01*
X42316552Y-34804874D01*
X42221314Y-34709636D01*
X42078457Y-34662016D01*
X41983219Y-34662016D01*
X41840362Y-34709636D01*
X41792743Y-34757255D01*
X41411790Y-34757255D02*
X41364171Y-34709636D01*
X41268933Y-34662016D01*
X41030838Y-34662016D01*
X40935600Y-34709636D01*
X40887981Y-34757255D01*
X40840362Y-34852493D01*
X40840362Y-34947731D01*
X40887981Y-35090588D01*
X41459409Y-35662016D01*
X40840362Y-35662016D01*
X40221314Y-34662016D02*
X40126076Y-34662016D01*
X40030838Y-34709636D01*
X39983219Y-34757255D01*
X39935600Y-34852493D01*
X39887981Y-35042969D01*
X39887981Y-35281064D01*
X39935600Y-35471540D01*
X39983219Y-35566778D01*
X40030838Y-35614397D01*
X40126076Y-35662016D01*
X40221314Y-35662016D01*
X40316552Y-35614397D01*
X40364171Y-35566778D01*
X40411790Y-35471540D01*
X40459409Y-35281064D01*
X40459409Y-35042969D01*
X40411790Y-34852493D01*
X40364171Y-34757255D01*
X40316552Y-34709636D01*
X40221314Y-34662016D01*
D12*
%TO.C,LED5*%
X54838730Y-33454787D02*
X55314921Y-33454787D01*
X55314921Y-32454787D01*
X54505397Y-32930978D02*
X54172063Y-32930978D01*
X54029206Y-33454787D02*
X54505397Y-33454787D01*
X54505397Y-32454787D01*
X54029206Y-32454787D01*
X53600635Y-33454787D02*
X53600635Y-32454787D01*
X53362540Y-32454787D01*
X53219683Y-32502407D01*
X53124444Y-32597645D01*
X53076825Y-32692883D01*
X53029206Y-32883359D01*
X53029206Y-33026216D01*
X53076825Y-33216692D01*
X53124444Y-33311930D01*
X53219683Y-33407168D01*
X53362540Y-33454787D01*
X53600635Y-33454787D01*
X52124444Y-32454787D02*
X52600635Y-32454787D01*
X52648254Y-32930978D01*
X52600635Y-32883359D01*
X52505397Y-32835740D01*
X52267302Y-32835740D01*
X52172063Y-32883359D01*
X52124444Y-32930978D01*
X52076825Y-33026216D01*
X52076825Y-33264311D01*
X52124444Y-33359549D01*
X52172063Y-33407168D01*
X52267302Y-33454787D01*
X52505397Y-33454787D01*
X52600635Y-33407168D01*
X52648254Y-33359549D01*
D10*
%TO.C,R9*%
X59699280Y-33474509D02*
X60032614Y-32998319D01*
X60270709Y-33474509D02*
X60270709Y-32474509D01*
X59889756Y-32474509D01*
X59794518Y-32522129D01*
X59746899Y-32569748D01*
X59699280Y-32664986D01*
X59699280Y-32807843D01*
X59746899Y-32903081D01*
X59794518Y-32950700D01*
X59889756Y-32998319D01*
X60270709Y-32998319D01*
X59223090Y-33474509D02*
X59032614Y-33474509D01*
X58937375Y-33426890D01*
X58889756Y-33379271D01*
X58794518Y-33236414D01*
X58746899Y-33045938D01*
X58746899Y-32664986D01*
X58794518Y-32569748D01*
X58842137Y-32522129D01*
X58937375Y-32474509D01*
X59127852Y-32474509D01*
X59223090Y-32522129D01*
X59270709Y-32569748D01*
X59318328Y-32664986D01*
X59318328Y-32903081D01*
X59270709Y-32998319D01*
X59223090Y-33045938D01*
X59127852Y-33093557D01*
X58937375Y-33093557D01*
X58842137Y-33045938D01*
X58794518Y-32998319D01*
X58746899Y-32903081D01*
D12*
%TO.C,LED8*%
X54861189Y-39720877D02*
X55337380Y-39720877D01*
X55337380Y-38720877D01*
X54527856Y-39197068D02*
X54194522Y-39197068D01*
X54051665Y-39720877D02*
X54527856Y-39720877D01*
X54527856Y-38720877D01*
X54051665Y-38720877D01*
X53623094Y-39720877D02*
X53623094Y-38720877D01*
X53384999Y-38720877D01*
X53242142Y-38768497D01*
X53146903Y-38863735D01*
X53099284Y-38958973D01*
X53051665Y-39149449D01*
X53051665Y-39292306D01*
X53099284Y-39482782D01*
X53146903Y-39578020D01*
X53242142Y-39673258D01*
X53384999Y-39720877D01*
X53623094Y-39720877D01*
X52480237Y-39149449D02*
X52575475Y-39101830D01*
X52623094Y-39054211D01*
X52670713Y-38958973D01*
X52670713Y-38911354D01*
X52623094Y-38816116D01*
X52575475Y-38768497D01*
X52480237Y-38720877D01*
X52289761Y-38720877D01*
X52194522Y-38768497D01*
X52146903Y-38816116D01*
X52099284Y-38911354D01*
X52099284Y-38958973D01*
X52146903Y-39054211D01*
X52194522Y-39101830D01*
X52289761Y-39149449D01*
X52480237Y-39149449D01*
X52575475Y-39197068D01*
X52623094Y-39244687D01*
X52670713Y-39339925D01*
X52670713Y-39530401D01*
X52623094Y-39625639D01*
X52575475Y-39673258D01*
X52480237Y-39720877D01*
X52289761Y-39720877D01*
X52194522Y-39673258D01*
X52146903Y-39625639D01*
X52099284Y-39530401D01*
X52099284Y-39339925D01*
X52146903Y-39244687D01*
X52194522Y-39197068D01*
X52289761Y-39149449D01*
D10*
%TO.C,R12*%
X60687830Y-39778523D02*
X61021163Y-39302333D01*
X61259258Y-39778523D02*
X61259258Y-38778523D01*
X60878306Y-38778523D01*
X60783068Y-38826143D01*
X60735449Y-38873762D01*
X60687830Y-38969000D01*
X60687830Y-39111857D01*
X60735449Y-39207095D01*
X60783068Y-39254714D01*
X60878306Y-39302333D01*
X61259258Y-39302333D01*
X59735449Y-39778523D02*
X60306877Y-39778523D01*
X60021163Y-39778523D02*
X60021163Y-38778523D01*
X60116401Y-38921381D01*
X60211639Y-39016619D01*
X60306877Y-39064238D01*
X59354496Y-38873762D02*
X59306877Y-38826143D01*
X59211639Y-38778523D01*
X58973544Y-38778523D01*
X58878306Y-38826143D01*
X58830687Y-38873762D01*
X58783068Y-38969000D01*
X58783068Y-39064238D01*
X58830687Y-39207095D01*
X59402115Y-39778523D01*
X58783068Y-39778523D01*
%TO.C,R7*%
X59735115Y-29246826D02*
X60068449Y-28770636D01*
X60306544Y-29246826D02*
X60306544Y-28246826D01*
X59925591Y-28246826D01*
X59830353Y-28294446D01*
X59782734Y-28342065D01*
X59735115Y-28437303D01*
X59735115Y-28580160D01*
X59782734Y-28675398D01*
X59830353Y-28723017D01*
X59925591Y-28770636D01*
X60306544Y-28770636D01*
X59401782Y-28246826D02*
X58735115Y-28246826D01*
X59163687Y-29246826D01*
%TO.C,R4*%
X39049731Y-30264749D02*
X38573541Y-29931416D01*
X39049731Y-29693320D02*
X38049731Y-29693320D01*
X38049731Y-30074273D01*
X38097351Y-30169511D01*
X38144970Y-30217130D01*
X38240208Y-30264749D01*
X38383065Y-30264749D01*
X38478303Y-30217130D01*
X38525922Y-30169511D01*
X38573541Y-30074273D01*
X38573541Y-29693320D01*
X38383065Y-31121892D02*
X39049731Y-31121892D01*
X38002112Y-30883796D02*
X38716398Y-30645701D01*
X38716398Y-31264749D01*
D13*
%TO.C,USB1*%
X29793384Y-30111632D02*
X31689684Y-30111632D01*
X26036484Y-39255632D02*
X26036484Y-30111632D01*
X26036484Y-30111632D02*
X27609584Y-30111632D01*
X27609584Y-39255632D02*
X26036484Y-39255632D01*
X31689684Y-39255632D02*
X29793384Y-39255632D01*
D14*
%TO.C,R1*%
X70469425Y-37717971D02*
X70469425Y-38192487D01*
X71514425Y-37717971D02*
X71514425Y-38192487D01*
%TO.C,Q1*%
X69156800Y-33671352D02*
X69156800Y-32261352D01*
X69816800Y-32261352D02*
X69156800Y-32261352D01*
X71476800Y-32261352D02*
X71476800Y-34291352D01*
X71476800Y-32261352D02*
X70816800Y-32261352D01*
%TO.C,C6*%
X37312743Y-32856148D02*
X37593903Y-32856148D01*
X37312743Y-33876148D02*
X37593903Y-33876148D01*
%TO.C,C2*%
X45202743Y-38900764D02*
X44921583Y-38900764D01*
X45202743Y-39920764D02*
X44921583Y-39920764D01*
%TO.C,U1*%
X46669769Y-31910030D02*
X46669769Y-25900030D01*
X39849769Y-25900030D02*
X41109769Y-25900030D01*
X46669769Y-25900030D02*
X45409769Y-25900030D01*
X39849769Y-29660030D02*
X39849769Y-25900030D01*
%TO.C,C5*%
X45162201Y-36139241D02*
X44881041Y-36139241D01*
X45162201Y-37159241D02*
X44881041Y-37159241D01*
%TO.C,R11*%
X56799773Y-36716763D02*
X57274289Y-36716763D01*
X56799773Y-37761763D02*
X57274289Y-37761763D01*
%TO.C,L1*%
X74903531Y-33320660D02*
X74903531Y-32521416D01*
X73783531Y-33320660D02*
X73783531Y-32521416D01*
%TO.C,R2*%
X67048272Y-37717971D02*
X67048272Y-38192487D01*
X68093272Y-37717971D02*
X68093272Y-38192487D01*
%TO.C,C1*%
X74923078Y-37814649D02*
X74923078Y-38095809D01*
X73903078Y-37814649D02*
X73903078Y-38095809D01*
%TO.C,C10*%
X37354937Y-38900764D02*
X37636097Y-38900764D01*
X37354937Y-39920764D02*
X37636097Y-39920764D01*
%TO.C,R5*%
X56799433Y-25143576D02*
X57273949Y-25143576D01*
X56799433Y-24098576D02*
X57273949Y-24098576D01*
%TO.C,L2*%
X42727900Y-34046148D02*
X43527144Y-34046148D01*
X42727900Y-32926148D02*
X43527144Y-32926148D01*
%TO.C,F1*%
X37535123Y-25132812D02*
X37535123Y-26336940D01*
X35715123Y-25132812D02*
X35715123Y-26336940D01*
%TO.C,C8*%
X41237345Y-39920764D02*
X40956185Y-39920764D01*
X41237345Y-38900764D02*
X40956185Y-38900764D01*
%TO.C,R8*%
X56773052Y-31452670D02*
X57247568Y-31452670D01*
X56773052Y-30407670D02*
X57247568Y-30407670D01*
%TO.C,R10*%
X56773052Y-35658732D02*
X57247568Y-35658732D01*
X56773052Y-34613732D02*
X57247568Y-34613732D01*
D10*
%TO.C,LED6*%
X49989576Y-35098841D02*
X50243576Y-35098841D01*
X50416676Y-35855341D02*
X51566676Y-35855341D01*
X50416676Y-34355241D02*
X51566676Y-34355241D01*
X49989576Y-35486241D02*
X49989576Y-34724241D01*
X51866676Y-34655141D02*
X51566676Y-34355241D01*
X51866676Y-35455241D02*
X51866676Y-35555241D01*
X48566576Y-34355341D02*
X48566576Y-35835241D01*
X51866676Y-34755341D02*
X51866676Y-34655141D01*
X49816676Y-35855341D02*
X48566576Y-35855341D01*
X51866676Y-34755341D02*
X51866676Y-35455241D01*
X51866676Y-35555241D02*
X51566676Y-35855341D01*
X49816676Y-34355241D02*
X48566576Y-34355241D01*
D14*
%TO.C,C16*%
X37372722Y-36139241D02*
X37653882Y-36139241D01*
X37372722Y-37159241D02*
X37653882Y-37159241D01*
D10*
%TO.C,LED2*%
X51866676Y-26423277D02*
X51866676Y-27123177D01*
X51866676Y-26423277D02*
X51866676Y-26323077D01*
X50416676Y-26023177D02*
X51566676Y-26023177D01*
X48566576Y-26023277D02*
X48566576Y-27503177D01*
X51866676Y-27223177D02*
X51566676Y-27523277D01*
X49816676Y-26023177D02*
X48566576Y-26023177D01*
X49816676Y-27523277D02*
X48566576Y-27523277D01*
X49989576Y-26766777D02*
X50243576Y-26766777D01*
X51866676Y-26323077D02*
X51566676Y-26023177D01*
X49989576Y-27154177D02*
X49989576Y-26392177D01*
X51866676Y-27123177D02*
X51866676Y-27223177D01*
X50416676Y-27523277D02*
X51566676Y-27523277D01*
D14*
%TO.C,C7*%
X63639618Y-37814649D02*
X63639618Y-38095809D01*
X64659618Y-37814649D02*
X64659618Y-38095809D01*
D10*
%TO.C,LED3*%
X49816676Y-28106193D02*
X48566576Y-28106193D01*
X50416676Y-28106193D02*
X51566676Y-28106193D01*
X51866676Y-29206193D02*
X51866676Y-29306193D01*
X51866676Y-28406093D02*
X51566676Y-28106193D01*
X49989576Y-28849793D02*
X50243576Y-28849793D01*
X51866676Y-29306193D02*
X51566676Y-29606293D01*
X51866676Y-28506293D02*
X51866676Y-28406093D01*
X49816676Y-29606293D02*
X48566576Y-29606293D01*
X49989576Y-29237193D02*
X49989576Y-28475193D01*
X51866676Y-28506293D02*
X51866676Y-29206193D01*
X50416676Y-29606293D02*
X51566676Y-29606293D01*
X48566576Y-28106293D02*
X48566576Y-29586193D01*
%TO.C,LED7*%
X51866676Y-36838357D02*
X51866676Y-36738157D01*
X50416676Y-37938357D02*
X51566676Y-37938357D01*
X49816676Y-37938357D02*
X48566576Y-37938357D01*
X51866676Y-37638257D02*
X51566676Y-37938357D01*
X51866676Y-36838357D02*
X51866676Y-37538257D01*
X50416676Y-36438257D02*
X51566676Y-36438257D01*
X49989576Y-37181857D02*
X50243576Y-37181857D01*
X48566576Y-36438357D02*
X48566576Y-37918257D01*
X49989576Y-37569257D02*
X49989576Y-36807257D01*
X49816676Y-36438257D02*
X48566576Y-36438257D01*
X51866676Y-36738157D02*
X51566676Y-36438257D01*
X51866676Y-37538257D02*
X51866676Y-37638257D01*
D14*
%TO.C,C4*%
X70826800Y-28508940D02*
X70826800Y-28790100D01*
X69806800Y-28508940D02*
X69806800Y-28790100D01*
D10*
%TO.C,LED4*%
X50416676Y-30189209D02*
X51566676Y-30189209D01*
X49816676Y-30189209D02*
X48566576Y-30189209D01*
X51866676Y-31289209D02*
X51866676Y-31389209D01*
X51866676Y-30589309D02*
X51866676Y-31289209D01*
X50416676Y-31689309D02*
X51566676Y-31689309D01*
X51866676Y-31389209D02*
X51566676Y-31689309D01*
X49816676Y-31689309D02*
X48566576Y-31689309D01*
X51866676Y-30589309D02*
X51866676Y-30489109D01*
X51866676Y-30489109D02*
X51566676Y-30189209D01*
X49989576Y-30932809D02*
X50243576Y-30932809D01*
X48566576Y-30189309D02*
X48566576Y-31669209D01*
X49989576Y-31320209D02*
X49989576Y-30558209D01*
D14*
%TO.C,D2*%
X63487916Y-28562624D02*
X67387916Y-28562624D01*
X63487916Y-30562624D02*
X67387916Y-30562624D01*
X63487916Y-30562624D02*
X63487916Y-28562624D01*
D10*
%TO.C,LED1*%
X50416676Y-23940155D02*
X51566676Y-23940155D01*
X51866676Y-25040155D02*
X51866676Y-25140155D01*
X51866676Y-25140155D02*
X51566676Y-25440255D01*
X49816676Y-25440255D02*
X48566576Y-25440255D01*
X49816676Y-23940155D02*
X48566576Y-23940155D01*
X51866676Y-24340255D02*
X51866676Y-24240055D01*
X48566576Y-23940255D02*
X48566576Y-25420155D01*
X49989576Y-24683755D02*
X50243576Y-24683755D01*
X51866676Y-24340255D02*
X51866676Y-25040155D01*
X51866676Y-24240055D02*
X51566676Y-23940155D01*
X50416676Y-25440255D02*
X51566676Y-25440255D01*
X49989576Y-25071155D02*
X49989576Y-24309155D01*
D14*
%TO.C,R6*%
X56773052Y-27246608D02*
X57247568Y-27246608D01*
X56773052Y-26201608D02*
X57247568Y-26201608D01*
%TO.C,D1*%
X67987916Y-24800562D02*
X67987916Y-26800562D01*
X67987916Y-24800562D02*
X64087916Y-24800562D01*
X67987916Y-26800562D02*
X64087916Y-26800562D01*
%TO.C,D3*%
X63487916Y-32324687D02*
X67387916Y-32324687D01*
X63487916Y-34324687D02*
X63487916Y-32324687D01*
X63487916Y-34324687D02*
X67387916Y-34324687D01*
%TO.C,C20*%
X41290466Y-37159241D02*
X41009306Y-37159241D01*
X41290466Y-36139241D02*
X41009306Y-36139241D01*
D10*
%TO.C,LED5*%
X49989576Y-33015825D02*
X50243576Y-33015825D01*
X51866676Y-32672325D02*
X51866676Y-33372225D01*
X49989576Y-33403225D02*
X49989576Y-32641225D01*
X51866676Y-33472225D02*
X51566676Y-33772325D01*
X51866676Y-32672325D02*
X51866676Y-32572125D01*
X50416676Y-33772325D02*
X51566676Y-33772325D01*
X49816676Y-33772325D02*
X48566576Y-33772325D01*
X51866676Y-33372225D02*
X51866676Y-33472225D01*
X51866676Y-32572125D02*
X51566676Y-32272225D01*
X48566576Y-32272325D02*
X48566576Y-33752225D01*
X50416676Y-32272225D02*
X51566676Y-32272225D01*
X49816676Y-32272225D02*
X48566576Y-32272225D01*
D14*
%TO.C,R9*%
X56737217Y-32510701D02*
X57211733Y-32510701D01*
X56737217Y-33555701D02*
X57211733Y-33555701D01*
D10*
%TO.C,LED8*%
X49989576Y-39652273D02*
X49989576Y-38890273D01*
X51866676Y-38821173D02*
X51566676Y-38521273D01*
X50416676Y-38521273D02*
X51566676Y-38521273D01*
X49816676Y-38521273D02*
X48566576Y-38521273D01*
X50416676Y-40021373D02*
X51566676Y-40021373D01*
X48566576Y-38521373D02*
X48566576Y-40001273D01*
X51866676Y-39621273D02*
X51866676Y-39721273D01*
X51866676Y-38921373D02*
X51866676Y-39621273D01*
X49816676Y-40021373D02*
X48566576Y-40021373D01*
X51866676Y-38921373D02*
X51866676Y-38821173D01*
X51866676Y-39721273D02*
X51566676Y-40021373D01*
X49989576Y-39264873D02*
X50243576Y-39264873D01*
D14*
%TO.C,R12*%
X56799433Y-39864794D02*
X57273949Y-39864794D01*
X56799433Y-38819794D02*
X57273949Y-38819794D01*
%TO.C,R7*%
X56773052Y-29349639D02*
X57247568Y-29349639D01*
X56773052Y-28304639D02*
X57247568Y-28304639D01*
%TO.C,R4*%
X37201247Y-30587908D02*
X37201247Y-30113392D01*
X36156247Y-30587908D02*
X36156247Y-30113392D01*
%TD*%
M02*
