%TF.GenerationSoftware,KiCad,Pcbnew,(6.0.6-1)-1*%
%TF.CreationDate,2022-08-11T03:14:30+08:00*%
%TF.ProjectId,card,63617264-2e6b-4696-9361-645f70636258,rev?*%
%TF.SameCoordinates,Original*%
%TF.FileFunction,Copper,L1,Top*%
%TF.FilePolarity,Positive*%
%FSLAX46Y46*%
G04 Gerber Fmt 4.6, Leading zero omitted, Abs format (unit mm)*
G04 Created by KiCad (PCBNEW (6.0.6-1)-1) date 2022-08-11 03:14:30*
%MOMM*%
%LPD*%
G01*
G04 APERTURE LIST*
G04 Aperture macros list*
%AMRoundRect*
0 Rectangle with rounded corners*
0 $1 Rounding radius*
0 $2 $3 $4 $5 $6 $7 $8 $9 X,Y pos of 4 corners*
0 Add a 4 corners polygon primitive as box body*
4,1,4,$2,$3,$4,$5,$6,$7,$8,$9,$2,$3,0*
0 Add four circle primitives for the rounded corners*
1,1,$1+$1,$2,$3*
1,1,$1+$1,$4,$5*
1,1,$1+$1,$6,$7*
1,1,$1+$1,$8,$9*
0 Add four rect primitives between the rounded corners*
20,1,$1+$1,$2,$3,$4,$5,0*
20,1,$1+$1,$4,$5,$6,$7,0*
20,1,$1+$1,$6,$7,$8,$9,0*
20,1,$1+$1,$8,$9,$2,$3,0*%
G04 Aperture macros list end*
%TA.AperFunction,ComponentPad*%
%ADD10O,1.800000X1.200000*%
%TD*%
%TA.AperFunction,ComponentPad*%
%ADD11O,2.000000X1.200000*%
%TD*%
%TA.AperFunction,SMDPad,CuDef*%
%ADD12R,2.400000X2.000000*%
%TD*%
%TA.AperFunction,SMDPad,CuDef*%
%ADD13R,0.599400X0.701000*%
%TD*%
%TA.AperFunction,SMDPad,CuDef*%
%ADD14R,0.899200X0.701000*%
%TD*%
%TA.AperFunction,SMDPad,CuDef*%
%ADD15RoundRect,0.225000X-0.225000X-0.250000X0.225000X-0.250000X0.225000X0.250000X-0.225000X0.250000X0*%
%TD*%
%TA.AperFunction,SMDPad,CuDef*%
%ADD16RoundRect,0.200000X-0.200000X-0.275000X0.200000X-0.275000X0.200000X0.275000X-0.200000X0.275000X0*%
%TD*%
%TA.AperFunction,SMDPad,CuDef*%
%ADD17RoundRect,0.225000X0.225000X0.250000X-0.225000X0.250000X-0.225000X-0.250000X0.225000X-0.250000X0*%
%TD*%
%TA.AperFunction,SMDPad,CuDef*%
%ADD18RoundRect,0.225000X0.250000X-0.225000X0.250000X0.225000X-0.250000X0.225000X-0.250000X-0.225000X0*%
%TD*%
%TA.AperFunction,SMDPad,CuDef*%
%ADD19R,1.000000X1.800000*%
%TD*%
%TA.AperFunction,SMDPad,CuDef*%
%ADD20RoundRect,0.075000X-0.441942X-0.548008X0.548008X0.441942X0.441942X0.548008X-0.548008X-0.441942X0*%
%TD*%
%TA.AperFunction,SMDPad,CuDef*%
%ADD21RoundRect,0.075000X0.441942X-0.548008X0.548008X-0.441942X-0.441942X0.548008X-0.548008X0.441942X0*%
%TD*%
%TA.AperFunction,SMDPad,CuDef*%
%ADD22R,1.800900X0.299700*%
%TD*%
%TA.AperFunction,SMDPad,CuDef*%
%ADD23R,1.501100X1.999000*%
%TD*%
%TA.AperFunction,SMDPad,CuDef*%
%ADD24R,1.000800X1.249700*%
%TD*%
%TA.AperFunction,ViaPad*%
%ADD25C,0.700000*%
%TD*%
%TA.AperFunction,Conductor*%
%ADD26C,0.200000*%
%TD*%
%TA.AperFunction,Conductor*%
%ADD27C,0.300000*%
%TD*%
%TA.AperFunction,Conductor*%
%ADD28C,0.254000*%
%TD*%
G04 APERTURE END LIST*
D10*
%TO.P,USB1,4,EP*%
%TO.N,unconnected-(USB1-Pad4)*%
X28701584Y-30363632D03*
%TO.P,USB1,3,EP*%
%TO.N,unconnected-(USB1-Pad3)*%
X28701584Y-39003732D03*
D11*
%TO.P,USB1,2,EP*%
%TO.N,unconnected-(USB1-Pad2)*%
X32881684Y-30363632D03*
%TO.P,USB1,1,EP*%
%TO.N,unconnected-(USB1-Pad1)*%
X32881684Y-39003732D03*
%TD*%
D12*
%TO.P,Y1,1,1*%
%TO.N,OSC_IN*%
X41387858Y-35196814D03*
%TO.P,Y1,2,2*%
%TO.N,OSC_OUT*%
X41387858Y-38896814D03*
%TD*%
D13*
%TO.P,SW1,1,1*%
%TO.N,VDD*%
X32283025Y-26438264D03*
%TO.P,SW1,2,2*%
%TO.N,VSS*%
X30281425Y-26438264D03*
D14*
%TO.P,SW1,4,4*%
%TO.N,unconnected-(SW1-Pad4)*%
X28282525Y-25178464D03*
%TO.P,SW1,5,5*%
%TO.N,unconnected-(SW1-Pad5)*%
X34281925Y-25178464D03*
D13*
%TO.P,SW1,C,C*%
%TO.N,Net-(R3-Pad1)*%
X31282225Y-26438264D03*
%TD*%
D15*
%TO.P,C13,1*%
%TO.N,VSS*%
X62280748Y-34827884D03*
%TO.P,C13,2*%
%TO.N,Net-(C13-Pad2)*%
X63830748Y-34827884D03*
%TD*%
D16*
%TO.P,R3,1*%
%TO.N,Net-(R3-Pad1)*%
X30440218Y-28268957D03*
%TO.P,R3,2*%
%TO.N,BOOT0*%
X32090218Y-28268957D03*
%TD*%
D17*
%TO.P,C3,1*%
%TO.N,NRST*%
X30642146Y-37629399D03*
%TO.P,C3,2*%
%TO.N,VSS*%
X29092146Y-37629399D03*
%TD*%
D18*
%TO.P,C22,1*%
%TO.N,OSC32_OUT*%
X39786828Y-26991152D03*
%TO.P,C22,2*%
%TO.N,VSS*%
X39786828Y-25441152D03*
%TD*%
D19*
%TO.P,Y2,1,1*%
%TO.N,OSC32_IN*%
X42362377Y-29697894D03*
%TO.P,Y2,2,2*%
%TO.N,OSC32_OUT*%
X39862377Y-29697894D03*
%TD*%
D15*
%TO.P,C11,1*%
%TO.N,VSS*%
X62280748Y-25297104D03*
%TO.P,C11,2*%
%TO.N,Net-(C11-Pad2)*%
X63830748Y-25297104D03*
%TD*%
%TO.P,C17,1*%
%TO.N,VSS*%
X66757499Y-25331331D03*
%TO.P,C17,2*%
%TO.N,Net-(C17-Pad2)*%
X68307499Y-25331331D03*
%TD*%
D20*
%TO.P,U2,1,VDD*%
%TO.N,VDD*%
X46041111Y-33077206D03*
%TO.P,U2,2,PC13*%
%TO.N,unconnected-(U2-Pad2)*%
X46394664Y-33430759D03*
%TO.P,U2,3,PC14*%
%TO.N,OSC32_IN*%
X46748217Y-33784312D03*
%TO.P,U2,4,PC15*%
%TO.N,OSC32_OUT*%
X47101771Y-34137866D03*
%TO.P,U2,5,PH0*%
%TO.N,OSC_IN*%
X47455324Y-34491419D03*
%TO.P,U2,6,PH1*%
%TO.N,OSC_OUT*%
X47808878Y-34844973D03*
%TO.P,U2,7,NRST*%
%TO.N,NRST*%
X48162431Y-35198526D03*
%TO.P,U2,8,PC0*%
%TO.N,unconnected-(U2-Pad8)*%
X48515984Y-35552079D03*
%TO.P,U2,9,PC1*%
%TO.N,unconnected-(U2-Pad9)*%
X48869538Y-35905633D03*
%TO.P,U2,10,PC2*%
%TO.N,unconnected-(U2-Pad10)*%
X49223091Y-36259186D03*
%TO.P,U2,11,PC3*%
%TO.N,unconnected-(U2-Pad11)*%
X49576644Y-36612739D03*
%TO.P,U2,12,VSSA*%
%TO.N,VSS*%
X49930198Y-36966293D03*
%TO.P,U2,13,VDDA*%
%TO.N,VDDA*%
X50283751Y-37319846D03*
%TO.P,U2,14,PA0*%
%TO.N,unconnected-(U2-Pad14)*%
X50637305Y-37673400D03*
%TO.P,U2,15,PA1*%
%TO.N,RST*%
X50990858Y-38026953D03*
%TO.P,U2,16,PA2*%
%TO.N,D{slash}C*%
X51344411Y-38380506D03*
D21*
%TO.P,U2,17,PA3*%
%TO.N,BUSY*%
X54066773Y-38380506D03*
%TO.P,U2,18,VSS*%
%TO.N,VSS*%
X54420326Y-38026953D03*
%TO.P,U2,19,VDD*%
%TO.N,VDD*%
X54773879Y-37673400D03*
%TO.P,U2,20,PA4*%
%TO.N,CS*%
X55127433Y-37319846D03*
%TO.P,U2,21,PA5*%
%TO.N,CLK*%
X55480986Y-36966293D03*
%TO.P,U2,22,PA6*%
%TO.N,unconnected-(U2-Pad22)*%
X55834540Y-36612739D03*
%TO.P,U2,23,PA7*%
%TO.N,DIN*%
X56188093Y-36259186D03*
%TO.P,U2,24,PC4*%
%TO.N,unconnected-(U2-Pad24)*%
X56541646Y-35905633D03*
%TO.P,U2,25,PC5*%
%TO.N,unconnected-(U2-Pad25)*%
X56895200Y-35552079D03*
%TO.P,U2,26,PB0*%
%TO.N,/PB0*%
X57248753Y-35198526D03*
%TO.P,U2,27,PB1*%
%TO.N,/PB1*%
X57602306Y-34844973D03*
%TO.P,U2,28,PB2*%
%TO.N,/PB2*%
X57955860Y-34491419D03*
%TO.P,U2,29,PB10*%
%TO.N,unconnected-(U2-Pad29)*%
X58309413Y-34137866D03*
%TO.P,U2,30,PB11*%
%TO.N,unconnected-(U2-Pad30)*%
X58662967Y-33784312D03*
%TO.P,U2,31,VSS*%
%TO.N,VSS*%
X59016520Y-33430759D03*
%TO.P,U2,32,VDD*%
%TO.N,VDD*%
X59370073Y-33077206D03*
D20*
%TO.P,U2,33,PB12*%
%TO.N,unconnected-(U2-Pad33)*%
X59370073Y-30354844D03*
%TO.P,U2,34,PB13*%
%TO.N,unconnected-(U2-Pad34)*%
X59016520Y-30001291D03*
%TO.P,U2,35,PB14*%
%TO.N,unconnected-(U2-Pad35)*%
X58662967Y-29647738D03*
%TO.P,U2,36,PB15*%
%TO.N,unconnected-(U2-Pad36)*%
X58309413Y-29294184D03*
%TO.P,U2,37,PC6*%
%TO.N,unconnected-(U2-Pad37)*%
X57955860Y-28940631D03*
%TO.P,U2,38,PC7*%
%TO.N,unconnected-(U2-Pad38)*%
X57602306Y-28587077D03*
%TO.P,U2,39,PC8*%
%TO.N,unconnected-(U2-Pad39)*%
X57248753Y-28233524D03*
%TO.P,U2,40,PC9*%
%TO.N,unconnected-(U2-Pad40)*%
X56895200Y-27879971D03*
%TO.P,U2,41,PA8*%
%TO.N,unconnected-(U2-Pad41)*%
X56541646Y-27526417D03*
%TO.P,U2,42,PA9*%
%TO.N,unconnected-(U2-Pad42)*%
X56188093Y-27172864D03*
%TO.P,U2,43,PA10*%
%TO.N,unconnected-(U2-Pad43)*%
X55834540Y-26819311D03*
%TO.P,U2,44,PA11*%
%TO.N,DM*%
X55480986Y-26465757D03*
%TO.P,U2,45,PA12*%
%TO.N,DP*%
X55127433Y-26112204D03*
%TO.P,U2,46,PA13*%
%TO.N,unconnected-(U2-Pad46)*%
X54773879Y-25758650D03*
%TO.P,U2,47,VSS*%
%TO.N,VSS*%
X54420326Y-25405097D03*
%TO.P,U2,48,VDD_USB*%
%TO.N,VDD*%
X54066773Y-25051544D03*
D21*
%TO.P,U2,49,PA14*%
%TO.N,unconnected-(U2-Pad49)*%
X51344411Y-25051544D03*
%TO.P,U2,50,PA15*%
%TO.N,unconnected-(U2-Pad50)*%
X50990858Y-25405097D03*
%TO.P,U2,51,PC10*%
%TO.N,unconnected-(U2-Pad51)*%
X50637305Y-25758650D03*
%TO.P,U2,52,PC11*%
%TO.N,unconnected-(U2-Pad52)*%
X50283751Y-26112204D03*
%TO.P,U2,53,PC12*%
%TO.N,unconnected-(U2-Pad53)*%
X49930198Y-26465757D03*
%TO.P,U2,54,PD2*%
%TO.N,unconnected-(U2-Pad54)*%
X49576644Y-26819311D03*
%TO.P,U2,55,PB3*%
%TO.N,/PB3*%
X49223091Y-27172864D03*
%TO.P,U2,56,PB4*%
%TO.N,/PB4*%
X48869538Y-27526417D03*
%TO.P,U2,57,PB5*%
%TO.N,/PB5*%
X48515984Y-27879971D03*
%TO.P,U2,58,PB6*%
%TO.N,/PB6*%
X48162431Y-28233524D03*
%TO.P,U2,59,PB7*%
%TO.N,/PB7*%
X47808878Y-28587077D03*
%TO.P,U2,60,BOOT0*%
%TO.N,BOOT0*%
X47455324Y-28940631D03*
%TO.P,U2,61,PB8*%
%TO.N,unconnected-(U2-Pad61)*%
X47101771Y-29294184D03*
%TO.P,U2,62,PB9*%
%TO.N,unconnected-(U2-Pad62)*%
X46748217Y-29647738D03*
%TO.P,U2,63,VSS*%
%TO.N,VSS*%
X46394664Y-30001291D03*
%TO.P,U2,64,VDD*%
%TO.N,VDD*%
X46041111Y-30354844D03*
%TD*%
D15*
%TO.P,C19,1*%
%TO.N,VSS*%
X66757499Y-39543890D03*
%TO.P,C19,2*%
%TO.N,Net-(C19-Pad2)*%
X68307499Y-39543890D03*
%TD*%
D17*
%TO.P,C15,1*%
%TO.N,OSC_OUT*%
X38020815Y-39398510D03*
%TO.P,C15,2*%
%TO.N,VSS*%
X36470815Y-39398510D03*
%TD*%
%TO.P,C9,1*%
%TO.N,OSC_IN*%
X38020815Y-34746219D03*
%TO.P,C9,2*%
%TO.N,VSS*%
X36470815Y-34746219D03*
%TD*%
D22*
%TO.P,P1,1,NC*%
%TO.N,unconnected-(P1-Pad1)*%
X71367002Y-26378010D03*
%TO.P,P1,2,GDR*%
%TO.N,/GDR*%
X71367002Y-26878410D03*
%TO.P,P1,3,RESE*%
%TO.N,/RESE*%
X71367002Y-27378810D03*
%TO.P,P1,4,NC*%
%TO.N,unconnected-(P1-Pad4)*%
X71367002Y-27879210D03*
%TO.P,P1,5,VSH2*%
%TO.N,Net-(C11-Pad2)*%
X71367002Y-28379610D03*
%TO.P,P1,6,TSCL*%
%TO.N,unconnected-(P1-Pad6)*%
X71367002Y-28877410D03*
%TO.P,P1,7,TSDA*%
%TO.N,unconnected-(P1-Pad7)*%
X71367002Y-29377810D03*
%TO.P,P1,8,BS*%
%TO.N,VSS*%
X71367002Y-29878210D03*
%TO.P,P1,9,BUSY*%
%TO.N,BUSY*%
X71367002Y-30378510D03*
%TO.P,P1,10,RES*%
%TO.N,RST*%
X71367002Y-30878910D03*
%TO.P,P1,11,D/C*%
%TO.N,D{slash}C*%
X71367002Y-31379310D03*
%TO.P,P1,12,CS*%
%TO.N,CS*%
X71367002Y-31879710D03*
%TO.P,P1,13,SCL*%
%TO.N,CLK*%
X71367002Y-32377510D03*
%TO.P,P1,14,SDA*%
%TO.N,DIN*%
X71367002Y-32877910D03*
%TO.P,P1,15,VDDIO*%
%TO.N,VDD*%
X71367002Y-33378310D03*
%TO.P,P1,16,VCI*%
X71367002Y-33878710D03*
%TO.P,P1,17,VSS*%
%TO.N,VSS*%
X71367002Y-34379010D03*
%TO.P,P1,18,VDD*%
%TO.N,Net-(C17-Pad2)*%
X71367002Y-34879410D03*
%TO.P,P1,19,VPP*%
%TO.N,unconnected-(P1-Pad19)*%
X71367002Y-35377310D03*
%TO.P,P1,20,VSH1*%
%TO.N,Net-(C13-Pad2)*%
X71367002Y-35877610D03*
%TO.P,P1,21,PREVGH*%
%TO.N,/PREVGH*%
X71367002Y-36378010D03*
%TO.P,P1,22,VSL*%
%TO.N,Net-(C18-Pad2)*%
X71367002Y-36878410D03*
%TO.P,P1,23,PREVGL*%
%TO.N,/PREVGL*%
X71367002Y-37378810D03*
%TO.P,P1,24,VCOM*%
%TO.N,Net-(C19-Pad2)*%
X71367002Y-37879210D03*
D23*
%TO.P,P1,25*%
%TO.N,unconnected-(P1-Pad25)*%
X73815602Y-39578410D03*
%TO.P,P1,26*%
%TO.N,unconnected-(P1-Pad26)*%
X73815602Y-24678810D03*
%TD*%
D18*
%TO.P,C21,1*%
%TO.N,OSC32_IN*%
X42309872Y-26972600D03*
%TO.P,C21,2*%
%TO.N,VSS*%
X42309872Y-25422600D03*
%TD*%
D15*
%TO.P,C18,1*%
%TO.N,VSS*%
X66757499Y-32437610D03*
%TO.P,C18,2*%
%TO.N,Net-(C18-Pad2)*%
X68307499Y-32437610D03*
%TD*%
%TO.P,C14,1*%
%TO.N,VSS*%
X62280748Y-39593274D03*
%TO.P,C14,2*%
%TO.N,/PREVGL*%
X63830748Y-39593274D03*
%TD*%
D24*
%TO.P,SW2,1,1*%
%TO.N,VSS*%
X29120780Y-35606994D03*
%TO.P,SW2,2,2*%
X29120780Y-31857994D03*
%TO.P,SW2,3,3*%
%TO.N,NRST*%
X30619380Y-35606994D03*
%TO.P,SW2,4,4*%
X30619380Y-31857994D03*
%TD*%
D15*
%TO.P,C12,1*%
%TO.N,VSS*%
X62280748Y-30062494D03*
%TO.P,C12,2*%
%TO.N,VDD*%
X63830748Y-30062494D03*
%TD*%
D25*
%TO.N,VDD*%
X63654845Y-31131817D03*
X36597883Y-28455543D03*
X44154755Y-29494166D03*
X69132736Y-26914367D03*
X73127714Y-33816117D03*
X60596338Y-31264547D03*
X47877469Y-23942112D03*
%TO.N,VSS*%
X43280084Y-40293940D03*
X73929164Y-29147876D03*
X64121455Y-31958757D03*
X75301958Y-29705931D03*
X30818816Y-29547528D03*
X65239705Y-40223333D03*
X46929984Y-37544276D03*
X35627084Y-40293564D03*
X45152046Y-28758673D03*
X77221868Y-29906615D03*
X73420004Y-35298309D03*
X58905548Y-38211403D03*
X61019195Y-24035551D03*
%TO.N,VDDA*%
X46537724Y-38442812D03*
%TO.N,NRST*%
X43375415Y-34588870D03*
X45057102Y-37955623D03*
%TO.N,/PREVGH*%
X63030248Y-31932592D03*
X63117440Y-37963894D03*
X69379205Y-36444208D03*
%TO.N,/PREVGL*%
X75745240Y-35767315D03*
%TO.N,Net-(C18-Pad2)*%
X68386383Y-33416893D03*
X69762296Y-35161607D03*
X68045951Y-34750251D03*
X69336756Y-37388599D03*
%TO.N,/GDR*%
X73920630Y-32794330D03*
X73065318Y-26909056D03*
X73998865Y-30545477D03*
%TO.N,/RESE*%
X72913353Y-27744856D03*
X72948873Y-31856536D03*
X72913353Y-30657036D03*
%TO.N,BUSY*%
X61083239Y-39455719D03*
X69209933Y-29914532D03*
%TO.N,RST*%
X61531248Y-33301243D03*
X68346770Y-30162124D03*
X61451998Y-28645631D03*
X52455990Y-39513230D03*
%TO.N,D{slash}C*%
X53612153Y-39475934D03*
X67297763Y-31147250D03*
%TO.N,CS*%
X61531248Y-36164016D03*
X69300992Y-31575146D03*
%TO.N,CLK*%
X69492498Y-32654692D03*
X60427844Y-36069939D03*
%TO.N,DIN*%
X64769463Y-35290563D03*
X60418088Y-35006472D03*
%TO.N,DP*%
X58832536Y-24133947D03*
%TO.N,/PB0*%
X47413149Y-25497271D03*
%TO.N,/PB1*%
X52420256Y-27483902D03*
%TO.N,DM*%
X45140792Y-26707969D03*
X35157246Y-33900913D03*
X57080215Y-25444791D03*
%TO.N,/PB2*%
X53054607Y-28256693D03*
%TO.N,/PB3*%
X52225973Y-30339709D03*
%TO.N,/PB4*%
X50146121Y-31897477D03*
%TO.N,/PB5*%
X50126562Y-33991540D03*
%TO.N,/PB6*%
X48300938Y-31274102D03*
%TO.N,/PB7*%
X47548857Y-31693636D03*
%TD*%
D26*
%TO.N,NRST*%
X45057102Y-37955623D02*
X45426935Y-37955623D01*
X45426935Y-37955623D02*
X48162431Y-35220127D01*
X48162431Y-35220127D02*
X48162431Y-35198526D01*
D27*
%TO.N,VSS*%
X46929984Y-37544276D02*
X46971455Y-37585747D01*
X46971455Y-37585747D02*
X49310742Y-37585747D01*
X49310742Y-37585747D02*
X49930198Y-36966293D01*
D26*
%TO.N,Net-(C17-Pad2)*%
X72346976Y-25331331D02*
X72975201Y-25959556D01*
X75199468Y-35315927D02*
X74616625Y-35898770D01*
X74616625Y-30291010D02*
X74616625Y-33305533D01*
X73978764Y-37028810D02*
X73115588Y-37028810D01*
X72975201Y-25959556D02*
X74327485Y-25959556D01*
X74616625Y-36390949D02*
X73978764Y-37028810D01*
X74616625Y-28291315D02*
X74616625Y-29472934D01*
X74327485Y-25959556D02*
X74755845Y-26387916D01*
X74755845Y-26387916D02*
X74755845Y-28152095D01*
X68307499Y-25331331D02*
X72346976Y-25331331D01*
X74342207Y-29747352D02*
X74342207Y-30016592D01*
X74755845Y-28152095D02*
X74616625Y-28291315D01*
X74616625Y-29472934D02*
X74342207Y-29747352D01*
X74342207Y-30016592D02*
X74616625Y-30291010D01*
X74616625Y-33305533D02*
X75199468Y-33888376D01*
X75199468Y-33888376D02*
X75199468Y-35315927D01*
X74616625Y-35898770D02*
X74616625Y-36390949D01*
X73115588Y-37028810D02*
X72712312Y-36625534D01*
X72712312Y-36625534D02*
X72712312Y-35192782D01*
X72712312Y-35192782D02*
X72398940Y-34879410D01*
X72398940Y-34879410D02*
X71367002Y-34879410D01*
D27*
%TO.N,VSS*%
X75301958Y-29705931D02*
X75502642Y-29906615D01*
X75502642Y-29906615D02*
X77221868Y-29906615D01*
D26*
%TO.N,/PB4*%
X48869538Y-27526417D02*
X49451406Y-28108285D01*
%TO.N,VSS*%
X29567917Y-27151772D02*
X30281425Y-26438264D01*
X30818816Y-29547528D02*
X30754683Y-29483395D01*
X30754683Y-29483395D02*
X30085842Y-29483395D01*
X29567917Y-28965470D02*
X29567917Y-27151772D01*
X30085842Y-29483395D02*
X29567917Y-28965470D01*
X29120780Y-35606994D02*
X29120780Y-31857994D01*
%TO.N,NRST*%
X30619380Y-35606994D02*
X30619380Y-31857994D01*
%TO.N,BOOT0*%
X35419333Y-28268957D02*
X32090218Y-28268957D01*
%TO.N,VSS*%
X35627084Y-40293564D02*
X31756311Y-40293564D01*
X31756311Y-40293564D02*
X29092146Y-37629399D01*
%TO.N,DM*%
X37662512Y-31394940D02*
X37662512Y-25387621D01*
X35157246Y-33900913D02*
X35157246Y-33900206D01*
X35157246Y-33900206D02*
X37662512Y-31394940D01*
X38427533Y-24622600D02*
X43486728Y-24622600D01*
X37662512Y-25387621D02*
X38427533Y-24622600D01*
X43486728Y-24622600D02*
X45140792Y-26276664D01*
X45140792Y-26276664D02*
X45140792Y-26707969D01*
D27*
%TO.N,VDD*%
X60596338Y-31264547D02*
X60558150Y-31264547D01*
X60558150Y-31264547D02*
X60229206Y-31593491D01*
X47113520Y-32318960D02*
X49536100Y-34741540D01*
X46799357Y-32318960D02*
X46041111Y-33077206D01*
X54773879Y-37673400D02*
X53686914Y-36586435D01*
X46041111Y-30354844D02*
X46799357Y-31113090D01*
X34580604Y-26438264D02*
X36597883Y-28455543D01*
X46799357Y-32318960D02*
X47113520Y-32318960D01*
X53447318Y-25670999D02*
X54066773Y-25051544D01*
X46799357Y-31113090D02*
X46799357Y-32318960D01*
X53733782Y-35376169D02*
X53733782Y-36539567D01*
X59370073Y-33077206D02*
X60229206Y-33077206D01*
X63654845Y-31131817D02*
X63654845Y-30238397D01*
X59370073Y-33072689D02*
X53447318Y-27149934D01*
X63654845Y-30238397D02*
X63830748Y-30062494D01*
X73065121Y-33878710D02*
X73127714Y-33816117D01*
X48451189Y-23368392D02*
X52383621Y-23368392D01*
X46041111Y-30354844D02*
X45015433Y-30354844D01*
X53099153Y-34741540D02*
X53733782Y-35376169D01*
X66978875Y-26914367D02*
X69132736Y-26914367D01*
X45015433Y-30354844D02*
X44154755Y-29494166D01*
X32283025Y-26438264D02*
X34580604Y-26438264D01*
X53447318Y-27149934D02*
X53447318Y-25670999D01*
X71367002Y-33878710D02*
X73065121Y-33878710D01*
X52383621Y-23368392D02*
X54031417Y-25016188D01*
X53733782Y-36539567D02*
X53722270Y-36551079D01*
D26*
X71367002Y-33378310D02*
X71367002Y-33878710D01*
D27*
X49536100Y-34741540D02*
X53099153Y-34741540D01*
X47877469Y-23942112D02*
X48451189Y-23368392D01*
D26*
X59370073Y-33077206D02*
X59370073Y-33072689D01*
D27*
X60229206Y-33077206D02*
X60229206Y-31593491D01*
X63830748Y-30062494D02*
X66978875Y-26914367D01*
%TO.N,VSS*%
X54420326Y-38026953D02*
X55039781Y-38646408D01*
X54420326Y-38026953D02*
X52740211Y-36346838D01*
X60898877Y-38211403D02*
X62280748Y-39593274D01*
X58905548Y-38211403D02*
X60898877Y-38211403D01*
X63155748Y-40468274D02*
X62280748Y-39593274D01*
X72534936Y-34379010D02*
X73420004Y-35264078D01*
D26*
X35627460Y-40293940D02*
X35627084Y-40293564D01*
D27*
X66757499Y-32437610D02*
X64600308Y-32437610D01*
D26*
X29120780Y-31857994D02*
X29218610Y-31760164D01*
D27*
X59016520Y-33430759D02*
X59635975Y-34050214D01*
X77221868Y-29906615D02*
X77236511Y-29921258D01*
D26*
X55301874Y-24523549D02*
X55301874Y-24498408D01*
X73420004Y-35264078D02*
X73420004Y-35298309D01*
D27*
X54420326Y-25405097D02*
X55301874Y-24523549D01*
X63155748Y-24422104D02*
X65848272Y-24422104D01*
X43280084Y-40293940D02*
X35627460Y-40293940D01*
X60367591Y-23383947D02*
X56416335Y-23383947D01*
X65239705Y-40223333D02*
X64994764Y-40468274D01*
X61019195Y-24035551D02*
X60367591Y-23383947D01*
X61503078Y-34050214D02*
X62280748Y-34827884D01*
D26*
X42291320Y-25441152D02*
X42309872Y-25422600D01*
X29092146Y-37629399D02*
X29120780Y-37600765D01*
D27*
X77236511Y-29921258D02*
X77236511Y-29984122D01*
X59635975Y-34050214D02*
X61503078Y-34050214D01*
X56416335Y-23383947D02*
X55301874Y-24498408D01*
X39786828Y-25441152D02*
X42291320Y-25441152D01*
X64994764Y-40468274D02*
X63155748Y-40468274D01*
X36470815Y-39398510D02*
X36092843Y-39398510D01*
X58470544Y-38646408D02*
X55288640Y-38646408D01*
X36092843Y-39398510D02*
X35627084Y-39864269D01*
X62280748Y-25297104D02*
X61019195Y-24035551D01*
X62280748Y-39593274D02*
X62280748Y-34827884D01*
X58905548Y-38211403D02*
X58470544Y-38646408D01*
X62280748Y-25297104D02*
X63155748Y-24422104D01*
X45152046Y-28758673D02*
X45152046Y-28264774D01*
X65239705Y-40223333D02*
X66078056Y-40223333D01*
X45152046Y-28264774D02*
X42309872Y-25422600D01*
X66078056Y-40223333D02*
X66757499Y-39543890D01*
X62280748Y-30062494D02*
X62280748Y-25297104D01*
X35627084Y-39864269D02*
X35627084Y-40293564D01*
X73198830Y-29878210D02*
X73929164Y-29147876D01*
X71367002Y-34379010D02*
X72534936Y-34379010D01*
D26*
X29120780Y-37600765D02*
X29120780Y-35606994D01*
D27*
X50549653Y-36346838D02*
X49930198Y-36966293D01*
X36470815Y-39398510D02*
X36086173Y-39398510D01*
X45152046Y-28758673D02*
X46394664Y-30001291D01*
X64600308Y-32437610D02*
X64121455Y-31958757D01*
X55039781Y-38646408D02*
X55288640Y-38646408D01*
X65848272Y-24422104D02*
X66757499Y-25331331D01*
X36470815Y-34746219D02*
X36470815Y-39398510D01*
X62280748Y-34827884D02*
X62280748Y-30062494D01*
X52740211Y-36346838D02*
X50549653Y-36346838D01*
D26*
X42582401Y-25422600D02*
X42309872Y-25422600D01*
D27*
X71367002Y-29878210D02*
X73198830Y-29878210D01*
%TO.N,VDDA*%
X49164422Y-38442812D02*
X49463732Y-38143502D01*
X50283751Y-37319846D02*
X49463732Y-38139867D01*
D26*
X49463732Y-38139867D02*
X49463732Y-38143502D01*
D27*
X49164422Y-38442812D02*
X46537724Y-38442812D01*
D26*
%TO.N,NRST*%
X42707764Y-33921219D02*
X43375415Y-34588870D01*
X30619380Y-37606633D02*
X30619380Y-35606994D01*
X30642146Y-37629399D02*
X30619380Y-37606633D01*
X35984762Y-33921219D02*
X42707764Y-33921219D01*
X34298987Y-35606994D02*
X35984762Y-33921219D01*
X30619380Y-35606994D02*
X34298987Y-35606994D01*
%TO.N,/PREVGH*%
X63079641Y-31981985D02*
X63030248Y-31932592D01*
X63079641Y-33493143D02*
X63079641Y-31981985D01*
X63080748Y-33494250D02*
X63079641Y-33493143D01*
X71367002Y-36378010D02*
X69445403Y-36378010D01*
X63117440Y-37963894D02*
X63080748Y-37927202D01*
X69445403Y-36378010D02*
X69379205Y-36444208D01*
X63080748Y-37927202D02*
X63080748Y-33494250D01*
%TO.N,OSC_IN*%
X46749929Y-35196814D02*
X47455324Y-34491419D01*
X38020815Y-34746219D02*
X38471410Y-35196814D01*
X41387858Y-35196814D02*
X46749929Y-35196814D01*
X38471410Y-35196814D02*
X41387858Y-35196814D01*
%TO.N,Net-(C11-Pad2)*%
X73930409Y-26309556D02*
X74405845Y-26784992D01*
X72202002Y-25681331D02*
X72830227Y-26309556D01*
X74033355Y-28379610D02*
X71367002Y-28379610D01*
X69111560Y-25681331D02*
X72202002Y-25681331D01*
X72830227Y-26309556D02*
X73930409Y-26309556D01*
X64713402Y-26179758D02*
X68613133Y-26179758D01*
X63830748Y-25297104D02*
X64713402Y-26179758D01*
X68613133Y-26179758D02*
X69111560Y-25681331D01*
X74405845Y-26784992D02*
X74405845Y-28007120D01*
X74405845Y-28007120D02*
X74033355Y-28379610D01*
%TO.N,Net-(C13-Pad2)*%
X69197582Y-35778009D02*
X69852731Y-35778009D01*
X68713006Y-37886546D02*
X68713006Y-36262585D01*
X63830748Y-34827884D02*
X63830748Y-37428572D01*
X68713006Y-36262585D02*
X69197582Y-35778009D01*
X71367002Y-35877610D02*
X69952332Y-35877610D01*
X63830748Y-37428572D02*
X64701066Y-38298890D01*
X69952332Y-35877610D02*
X69852731Y-35778009D01*
X64701066Y-38298890D02*
X68300662Y-38298890D01*
X68300662Y-38298890D02*
X68713006Y-37886546D01*
%TO.N,/PREVGL*%
X69047022Y-38648890D02*
X64775132Y-38648890D01*
X64775132Y-38648890D02*
X63830748Y-39593274D01*
X70317102Y-37378810D02*
X69047022Y-38648890D01*
X71367002Y-37378810D02*
X70317102Y-37378810D01*
X75745240Y-35767315D02*
X74133745Y-37378810D01*
X74133745Y-37378810D02*
X71367002Y-37378810D01*
%TO.N,OSC_OUT*%
X43740719Y-35546814D02*
X47107037Y-35546814D01*
X41387858Y-37899675D02*
X43740719Y-35546814D01*
X41387858Y-38896814D02*
X41387858Y-37899675D01*
X38020815Y-39398510D02*
X38522511Y-38896814D01*
X38522511Y-38896814D02*
X41387858Y-38896814D01*
X47107037Y-35546814D02*
X47808878Y-34844973D01*
%TO.N,Net-(C18-Pad2)*%
X68457307Y-35161607D02*
X69762296Y-35161607D01*
X69336756Y-37388599D02*
X69846945Y-36878410D01*
X69846945Y-36878410D02*
X71367002Y-36878410D01*
X68045951Y-34750251D02*
X68457307Y-35161607D01*
X68307499Y-32437610D02*
X68307499Y-33352194D01*
%TO.N,Net-(C19-Pad2)*%
X68307499Y-39543890D02*
X69702322Y-39543890D01*
X69702322Y-39543890D02*
X71367002Y-37879210D01*
%TO.N,OSC32_IN*%
X42362377Y-29697894D02*
X42362377Y-27025105D01*
X42362377Y-31702920D02*
X44966777Y-34307320D01*
X46225209Y-34307320D02*
X46748217Y-33784312D01*
X42362377Y-29697894D02*
X42362377Y-31702920D01*
X44966777Y-34307320D02*
X46225209Y-34307320D01*
X42362377Y-27025105D02*
X42309872Y-26972600D01*
%TO.N,OSC32_OUT*%
X39862377Y-29697894D02*
X44821803Y-34657320D01*
X46582317Y-34657320D02*
X47101771Y-34137866D01*
X39862377Y-29697894D02*
X39862377Y-27066701D01*
X39862377Y-27066701D02*
X39786828Y-26991152D01*
X44821803Y-34657320D02*
X46582317Y-34657320D01*
%TO.N,/GDR*%
X73920630Y-32794330D02*
X73998865Y-32716095D01*
X71367002Y-26878410D02*
X73034672Y-26878410D01*
X73034672Y-26878410D02*
X73065318Y-26909056D01*
X73998865Y-32716095D02*
X73998865Y-30545477D01*
%TO.N,/RESE*%
X72913353Y-31821016D02*
X72913353Y-30657036D01*
X72486071Y-27378810D02*
X71367002Y-27378810D01*
X72852117Y-27744856D02*
X72486071Y-27378810D01*
X72913353Y-27744856D02*
X72852117Y-27744856D01*
X72948873Y-31856536D02*
X72913353Y-31821016D01*
%TO.N,BUSY*%
X69209933Y-29914532D02*
X69759078Y-29914532D01*
X60895618Y-39643340D02*
X55329607Y-39643340D01*
X70223056Y-30378510D02*
X71367002Y-30378510D01*
X69759078Y-29914532D02*
X70223056Y-30378510D01*
X55329607Y-39643340D02*
X54066773Y-38380506D01*
%TO.N,RST*%
X61548600Y-33283891D02*
X61548600Y-30852133D01*
X61531248Y-33301243D02*
X61548600Y-33283891D01*
X61548600Y-30852133D02*
X61451998Y-30755531D01*
X61451998Y-30755531D02*
X61451998Y-28645631D01*
X68346770Y-30162124D02*
X68699178Y-30514532D01*
X50471403Y-38961802D02*
X51022831Y-39513230D01*
X50471403Y-38546408D02*
X50471403Y-38961802D01*
X51022831Y-39513230D02*
X52455990Y-39513230D01*
X68699178Y-30514532D02*
X69864104Y-30514532D01*
X50990858Y-38026953D02*
X50471403Y-38546408D01*
X70228482Y-30878910D02*
X71367002Y-30878910D01*
X69864104Y-30514532D02*
X70228482Y-30878910D01*
%TO.N,D{slash}C*%
X69719130Y-30864532D02*
X70233908Y-31379310D01*
X67629401Y-31147250D02*
X68014527Y-30762124D01*
X67297763Y-31147250D02*
X67629401Y-31147250D01*
X51344411Y-38380506D02*
X52516725Y-38380506D01*
X68451795Y-30762124D02*
X68554203Y-30864532D01*
X68014527Y-30762124D02*
X68451795Y-30762124D01*
X68554203Y-30864532D02*
X69719130Y-30864532D01*
X70233908Y-31379310D02*
X71367002Y-31379310D01*
X52516725Y-38380506D02*
X53612153Y-39475934D01*
%TO.N,CS*%
X69300992Y-31575146D02*
X69605556Y-31879710D01*
X61531248Y-36164016D02*
X61025325Y-36669939D01*
X61025325Y-36669939D02*
X59457062Y-36669939D01*
X55814794Y-38007207D02*
X55127433Y-37319846D01*
X69605556Y-31879710D02*
X71367002Y-31879710D01*
X59457062Y-36669939D02*
X58119794Y-38007207D01*
X58119794Y-38007207D02*
X55814794Y-38007207D01*
%TO.N,CLK*%
X55493379Y-36966293D02*
X56184293Y-37657207D01*
X55480986Y-36966293D02*
X55493379Y-36966293D01*
X69492498Y-32654692D02*
X69769680Y-32377510D01*
X57784847Y-37657207D02*
X59372115Y-36069939D01*
X69769680Y-32377510D02*
X71367002Y-32377510D01*
X56184293Y-37657207D02*
X57784847Y-37657207D01*
X59372115Y-36069939D02*
X60427844Y-36069939D01*
%TO.N,DIN*%
X56188093Y-36259186D02*
X56707548Y-36778641D01*
X65976454Y-34083572D02*
X68911440Y-34083572D01*
X57555337Y-36778641D02*
X59370012Y-34963966D01*
X64769463Y-35290563D02*
X65976454Y-34083572D01*
X56707548Y-36778641D02*
X57555337Y-36778641D01*
X60375582Y-34963966D02*
X60418088Y-35006472D01*
X68911440Y-34083572D02*
X70117102Y-32877910D01*
X70117102Y-32877910D02*
X71367002Y-32877910D01*
X59370012Y-34963966D02*
X60375582Y-34963966D01*
D28*
%TO.N,Net-(R3-Pad1)*%
X31282225Y-26438264D02*
X31282225Y-27426950D01*
X31282225Y-27426950D02*
X30440218Y-28268957D01*
D26*
%TO.N,BOOT0*%
X46935870Y-28421177D02*
X47455324Y-28940631D01*
X37312512Y-28730864D02*
X37312512Y-25224834D01*
X37312512Y-25224834D02*
X38326452Y-24210894D01*
X38326452Y-24210894D02*
X43610035Y-24210894D01*
X46935870Y-27536729D02*
X46935870Y-28421177D01*
X35419333Y-28268957D02*
X36306926Y-29156550D01*
X43610035Y-24210894D02*
X46935870Y-27536729D01*
X36886826Y-29156550D02*
X37312512Y-28730864D01*
X36306926Y-29156550D02*
X36886826Y-29156550D01*
%TO.N,DP*%
X56394846Y-24844791D02*
X55127433Y-26112204D01*
X58832536Y-24133947D02*
X58039588Y-24133947D01*
X58039588Y-24133947D02*
X57328744Y-24844791D01*
X57328744Y-24844791D02*
X56394846Y-24844791D01*
%TO.N,/PB0*%
X51820256Y-26685106D02*
X52493594Y-26011768D01*
X51182975Y-24006875D02*
X48903545Y-24006875D01*
X52493594Y-25317494D02*
X51182975Y-24006875D01*
X52493594Y-26011768D02*
X52493594Y-25317494D01*
X56729298Y-33309382D02*
X51820256Y-28400340D01*
X57248753Y-35198526D02*
X56729298Y-34679071D01*
X48903545Y-24006875D02*
X47413149Y-25497271D01*
X51820256Y-28400340D02*
X51820256Y-26685106D01*
X56729298Y-34679071D02*
X56729298Y-33309382D01*
%TO.N,/PB1*%
X57082852Y-34325519D02*
X57082852Y-33133467D01*
X57082852Y-33133467D02*
X52420256Y-28470871D01*
X52420256Y-28470871D02*
X52420256Y-27483902D01*
X57602306Y-34844973D02*
X57082852Y-34325519D01*
%TO.N,DM*%
X56501952Y-25444791D02*
X55480986Y-26465757D01*
X57080215Y-25444791D02*
X56501952Y-25444791D01*
%TO.N,/PB2*%
X53054607Y-28256693D02*
X53054607Y-28610248D01*
X57436405Y-33971964D02*
X57955860Y-34491419D01*
X53054607Y-28610248D02*
X57436405Y-32992046D01*
X57436405Y-32992046D02*
X57436405Y-33971964D01*
%TO.N,/PB3*%
X50113686Y-29850640D02*
X50113686Y-28063459D01*
X50113686Y-28063459D02*
X49223091Y-27172864D01*
X52225973Y-30339709D02*
X50602755Y-30339709D01*
X50602755Y-30339709D02*
X50113686Y-29850640D01*
%TO.N,/PB4*%
X49451406Y-30140768D02*
X49451406Y-28108285D01*
X50146121Y-30835483D02*
X49451406Y-30140768D01*
X50146121Y-31897477D02*
X50146121Y-30835483D01*
%TO.N,/PB5*%
X48515984Y-27879971D02*
X49101406Y-28465393D01*
X50047109Y-32646994D02*
X50047109Y-32661012D01*
X50126562Y-32740465D02*
X50126562Y-33991540D01*
X49101406Y-28465393D02*
X49101406Y-31701291D01*
X50047109Y-32661012D02*
X50126562Y-32740465D01*
X49101406Y-31701291D02*
X50047109Y-32646994D01*
%TO.N,/PB6*%
X48681886Y-28752979D02*
X48681886Y-30893155D01*
X48681886Y-30893155D02*
X48300938Y-31274102D01*
X48162431Y-28233524D02*
X48681886Y-28752979D01*
%TO.N,/PB7*%
X48331886Y-28977714D02*
X47941249Y-28587077D01*
X48331886Y-30445621D02*
X48331886Y-28977714D01*
X47941249Y-28587077D02*
X47808878Y-28587077D01*
X47548857Y-31693636D02*
X47548857Y-30925758D01*
X47548857Y-30925758D02*
X47839265Y-30635350D01*
X48142157Y-30635350D02*
X48331886Y-30445621D01*
X47839265Y-30635350D02*
X48142157Y-30635350D01*
%TD*%
%TA.AperFunction,Conductor*%
%TO.N,VSS*%
G36*
X76108836Y-22975148D02*
G01*
X76123668Y-22977458D01*
X76123671Y-22977458D01*
X76132540Y-22978839D01*
X76148829Y-22976709D01*
X76173406Y-22975915D01*
X76217675Y-22978817D01*
X76390509Y-22990147D01*
X76406849Y-22992298D01*
X76611284Y-23032964D01*
X76646149Y-23039899D01*
X76662063Y-23044164D01*
X76893101Y-23122593D01*
X76908317Y-23128896D01*
X77110682Y-23228695D01*
X77127141Y-23236812D01*
X77141414Y-23245053D01*
X77344268Y-23380599D01*
X77357344Y-23390632D01*
X77528926Y-23541109D01*
X77540782Y-23551507D01*
X77552433Y-23563159D01*
X77707341Y-23739802D01*
X77713299Y-23746596D01*
X77723331Y-23759671D01*
X77734988Y-23777117D01*
X77858872Y-23962530D01*
X77867113Y-23976803D01*
X77975022Y-24195629D01*
X77981329Y-24210856D01*
X78059754Y-24441900D01*
X78064015Y-24457806D01*
X78105998Y-24668888D01*
X78111609Y-24697099D01*
X78113760Y-24713439D01*
X78114550Y-24725504D01*
X78127535Y-24923683D01*
X78126566Y-24945469D01*
X78126511Y-24949989D01*
X78125129Y-24958862D01*
X78126293Y-24967764D01*
X78129257Y-24990437D01*
X78130320Y-25006771D01*
X78130320Y-38915781D01*
X78128820Y-38935166D01*
X78126510Y-38949999D01*
X78126510Y-38950003D01*
X78125129Y-38958872D01*
X78126293Y-38967774D01*
X78126293Y-38967777D01*
X78127259Y-38975160D01*
X78128053Y-38999739D01*
X78113823Y-39216849D01*
X78111672Y-39233189D01*
X78099468Y-39294542D01*
X78065110Y-39467278D01*
X78064073Y-39472489D01*
X78059808Y-39488406D01*
X78050203Y-39516700D01*
X77981383Y-39719438D01*
X77975076Y-39734666D01*
X77867161Y-39953495D01*
X77858921Y-39967767D01*
X77723370Y-40170634D01*
X77713344Y-40183701D01*
X77634142Y-40274014D01*
X77552469Y-40367144D01*
X77540815Y-40378798D01*
X77533320Y-40385371D01*
X77371379Y-40527390D01*
X77357376Y-40539670D01*
X77344305Y-40549699D01*
X77141438Y-40685250D01*
X77127166Y-40693490D01*
X76908337Y-40801405D01*
X76893109Y-40807712D01*
X76878368Y-40812716D01*
X76662077Y-40886137D01*
X76646163Y-40890401D01*
X76526511Y-40914201D01*
X76406861Y-40938001D01*
X76390521Y-40940152D01*
X76180590Y-40953912D01*
X76157427Y-40952881D01*
X76153970Y-40952839D01*
X76145096Y-40951457D01*
X76136194Y-40952621D01*
X76136192Y-40952621D01*
X76122735Y-40954381D01*
X76113534Y-40955584D01*
X76097199Y-40956648D01*
X75149068Y-40956648D01*
X75080947Y-40936646D01*
X75034454Y-40882990D01*
X75024350Y-40812716D01*
X75031086Y-40786418D01*
X75050009Y-40735943D01*
X75067897Y-40688226D01*
X75074652Y-40626044D01*
X75074652Y-38530776D01*
X75067897Y-38468594D01*
X75016767Y-38332205D01*
X74929413Y-38215649D01*
X74812857Y-38128295D01*
X74676468Y-38077165D01*
X74614286Y-38070410D01*
X74603189Y-38070410D01*
X74535068Y-38050408D01*
X74488575Y-37996752D01*
X74478471Y-37926478D01*
X74507965Y-37861898D01*
X74526483Y-37844449D01*
X74535817Y-37837287D01*
X74535820Y-37837284D01*
X74567732Y-37812797D01*
X74587203Y-37787423D01*
X74598061Y-37775043D01*
X75710384Y-36662720D01*
X75772696Y-36628694D01*
X75799479Y-36625815D01*
X75835472Y-36625815D01*
X75841925Y-36624443D01*
X75841929Y-36624443D01*
X75940090Y-36603578D01*
X76011992Y-36588295D01*
X76022454Y-36583637D01*
X76170825Y-36517578D01*
X76170827Y-36517577D01*
X76176855Y-36514893D01*
X76207883Y-36492350D01*
X76317509Y-36412702D01*
X76317511Y-36412700D01*
X76322853Y-36408819D01*
X76354668Y-36373485D01*
X76439188Y-36279616D01*
X76439189Y-36279615D01*
X76443607Y-36274708D01*
X76516148Y-36149063D01*
X76530535Y-36124145D01*
X76530536Y-36124144D01*
X76533839Y-36118422D01*
X76577339Y-35984541D01*
X76587565Y-35953069D01*
X76587565Y-35953068D01*
X76589605Y-35946790D01*
X76591153Y-35932067D01*
X76607779Y-35773880D01*
X76608469Y-35767315D01*
X76605590Y-35739919D01*
X76590295Y-35594404D01*
X76590295Y-35594403D01*
X76589605Y-35587840D01*
X76584209Y-35571231D01*
X76535881Y-35422493D01*
X76533839Y-35416208D01*
X76524505Y-35400040D01*
X76489090Y-35338701D01*
X76443607Y-35259922D01*
X76436408Y-35251926D01*
X76327275Y-35130722D01*
X76327274Y-35130721D01*
X76322853Y-35125811D01*
X76297074Y-35107081D01*
X76182197Y-35023618D01*
X76182196Y-35023617D01*
X76176855Y-35019737D01*
X76170827Y-35017053D01*
X76170825Y-35017052D01*
X76018023Y-34949020D01*
X76018021Y-34949020D01*
X76011992Y-34946335D01*
X75938237Y-34930658D01*
X75907771Y-34924182D01*
X75845298Y-34890453D01*
X75810976Y-34828304D01*
X75807968Y-34800935D01*
X75807968Y-33936512D01*
X75809046Y-33920066D01*
X75812140Y-33896564D01*
X75813218Y-33888376D01*
X75807968Y-33848498D01*
X75807968Y-33848491D01*
X75792306Y-33729526D01*
X75730992Y-33581501D01*
X75686540Y-33523570D01*
X75657945Y-33486304D01*
X75657942Y-33486301D01*
X75633455Y-33454389D01*
X75622134Y-33445702D01*
X75608089Y-33434924D01*
X75595698Y-33424057D01*
X75262030Y-33090389D01*
X75228004Y-33028077D01*
X75225125Y-33001294D01*
X75225125Y-30339154D01*
X75226203Y-30322708D01*
X75229298Y-30299198D01*
X75230376Y-30291010D01*
X75209463Y-30132159D01*
X75148149Y-29984134D01*
X75128613Y-29958674D01*
X75103013Y-29892457D01*
X75117277Y-29822908D01*
X75128608Y-29805276D01*
X75148149Y-29779810D01*
X75209463Y-29631785D01*
X75230376Y-29472934D01*
X75226203Y-29441235D01*
X75225125Y-29424790D01*
X75225125Y-28582861D01*
X75245127Y-28514740D01*
X75251162Y-28506157D01*
X75278932Y-28469966D01*
X75287369Y-28458971D01*
X75348683Y-28310946D01*
X75352041Y-28285433D01*
X75352730Y-28280203D01*
X75352730Y-28280202D01*
X75364345Y-28191980D01*
X75364345Y-28191975D01*
X75368517Y-28160284D01*
X75369595Y-28152095D01*
X75365423Y-28120402D01*
X75364345Y-28103959D01*
X75364345Y-26436060D01*
X75365423Y-26419614D01*
X75368518Y-26396104D01*
X75369596Y-26387916D01*
X75348683Y-26229066D01*
X75344394Y-26218710D01*
X75310545Y-26136993D01*
X75287369Y-26081040D01*
X75214323Y-25985845D01*
X75214319Y-25985841D01*
X75205383Y-25974195D01*
X75194861Y-25960482D01*
X75194858Y-25960479D01*
X75189832Y-25953929D01*
X75180106Y-25946466D01*
X75164466Y-25934464D01*
X75152075Y-25923597D01*
X75105608Y-25877130D01*
X75071582Y-25814818D01*
X75069440Y-25774429D01*
X75074283Y-25729846D01*
X75074284Y-25729836D01*
X75074652Y-25726444D01*
X75074652Y-23631176D01*
X75067897Y-23568994D01*
X75016767Y-23432605D01*
X74929413Y-23316049D01*
X74812857Y-23228695D01*
X74804448Y-23225543D01*
X74804447Y-23225542D01*
X74783342Y-23217630D01*
X74726577Y-23174989D01*
X74701877Y-23108427D01*
X74717084Y-23039078D01*
X74767370Y-22988960D01*
X74827571Y-22973648D01*
X76089450Y-22973648D01*
X76108836Y-22975148D01*
G37*
%TD.AperFunction*%
%TA.AperFunction,Conductor*%
G36*
X47430211Y-22993650D02*
G01*
X47476704Y-23047306D01*
X47486808Y-23117580D01*
X47457314Y-23182160D01*
X47436151Y-23201584D01*
X47305200Y-23296725D01*
X47305198Y-23296727D01*
X47299856Y-23300608D01*
X47295435Y-23305518D01*
X47295434Y-23305519D01*
X47222637Y-23386369D01*
X47179102Y-23434719D01*
X47088870Y-23591005D01*
X47080910Y-23615503D01*
X47036426Y-23752414D01*
X47033104Y-23762637D01*
X47032414Y-23769200D01*
X47032414Y-23769201D01*
X47030916Y-23783457D01*
X47014240Y-23942112D01*
X47014930Y-23948677D01*
X47023919Y-24034195D01*
X47033104Y-24121587D01*
X47088870Y-24293219D01*
X47092173Y-24298941D01*
X47092174Y-24298942D01*
X47108150Y-24326613D01*
X47179102Y-24449505D01*
X47200360Y-24473115D01*
X47231076Y-24537119D01*
X47222313Y-24607573D01*
X47176850Y-24662104D01*
X47148618Y-24675819D01*
X47146397Y-24676291D01*
X47140368Y-24678975D01*
X47140366Y-24678976D01*
X46987565Y-24747008D01*
X46987563Y-24747009D01*
X46981535Y-24749693D01*
X46976194Y-24753573D01*
X46976193Y-24753574D01*
X46840880Y-24851884D01*
X46840878Y-24851886D01*
X46835536Y-24855767D01*
X46831115Y-24860677D01*
X46831114Y-24860678D01*
X46734694Y-24967764D01*
X46714782Y-24989878D01*
X46624550Y-25146164D01*
X46568784Y-25317796D01*
X46568094Y-25324359D01*
X46568094Y-25324360D01*
X46556785Y-25431960D01*
X46549920Y-25497271D01*
X46550610Y-25503836D01*
X46565084Y-25641539D01*
X46568784Y-25676746D01*
X46570824Y-25683024D01*
X46570824Y-25683025D01*
X46593308Y-25752224D01*
X46624550Y-25848378D01*
X46714782Y-26004664D01*
X46719200Y-26009571D01*
X46719201Y-26009572D01*
X46815882Y-26116947D01*
X46835536Y-26138775D01*
X46840878Y-26142656D01*
X46840880Y-26142658D01*
X46971080Y-26237254D01*
X46981534Y-26244849D01*
X46987562Y-26247533D01*
X46987564Y-26247534D01*
X47140366Y-26315566D01*
X47146397Y-26318251D01*
X47234657Y-26337011D01*
X47316460Y-26354399D01*
X47316464Y-26354399D01*
X47322917Y-26355771D01*
X47503381Y-26355771D01*
X47509834Y-26354399D01*
X47509838Y-26354399D01*
X47591641Y-26337011D01*
X47679901Y-26318251D01*
X47685932Y-26315566D01*
X47838734Y-26247534D01*
X47838736Y-26247533D01*
X47844764Y-26244849D01*
X47855218Y-26237254D01*
X47985418Y-26142658D01*
X47985420Y-26142656D01*
X47990762Y-26138775D01*
X48010416Y-26116947D01*
X48107097Y-26009572D01*
X48107098Y-26009571D01*
X48111516Y-26004664D01*
X48201748Y-25848378D01*
X48232990Y-25752224D01*
X48255474Y-25683025D01*
X48255474Y-25683024D01*
X48257514Y-25676746D01*
X48260674Y-25646679D01*
X48272029Y-25538649D01*
X48299043Y-25472992D01*
X48308244Y-25462725D01*
X49118689Y-24652280D01*
X49181001Y-24618254D01*
X49207784Y-24615375D01*
X49661247Y-24615375D01*
X49729368Y-24635377D01*
X49775861Y-24689033D01*
X49785965Y-24759307D01*
X49756471Y-24823887D01*
X49750342Y-24830470D01*
X49649658Y-24931154D01*
X49579611Y-25022441D01*
X49578375Y-25021492D01*
X49546593Y-25053274D01*
X49547542Y-25054510D01*
X49456255Y-25124557D01*
X49296104Y-25284708D01*
X49226057Y-25375995D01*
X49224818Y-25375044D01*
X49193038Y-25406824D01*
X49193989Y-25408063D01*
X49102702Y-25478110D01*
X48942551Y-25638261D01*
X48872504Y-25729548D01*
X48871268Y-25728599D01*
X48839486Y-25760381D01*
X48840435Y-25761617D01*
X48749148Y-25831664D01*
X48588997Y-25991815D01*
X48518950Y-26083102D01*
X48517711Y-26082151D01*
X48485931Y-26113931D01*
X48486882Y-26115170D01*
X48395595Y-26185217D01*
X48235444Y-26345368D01*
X48165397Y-26436655D01*
X48164158Y-26435704D01*
X48132378Y-26467484D01*
X48133329Y-26468723D01*
X48042042Y-26538770D01*
X47881891Y-26698921D01*
X47811844Y-26790208D01*
X47810608Y-26789259D01*
X47778826Y-26821041D01*
X47779775Y-26822277D01*
X47688488Y-26892324D01*
X47528337Y-27052475D01*
X47525821Y-27055753D01*
X47525820Y-27055755D01*
X47522035Y-27060688D01*
X47464698Y-27102557D01*
X47393827Y-27106781D01*
X47345379Y-27083959D01*
X47344503Y-27083287D01*
X47332099Y-27072410D01*
X44074350Y-23814660D01*
X44063483Y-23802269D01*
X44049048Y-23783457D01*
X44044022Y-23776907D01*
X44012110Y-23752420D01*
X44012104Y-23752414D01*
X43923464Y-23684398D01*
X43923462Y-23684397D01*
X43916911Y-23679370D01*
X43768886Y-23618056D01*
X43760699Y-23616978D01*
X43760698Y-23616978D01*
X43749493Y-23615503D01*
X43718297Y-23611396D01*
X43649920Y-23602394D01*
X43649917Y-23602394D01*
X43649909Y-23602393D01*
X43618224Y-23598222D01*
X43610035Y-23597144D01*
X43578342Y-23601316D01*
X43561899Y-23602394D01*
X38374596Y-23602394D01*
X38358150Y-23601316D01*
X38334640Y-23598221D01*
X38326452Y-23597143D01*
X38167601Y-23618056D01*
X38019576Y-23679370D01*
X37992743Y-23699960D01*
X37924389Y-23752409D01*
X37924373Y-23752423D01*
X37899018Y-23771878D01*
X37899015Y-23771881D01*
X37892465Y-23776907D01*
X37887435Y-23783462D01*
X37873000Y-23802273D01*
X37862133Y-23814664D01*
X36916278Y-24760519D01*
X36903887Y-24771386D01*
X36878525Y-24790847D01*
X36854038Y-24822759D01*
X36854035Y-24822762D01*
X36854029Y-24822770D01*
X36801737Y-24890918D01*
X36780988Y-24917958D01*
X36719674Y-25065983D01*
X36718006Y-25078651D01*
X36704012Y-25184949D01*
X36704012Y-25184954D01*
X36698762Y-25224834D01*
X36699840Y-25233022D01*
X36702934Y-25256524D01*
X36704012Y-25272970D01*
X36704012Y-27326223D01*
X36684010Y-27394344D01*
X36630354Y-27440837D01*
X36560080Y-27450941D01*
X36495500Y-27421447D01*
X36488917Y-27415318D01*
X35881860Y-26808260D01*
X35116785Y-26043185D01*
X35082759Y-25980873D01*
X35087824Y-25910057D01*
X35105054Y-25878525D01*
X35176754Y-25782856D01*
X35176755Y-25782854D01*
X35182140Y-25775669D01*
X35233270Y-25639280D01*
X35240025Y-25577098D01*
X35240025Y-24779830D01*
X35233270Y-24717648D01*
X35182140Y-24581259D01*
X35094786Y-24464703D01*
X34978230Y-24377349D01*
X34841841Y-24326219D01*
X34779659Y-24319464D01*
X33784191Y-24319464D01*
X33722009Y-24326219D01*
X33585620Y-24377349D01*
X33473388Y-24461462D01*
X33406883Y-24486310D01*
X33337500Y-24471257D01*
X33325553Y-24463849D01*
X33305362Y-24449711D01*
X33250654Y-24411404D01*
X33072020Y-24334102D01*
X32881490Y-24294299D01*
X32875098Y-24293964D01*
X32732182Y-24293964D01*
X32719138Y-24295289D01*
X32593528Y-24308048D01*
X32593527Y-24308048D01*
X32587179Y-24308693D01*
X32401443Y-24366899D01*
X32231204Y-24461264D01*
X32083418Y-24587932D01*
X31964120Y-24741730D01*
X31878184Y-24916375D01*
X31876575Y-24922553D01*
X31876574Y-24922555D01*
X31835915Y-25078651D01*
X31829121Y-25104732D01*
X31826739Y-25150180D01*
X31819517Y-25287986D01*
X31818934Y-25299108D01*
X31829602Y-25369648D01*
X31840908Y-25444406D01*
X31831318Y-25514752D01*
X31785217Y-25568745D01*
X31717244Y-25589244D01*
X31693715Y-25586572D01*
X31692241Y-25586019D01*
X31630059Y-25579264D01*
X30934391Y-25579264D01*
X30930994Y-25579633D01*
X30880059Y-25585166D01*
X30880057Y-25585166D01*
X30872209Y-25586019D01*
X30872025Y-25586088D01*
X30804534Y-25582565D01*
X30746890Y-25541120D01*
X30720804Y-25475089D01*
X30724356Y-25431923D01*
X30731219Y-25405578D01*
X30731219Y-25405575D01*
X30732829Y-25399396D01*
X30740601Y-25251102D01*
X30742682Y-25211401D01*
X30742682Y-25211397D01*
X30743016Y-25205020D01*
X30713910Y-25012565D01*
X30692781Y-24955138D01*
X30648905Y-24835885D01*
X30648904Y-24835884D01*
X30646701Y-24829895D01*
X30544132Y-24664469D01*
X30458649Y-24574073D01*
X30414785Y-24527688D01*
X30414784Y-24527687D01*
X30410396Y-24523047D01*
X30250954Y-24411404D01*
X30072320Y-24334102D01*
X29881790Y-24294299D01*
X29875398Y-24293964D01*
X29732482Y-24293964D01*
X29719438Y-24295289D01*
X29593828Y-24308048D01*
X29593827Y-24308048D01*
X29587479Y-24308693D01*
X29401743Y-24366899D01*
X29396154Y-24369997D01*
X29252352Y-24449708D01*
X29231504Y-24461264D01*
X29231494Y-24461246D01*
X29166383Y-24482953D01*
X29097583Y-24465430D01*
X29086258Y-24457862D01*
X29064945Y-24441889D01*
X28978830Y-24377349D01*
X28842441Y-24326219D01*
X28780259Y-24319464D01*
X27784791Y-24319464D01*
X27722609Y-24326219D01*
X27586220Y-24377349D01*
X27469664Y-24464703D01*
X27382310Y-24581259D01*
X27331180Y-24717648D01*
X27324425Y-24779830D01*
X27324425Y-25577098D01*
X27331180Y-25639280D01*
X27382310Y-25775669D01*
X27469664Y-25892225D01*
X27586220Y-25979579D01*
X27722609Y-26030709D01*
X27784791Y-26037464D01*
X28780259Y-26037464D01*
X28842441Y-26030709D01*
X28978830Y-25979579D01*
X28986017Y-25974193D01*
X28986650Y-25973718D01*
X28989899Y-25971283D01*
X29056403Y-25946434D01*
X29125786Y-25961485D01*
X29147623Y-25976607D01*
X29151854Y-25981081D01*
X29311296Y-26092724D01*
X29363166Y-26115170D01*
X29422496Y-26140845D01*
X29454967Y-26161257D01*
X29479590Y-26182593D01*
X29487273Y-26184264D01*
X29545066Y-26184264D01*
X29570832Y-26186927D01*
X29680460Y-26209829D01*
X29686852Y-26210164D01*
X29829768Y-26210164D01*
X29900587Y-26202970D01*
X29968422Y-26196080D01*
X29968423Y-26196080D01*
X29974771Y-26195435D01*
X29992023Y-26190029D01*
X30029698Y-26184264D01*
X30348025Y-26184264D01*
X30416146Y-26204266D01*
X30462639Y-26257922D01*
X30474025Y-26310264D01*
X30474025Y-26566264D01*
X30454023Y-26634385D01*
X30400367Y-26680878D01*
X30348025Y-26692264D01*
X29491841Y-26692264D01*
X29476602Y-26696739D01*
X29475397Y-26698129D01*
X29473726Y-26705812D01*
X29473726Y-26833433D01*
X29474096Y-26840254D01*
X29479620Y-26891116D01*
X29483246Y-26906368D01*
X29528401Y-27026818D01*
X29536939Y-27042413D01*
X29613440Y-27144488D01*
X29626001Y-27157049D01*
X29728076Y-27233550D01*
X29751543Y-27246398D01*
X29750332Y-27248609D01*
X29796405Y-27283223D01*
X29821101Y-27349786D01*
X29805890Y-27419134D01*
X29784502Y-27447653D01*
X29678579Y-27553576D01*
X29589746Y-27700258D01*
X29587475Y-27707505D01*
X29587474Y-27707507D01*
X29572095Y-27756583D01*
X29538465Y-27863895D01*
X29531718Y-27937322D01*
X29531719Y-28600591D01*
X29531982Y-28603449D01*
X29531982Y-28603458D01*
X29533034Y-28614902D01*
X29538465Y-28674019D01*
X29540464Y-28680397D01*
X29540464Y-28680398D01*
X29584289Y-28820242D01*
X29589746Y-28837656D01*
X29678579Y-28984338D01*
X29799837Y-29105596D01*
X29946519Y-29194429D01*
X29953766Y-29196700D01*
X29953768Y-29196701D01*
X29994591Y-29209494D01*
X30110156Y-29245710D01*
X30183583Y-29252457D01*
X30186481Y-29252457D01*
X30440883Y-29252456D01*
X30696852Y-29252456D01*
X30699710Y-29252193D01*
X30699719Y-29252193D01*
X30735222Y-29248931D01*
X30770280Y-29245710D01*
X30822019Y-29229496D01*
X30926668Y-29196701D01*
X30926670Y-29196700D01*
X30933917Y-29194429D01*
X31080599Y-29105596D01*
X31176123Y-29010072D01*
X31238435Y-28976046D01*
X31309250Y-28981111D01*
X31354313Y-29010072D01*
X31449837Y-29105596D01*
X31596519Y-29194429D01*
X31603766Y-29196700D01*
X31603768Y-29196701D01*
X31708417Y-29229496D01*
X31760156Y-29245710D01*
X31766821Y-29246322D01*
X31771792Y-29247318D01*
X31834658Y-29280307D01*
X31869710Y-29342047D01*
X31865818Y-29412937D01*
X31824883Y-29469950D01*
X31713764Y-29557236D01*
X31709832Y-29561767D01*
X31709829Y-29561770D01*
X31643701Y-29637976D01*
X31575132Y-29716995D01*
X31572132Y-29722181D01*
X31572129Y-29722185D01*
X31512585Y-29825111D01*
X31469211Y-29900086D01*
X31399823Y-30099903D01*
X31398962Y-30105838D01*
X31398962Y-30105840D01*
X31372114Y-30291010D01*
X31369471Y-30309236D01*
X31379251Y-30520531D01*
X31380655Y-30526356D01*
X31380655Y-30526357D01*
X31394382Y-30583318D01*
X31390897Y-30654229D01*
X31349627Y-30711999D01*
X31283676Y-30738285D01*
X31242741Y-30735420D01*
X31237494Y-30734172D01*
X31230096Y-30731399D01*
X31167914Y-30724644D01*
X30214926Y-30724644D01*
X30146805Y-30704642D01*
X30100312Y-30650986D01*
X30090230Y-30580564D01*
X30094244Y-30552885D01*
X30113797Y-30418028D01*
X30104017Y-30206733D01*
X30058509Y-30017901D01*
X30055865Y-30006931D01*
X30055864Y-30006929D01*
X30054459Y-30001098D01*
X30049056Y-29989213D01*
X29999668Y-29880591D01*
X29966910Y-29808545D01*
X29854407Y-29649945D01*
X29847996Y-29640907D01*
X29847995Y-29640906D01*
X29844530Y-29636021D01*
X29691734Y-29489751D01*
X29514036Y-29375012D01*
X29411170Y-29333556D01*
X29323416Y-29298190D01*
X29323413Y-29298189D01*
X29317847Y-29295946D01*
X29110247Y-29255404D01*
X29104685Y-29255132D01*
X28348738Y-29255132D01*
X28191018Y-29270180D01*
X27988050Y-29329724D01*
X27982723Y-29332468D01*
X27982722Y-29332468D01*
X27805335Y-29423828D01*
X27805332Y-29423830D01*
X27800004Y-29426574D01*
X27633664Y-29557236D01*
X27629732Y-29561767D01*
X27629729Y-29561770D01*
X27563601Y-29637976D01*
X27495032Y-29716995D01*
X27492032Y-29722181D01*
X27492029Y-29722185D01*
X27432485Y-29825111D01*
X27389111Y-29900086D01*
X27319723Y-30099903D01*
X27318862Y-30105838D01*
X27318862Y-30105840D01*
X27292014Y-30291010D01*
X27289371Y-30309236D01*
X27299151Y-30520531D01*
X27300555Y-30526356D01*
X27300555Y-30526357D01*
X27344382Y-30708210D01*
X27348709Y-30726166D01*
X27351191Y-30731624D01*
X27351192Y-30731628D01*
X27403500Y-30846673D01*
X27436258Y-30918719D01*
X27506332Y-31017505D01*
X27554261Y-31085072D01*
X27558638Y-31091243D01*
X27711434Y-31237513D01*
X27889132Y-31352252D01*
X27894698Y-31354495D01*
X28033478Y-31410425D01*
X28089184Y-31454440D01*
X28112380Y-31527291D01*
X28112380Y-31585879D01*
X28116855Y-31601118D01*
X28118245Y-31602323D01*
X28125928Y-31603994D01*
X29248780Y-31603994D01*
X29316901Y-31623996D01*
X29363394Y-31677652D01*
X29374780Y-31729994D01*
X29374780Y-32972728D01*
X29379255Y-32987967D01*
X29380645Y-32989172D01*
X29388328Y-32990843D01*
X29665849Y-32990843D01*
X29672670Y-32990473D01*
X29723532Y-32984949D01*
X29738783Y-32981323D01*
X29825138Y-32948950D01*
X29895945Y-32943767D01*
X29913601Y-32948951D01*
X29916761Y-32950136D01*
X29929115Y-32954768D01*
X29985878Y-32997412D01*
X30010574Y-33063975D01*
X30010880Y-33072748D01*
X30010880Y-34392240D01*
X29990878Y-34460361D01*
X29937222Y-34506854D01*
X29929115Y-34510220D01*
X29917255Y-34514667D01*
X29913602Y-34516036D01*
X29842796Y-34521222D01*
X29825138Y-34516038D01*
X29738786Y-34483666D01*
X29723531Y-34480039D01*
X29672666Y-34474513D01*
X29665852Y-34474144D01*
X29392895Y-34474144D01*
X29377656Y-34478619D01*
X29376451Y-34480009D01*
X29374780Y-34487692D01*
X29374780Y-36707597D01*
X29354778Y-36775718D01*
X29348030Y-36784732D01*
X29346146Y-36793392D01*
X29346146Y-37757399D01*
X29326144Y-37825520D01*
X29272488Y-37872013D01*
X29220146Y-37883399D01*
X28152261Y-37883399D01*
X28137022Y-37887873D01*
X28116825Y-37911183D01*
X28057069Y-37949576D01*
X27993806Y-37968135D01*
X27993802Y-37968136D01*
X27988050Y-37969824D01*
X27982718Y-37972570D01*
X27982716Y-37972571D01*
X27805335Y-38063928D01*
X27805332Y-38063930D01*
X27800004Y-38066674D01*
X27633664Y-38197336D01*
X27629732Y-38201867D01*
X27629729Y-38201870D01*
X27538384Y-38307136D01*
X27495032Y-38357095D01*
X27492032Y-38362281D01*
X27492029Y-38362285D01*
X27424072Y-38479754D01*
X27389111Y-38540186D01*
X27319723Y-38740003D01*
X27318862Y-38745938D01*
X27318862Y-38745940D01*
X27291426Y-38935166D01*
X27289371Y-38949336D01*
X27299151Y-39160631D01*
X27300555Y-39166456D01*
X27300555Y-39166457D01*
X27331424Y-39294542D01*
X27348709Y-39366266D01*
X27351191Y-39371724D01*
X27351192Y-39371728D01*
X27400688Y-39480587D01*
X27436258Y-39558819D01*
X27558638Y-39731343D01*
X27711434Y-39877613D01*
X27889132Y-39992352D01*
X27913975Y-40002364D01*
X28079752Y-40069174D01*
X28079755Y-40069175D01*
X28085321Y-40071418D01*
X28292921Y-40111960D01*
X28298483Y-40112232D01*
X29054430Y-40112232D01*
X29212150Y-40097184D01*
X29415118Y-40037640D01*
X29489059Y-39999558D01*
X29597833Y-39943536D01*
X29597836Y-39943534D01*
X29603164Y-39940790D01*
X29769504Y-39810128D01*
X29773436Y-39805597D01*
X29773439Y-39805594D01*
X29902395Y-39656985D01*
X29908136Y-39650369D01*
X29911136Y-39645183D01*
X29911139Y-39645179D01*
X30011051Y-39472474D01*
X30014057Y-39467278D01*
X30083445Y-39267461D01*
X30088415Y-39233182D01*
X30112936Y-39064068D01*
X30112936Y-39064065D01*
X30113797Y-39058128D01*
X30104017Y-38846833D01*
X30078983Y-38742957D01*
X30082468Y-38672046D01*
X30123738Y-38614276D01*
X30189688Y-38587989D01*
X30241141Y-38593842D01*
X30267389Y-38602548D01*
X30274226Y-38603248D01*
X30274228Y-38603249D01*
X30305101Y-38606412D01*
X30368414Y-38612899D01*
X30915878Y-38612899D01*
X30919124Y-38612562D01*
X30919128Y-38612562D01*
X30954381Y-38608904D01*
X31018165Y-38602286D01*
X31061018Y-38587989D01*
X31173470Y-38550472D01*
X31173472Y-38550471D01*
X31180414Y-38548155D01*
X31243005Y-38509422D01*
X31311455Y-38490586D01*
X31379225Y-38511748D01*
X31424796Y-38566188D01*
X31433699Y-38636625D01*
X31428333Y-38657902D01*
X31401791Y-38734333D01*
X31401790Y-38734339D01*
X31399823Y-38740003D01*
X31398962Y-38745938D01*
X31398962Y-38745940D01*
X31371526Y-38935166D01*
X31369471Y-38949336D01*
X31379251Y-39160631D01*
X31380655Y-39166456D01*
X31380655Y-39166457D01*
X31411524Y-39294542D01*
X31428809Y-39366266D01*
X31431291Y-39371724D01*
X31431292Y-39371728D01*
X31480788Y-39480587D01*
X31516358Y-39558819D01*
X31638738Y-39731343D01*
X31791534Y-39877613D01*
X31969232Y-39992352D01*
X31994075Y-40002364D01*
X32159852Y-40069174D01*
X32159855Y-40069175D01*
X32165421Y-40071418D01*
X32373021Y-40111960D01*
X32378583Y-40112232D01*
X33334530Y-40112232D01*
X33492250Y-40097184D01*
X33695218Y-40037640D01*
X33769159Y-39999558D01*
X33877933Y-39943536D01*
X33877936Y-39943534D01*
X33883264Y-39940790D01*
X34049604Y-39810128D01*
X34053536Y-39805597D01*
X34053539Y-39805594D01*
X34150420Y-39693948D01*
X35512815Y-39693948D01*
X35513152Y-39700463D01*
X35522709Y-39792567D01*
X35525603Y-39805966D01*
X35575196Y-39954617D01*
X35581370Y-39967796D01*
X35663603Y-40100683D01*
X35672639Y-40112084D01*
X35783244Y-40222496D01*
X35794655Y-40231508D01*
X35927695Y-40313514D01*
X35940876Y-40319661D01*
X36089629Y-40369001D01*
X36103005Y-40371868D01*
X36193912Y-40381182D01*
X36198941Y-40381439D01*
X36213939Y-40377035D01*
X36215144Y-40375645D01*
X36216815Y-40367962D01*
X36216815Y-39670625D01*
X36212340Y-39655386D01*
X36210950Y-39654181D01*
X36203267Y-39652510D01*
X35530930Y-39652510D01*
X35515691Y-39656985D01*
X35514486Y-39658375D01*
X35512815Y-39666058D01*
X35512815Y-39693948D01*
X34150420Y-39693948D01*
X34182495Y-39656985D01*
X34188236Y-39650369D01*
X34191236Y-39645183D01*
X34191239Y-39645179D01*
X34291151Y-39472474D01*
X34294157Y-39467278D01*
X34363545Y-39267461D01*
X34368515Y-39233182D01*
X34383999Y-39126395D01*
X35512815Y-39126395D01*
X35517290Y-39141634D01*
X35518680Y-39142839D01*
X35526363Y-39144510D01*
X36198700Y-39144510D01*
X36213939Y-39140035D01*
X36215144Y-39138645D01*
X36216815Y-39130962D01*
X36216815Y-38433625D01*
X36212340Y-38418386D01*
X36210950Y-38417181D01*
X36203267Y-38415510D01*
X36200377Y-38415510D01*
X36193862Y-38415847D01*
X36101758Y-38425404D01*
X36088359Y-38428298D01*
X35939708Y-38477891D01*
X35926529Y-38484065D01*
X35793642Y-38566298D01*
X35782241Y-38575334D01*
X35671829Y-38685939D01*
X35662817Y-38697350D01*
X35580811Y-38830390D01*
X35574664Y-38843571D01*
X35525324Y-38992324D01*
X35522457Y-39005700D01*
X35513143Y-39096607D01*
X35512815Y-39103024D01*
X35512815Y-39126395D01*
X34383999Y-39126395D01*
X34393036Y-39064068D01*
X34393036Y-39064065D01*
X34393897Y-39058128D01*
X34384117Y-38846833D01*
X34342140Y-38672655D01*
X34335965Y-38647031D01*
X34335964Y-38647029D01*
X34334559Y-38641198D01*
X34331623Y-38634739D01*
X34274644Y-38509423D01*
X34247010Y-38448645D01*
X34133278Y-38288313D01*
X34128096Y-38281007D01*
X34128095Y-38281006D01*
X34124630Y-38276121D01*
X33971834Y-38129851D01*
X33794136Y-38015112D01*
X33688508Y-37972543D01*
X33603516Y-37938290D01*
X33603513Y-37938289D01*
X33597947Y-37936046D01*
X33390347Y-37895504D01*
X33384785Y-37895232D01*
X33317014Y-37895232D01*
X33248893Y-37875230D01*
X33202400Y-37821574D01*
X33192706Y-37748653D01*
X33212585Y-37628574D01*
X33212585Y-37628571D01*
X33213700Y-37621837D01*
X33212793Y-37604516D01*
X33205334Y-37462219D01*
X33203937Y-37435565D01*
X33154404Y-37255734D01*
X33067409Y-37090734D01*
X33063004Y-37085521D01*
X33063001Y-37085517D01*
X32951420Y-36953479D01*
X32951416Y-36953475D01*
X32947013Y-36948265D01*
X32931285Y-36936240D01*
X32804253Y-36839116D01*
X32804249Y-36839113D01*
X32798832Y-36834972D01*
X32629780Y-36756142D01*
X32447744Y-36715452D01*
X32442021Y-36715132D01*
X32304888Y-36715132D01*
X32301492Y-36715501D01*
X32301491Y-36715501D01*
X32266428Y-36719310D01*
X32166047Y-36730215D01*
X31989261Y-36789710D01*
X31829375Y-36885779D01*
X31792755Y-36920409D01*
X31715736Y-36993242D01*
X31693848Y-37013940D01*
X31693800Y-37013889D01*
X31636813Y-37051232D01*
X31565819Y-37051863D01*
X31505754Y-37014012D01*
X31493097Y-36996959D01*
X31460398Y-36944117D01*
X31445898Y-36920686D01*
X31440716Y-36915513D01*
X31440712Y-36915508D01*
X31378481Y-36853386D01*
X31344401Y-36791104D01*
X31349404Y-36720284D01*
X31391933Y-36663387D01*
X31475860Y-36600487D01*
X31475861Y-36600486D01*
X31483041Y-36595105D01*
X31570395Y-36478549D01*
X31621525Y-36342160D01*
X31623076Y-36327883D01*
X31650320Y-36262322D01*
X31708684Y-36221897D01*
X31748339Y-36215494D01*
X34250851Y-36215494D01*
X34267294Y-36216572D01*
X34298987Y-36220744D01*
X34307176Y-36219666D01*
X34338861Y-36215495D01*
X34338871Y-36215494D01*
X34338872Y-36215494D01*
X34438444Y-36202385D01*
X34449651Y-36200910D01*
X34449653Y-36200909D01*
X34457838Y-36199832D01*
X34605863Y-36138518D01*
X34616438Y-36130404D01*
X34701059Y-36065471D01*
X34701062Y-36065468D01*
X34726421Y-36046009D01*
X34732974Y-36040981D01*
X34745422Y-36024759D01*
X34752439Y-36015615D01*
X34763306Y-36003224D01*
X35419033Y-35347497D01*
X35481345Y-35313471D01*
X35552160Y-35318536D01*
X35608996Y-35361083D01*
X35615273Y-35370290D01*
X35663605Y-35448394D01*
X35672639Y-35459793D01*
X35783244Y-35570205D01*
X35794655Y-35579217D01*
X35927695Y-35661223D01*
X35940876Y-35667370D01*
X36089629Y-35716710D01*
X36103005Y-35719577D01*
X36193912Y-35728891D01*
X36198941Y-35729148D01*
X36213939Y-35724744D01*
X36215144Y-35723354D01*
X36216815Y-35715671D01*
X36216815Y-34655719D01*
X36236817Y-34587598D01*
X36290473Y-34541105D01*
X36342815Y-34529719D01*
X36598815Y-34529719D01*
X36666936Y-34549721D01*
X36713429Y-34603377D01*
X36724815Y-34655719D01*
X36724815Y-35711104D01*
X36729290Y-35726343D01*
X36730680Y-35727548D01*
X36738363Y-35729219D01*
X36741253Y-35729219D01*
X36747768Y-35728882D01*
X36839872Y-35719325D01*
X36853271Y-35716431D01*
X37001922Y-35666838D01*
X37015101Y-35660664D01*
X37147988Y-35578431D01*
X37165126Y-35564848D01*
X37166656Y-35566778D01*
X37218695Y-35538316D01*
X37289514Y-35543332D01*
X37326432Y-35567018D01*
X37327187Y-35566062D01*
X37332933Y-35570600D01*
X37338113Y-35575771D01*
X37344343Y-35579611D01*
X37344344Y-35579612D01*
X37475835Y-35660664D01*
X37483714Y-35665521D01*
X37646058Y-35719368D01*
X37652895Y-35720068D01*
X37652897Y-35720069D01*
X37694216Y-35724302D01*
X37747083Y-35729719D01*
X38142805Y-35729719D01*
X38191022Y-35739310D01*
X38312559Y-35789652D01*
X38320747Y-35790730D01*
X38391985Y-35800109D01*
X38471410Y-35810565D01*
X38503109Y-35806392D01*
X38519554Y-35805314D01*
X39553358Y-35805314D01*
X39621479Y-35825316D01*
X39667972Y-35878972D01*
X39679358Y-35931314D01*
X39679358Y-36244948D01*
X39686113Y-36307130D01*
X39737243Y-36443519D01*
X39824597Y-36560075D01*
X39941153Y-36647429D01*
X40077542Y-36698559D01*
X40139724Y-36705314D01*
X41417480Y-36705314D01*
X41485601Y-36725316D01*
X41532094Y-36778972D01*
X41542198Y-36849246D01*
X41512704Y-36913826D01*
X41506575Y-36920409D01*
X41075575Y-37351409D01*
X41013263Y-37385435D01*
X40986480Y-37388314D01*
X40139724Y-37388314D01*
X40077542Y-37395069D01*
X39941153Y-37446199D01*
X39824597Y-37533553D01*
X39737243Y-37650109D01*
X39686113Y-37786498D01*
X39679358Y-37848680D01*
X39679358Y-38162314D01*
X39659356Y-38230435D01*
X39605700Y-38276928D01*
X39553358Y-38288314D01*
X38570647Y-38288314D01*
X38554201Y-38287236D01*
X38530699Y-38284142D01*
X38522511Y-38283064D01*
X38514323Y-38284142D01*
X38482640Y-38288313D01*
X38482631Y-38288314D01*
X38482626Y-38288314D01*
X38363661Y-38303976D01*
X38215636Y-38365290D01*
X38215634Y-38365291D01*
X38215635Y-38365291D01*
X38185862Y-38388136D01*
X38184772Y-38388973D01*
X38118552Y-38414573D01*
X38108069Y-38415010D01*
X37747083Y-38415010D01*
X37743837Y-38415347D01*
X37743833Y-38415347D01*
X37714545Y-38418386D01*
X37644796Y-38425623D01*
X37636778Y-38428298D01*
X37489491Y-38477437D01*
X37489489Y-38477438D01*
X37482547Y-38479754D01*
X37476323Y-38483606D01*
X37476322Y-38483606D01*
X37389730Y-38537191D01*
X37337102Y-38569758D01*
X37331929Y-38574940D01*
X37326192Y-38579487D01*
X37324760Y-38577680D01*
X37272240Y-38606412D01*
X37201420Y-38601402D01*
X37164962Y-38578011D01*
X37164132Y-38579062D01*
X37146975Y-38565512D01*
X37013935Y-38483506D01*
X37000754Y-38477359D01*
X36852001Y-38428019D01*
X36838625Y-38425152D01*
X36747718Y-38415838D01*
X36742689Y-38415581D01*
X36727691Y-38419985D01*
X36726486Y-38421375D01*
X36724815Y-38429058D01*
X36724815Y-40363395D01*
X36729290Y-40378634D01*
X36730680Y-40379839D01*
X36738363Y-40381510D01*
X36741253Y-40381510D01*
X36747768Y-40381173D01*
X36839872Y-40371616D01*
X36853271Y-40368722D01*
X37001922Y-40319129D01*
X37015101Y-40312955D01*
X37147988Y-40230722D01*
X37165126Y-40217139D01*
X37166656Y-40219069D01*
X37218695Y-40190607D01*
X37289514Y-40195623D01*
X37326432Y-40219309D01*
X37327187Y-40218353D01*
X37332933Y-40222891D01*
X37338113Y-40228062D01*
X37344343Y-40231902D01*
X37344344Y-40231903D01*
X37475835Y-40312955D01*
X37483714Y-40317812D01*
X37646058Y-40371659D01*
X37652895Y-40372359D01*
X37652897Y-40372360D01*
X37689421Y-40376102D01*
X37747083Y-40382010D01*
X38294547Y-40382010D01*
X38297793Y-40381673D01*
X38297797Y-40381673D01*
X38340105Y-40377283D01*
X38396834Y-40371397D01*
X38484818Y-40342043D01*
X38552139Y-40319583D01*
X38552141Y-40319582D01*
X38559083Y-40317266D01*
X38585408Y-40300976D01*
X38698300Y-40231116D01*
X38704528Y-40227262D01*
X38713422Y-40218353D01*
X38820196Y-40111392D01*
X38825367Y-40106212D01*
X38840074Y-40082353D01*
X38911277Y-39966841D01*
X38911278Y-39966839D01*
X38915117Y-39960611D01*
X38968964Y-39798267D01*
X38979315Y-39697242D01*
X38979315Y-39631314D01*
X38999317Y-39563193D01*
X39052973Y-39516700D01*
X39105315Y-39505314D01*
X39553358Y-39505314D01*
X39621479Y-39525316D01*
X39667972Y-39578972D01*
X39679358Y-39631314D01*
X39679358Y-39944948D01*
X39686113Y-40007130D01*
X39737243Y-40143519D01*
X39824597Y-40260075D01*
X39941153Y-40347429D01*
X40077542Y-40398559D01*
X40139724Y-40405314D01*
X42635992Y-40405314D01*
X42698174Y-40398559D01*
X42834563Y-40347429D01*
X42951119Y-40260075D01*
X43038473Y-40143519D01*
X43089603Y-40007130D01*
X43096358Y-39944948D01*
X43096358Y-37848680D01*
X43089603Y-37786498D01*
X43038473Y-37650109D01*
X42951119Y-37533553D01*
X42875016Y-37476517D01*
X42832501Y-37419658D01*
X42827475Y-37348839D01*
X42861486Y-37286596D01*
X43955862Y-36192219D01*
X44018174Y-36158194D01*
X44044957Y-36155314D01*
X46062505Y-36155314D01*
X46130626Y-36175316D01*
X46177119Y-36228972D01*
X46187223Y-36299246D01*
X46157729Y-36363826D01*
X46151600Y-36370409D01*
X45424608Y-37097401D01*
X45362296Y-37131427D01*
X45309316Y-37131553D01*
X45275349Y-37124333D01*
X45153791Y-37098495D01*
X45153787Y-37098495D01*
X45147334Y-37097123D01*
X44966870Y-37097123D01*
X44960417Y-37098495D01*
X44960413Y-37098495D01*
X44878610Y-37115883D01*
X44790350Y-37134643D01*
X44784321Y-37137327D01*
X44784319Y-37137328D01*
X44631518Y-37205360D01*
X44631516Y-37205361D01*
X44625488Y-37208045D01*
X44620147Y-37211925D01*
X44620146Y-37211926D01*
X44484833Y-37310236D01*
X44484831Y-37310238D01*
X44479489Y-37314119D01*
X44475068Y-37319029D01*
X44475067Y-37319030D01*
X44370139Y-37435565D01*
X44358735Y-37448230D01*
X44313804Y-37526053D01*
X44277047Y-37589718D01*
X44268503Y-37604516D01*
X44266461Y-37610801D01*
X44215789Y-37766756D01*
X44212737Y-37776148D01*
X44193873Y-37955623D01*
X44194563Y-37962188D01*
X44205935Y-38070378D01*
X44212737Y-38135098D01*
X44214777Y-38141376D01*
X44214777Y-38141377D01*
X44227346Y-38180061D01*
X44268503Y-38306730D01*
X44271806Y-38312452D01*
X44271807Y-38312453D01*
X44300578Y-38362285D01*
X44358735Y-38463016D01*
X44363153Y-38467923D01*
X44363154Y-38467924D01*
X44461979Y-38577680D01*
X44479489Y-38597127D01*
X44484831Y-38601008D01*
X44484833Y-38601010D01*
X44617434Y-38697350D01*
X44625487Y-38703201D01*
X44631515Y-38705885D01*
X44631517Y-38705886D01*
X44762043Y-38764000D01*
X44790350Y-38776603D01*
X44878610Y-38795363D01*
X44960413Y-38812751D01*
X44960417Y-38812751D01*
X44966870Y-38814123D01*
X45147334Y-38814123D01*
X45153787Y-38812751D01*
X45153791Y-38812751D01*
X45235594Y-38795363D01*
X45323854Y-38776603D01*
X45352161Y-38764000D01*
X45482687Y-38705886D01*
X45482689Y-38705885D01*
X45488717Y-38703201D01*
X45535242Y-38669398D01*
X45602111Y-38645540D01*
X45671262Y-38661621D01*
X45720742Y-38712536D01*
X45729136Y-38732399D01*
X45729766Y-38734339D01*
X45749125Y-38793919D01*
X45839357Y-38950205D01*
X45843775Y-38955112D01*
X45843776Y-38955113D01*
X45932964Y-39054166D01*
X45960111Y-39084316D01*
X45965453Y-39088197D01*
X45965455Y-39088199D01*
X46065149Y-39160631D01*
X46106109Y-39190390D01*
X46112137Y-39193074D01*
X46112139Y-39193075D01*
X46264941Y-39261107D01*
X46270972Y-39263792D01*
X46334956Y-39277392D01*
X46441035Y-39299940D01*
X46441039Y-39299940D01*
X46447492Y-39301312D01*
X46627956Y-39301312D01*
X46634409Y-39299940D01*
X46634413Y-39299940D01*
X46740492Y-39277392D01*
X46804476Y-39263792D01*
X46810507Y-39261107D01*
X46963309Y-39193075D01*
X46963311Y-39193074D01*
X46969339Y-39190390D01*
X47051135Y-39130962D01*
X47058823Y-39125376D01*
X47125691Y-39101517D01*
X47132884Y-39101312D01*
X49082366Y-39101312D01*
X49094222Y-39101871D01*
X49094225Y-39101871D01*
X49101959Y-39103600D01*
X49172791Y-39101374D01*
X49176749Y-39101312D01*
X49205854Y-39101312D01*
X49210254Y-39100756D01*
X49222086Y-39099824D01*
X49268253Y-39098374D01*
X49288843Y-39092392D01*
X49308204Y-39088382D01*
X49315192Y-39087500D01*
X49321626Y-39086687D01*
X49321627Y-39086687D01*
X49329486Y-39085694D01*
X49336851Y-39082778D01*
X49336855Y-39082777D01*
X49372443Y-39068686D01*
X49383653Y-39064847D01*
X49428022Y-39051957D01*
X49446487Y-39041037D01*
X49464227Y-39032346D01*
X49484178Y-39024447D01*
X49521551Y-38997294D01*
X49531470Y-38990779D01*
X49564399Y-38971305D01*
X49564403Y-38971302D01*
X49571229Y-38967265D01*
X49586393Y-38952101D01*
X49601427Y-38939260D01*
X49607062Y-38935166D01*
X49618779Y-38926653D01*
X49636591Y-38905122D01*
X49695424Y-38865383D01*
X49766402Y-38863760D01*
X49826990Y-38900768D01*
X49858599Y-38968989D01*
X49859591Y-38976523D01*
X49862903Y-39001682D01*
X49862903Y-39001687D01*
X49865900Y-39024447D01*
X49873592Y-39082875D01*
X49873592Y-39082877D01*
X49875848Y-39100011D01*
X49878565Y-39120653D01*
X49939879Y-39268678D01*
X49944906Y-39275229D01*
X49944907Y-39275231D01*
X50012923Y-39363871D01*
X50012929Y-39363877D01*
X50037416Y-39395789D01*
X50043965Y-39400814D01*
X50062780Y-39415251D01*
X50075172Y-39426119D01*
X50558509Y-39909456D01*
X50569376Y-39921846D01*
X50588844Y-39947217D01*
X50595390Y-39952240D01*
X50595393Y-39952243D01*
X50620758Y-39971706D01*
X50620760Y-39971707D01*
X50715955Y-40044754D01*
X50723581Y-40047913D01*
X50723583Y-40047914D01*
X50783104Y-40072568D01*
X50863980Y-40106068D01*
X50872163Y-40107145D01*
X50872166Y-40107146D01*
X50872236Y-40107155D01*
X50872260Y-40107158D01*
X50902119Y-40111089D01*
X50982944Y-40121730D01*
X50982957Y-40121731D01*
X51014642Y-40125902D01*
X51022831Y-40126980D01*
X51054524Y-40122808D01*
X51070967Y-40121730D01*
X51794387Y-40121730D01*
X51862508Y-40141732D01*
X51875826Y-40151901D01*
X51878377Y-40154734D01*
X51883719Y-40158615D01*
X51883721Y-40158617D01*
X52013515Y-40252918D01*
X52024375Y-40260808D01*
X52030403Y-40263492D01*
X52030405Y-40263493D01*
X52157582Y-40320116D01*
X52189238Y-40334210D01*
X52277498Y-40352970D01*
X52359301Y-40370358D01*
X52359305Y-40370358D01*
X52365758Y-40371730D01*
X52546222Y-40371730D01*
X52552675Y-40370358D01*
X52552679Y-40370358D01*
X52634482Y-40352970D01*
X52722742Y-40334210D01*
X52754398Y-40320116D01*
X52881575Y-40263493D01*
X52881577Y-40263492D01*
X52887605Y-40260808D01*
X52898497Y-40252895D01*
X52985677Y-40189554D01*
X53052544Y-40165696D01*
X53121696Y-40181776D01*
X53133799Y-40189554D01*
X53174423Y-40219069D01*
X53180538Y-40223512D01*
X53186566Y-40226196D01*
X53186568Y-40226197D01*
X53303079Y-40278071D01*
X53345401Y-40296914D01*
X53423499Y-40313514D01*
X53515464Y-40333062D01*
X53515468Y-40333062D01*
X53521921Y-40334434D01*
X53702385Y-40334434D01*
X53708838Y-40333062D01*
X53708842Y-40333062D01*
X53800807Y-40313514D01*
X53878905Y-40296914D01*
X53921227Y-40278071D01*
X54037738Y-40226197D01*
X54037740Y-40226196D01*
X54043768Y-40223512D01*
X54049553Y-40219309D01*
X54184422Y-40121321D01*
X54184424Y-40121319D01*
X54189766Y-40117438D01*
X54194587Y-40112084D01*
X54306101Y-39988235D01*
X54306102Y-39988234D01*
X54310520Y-39983327D01*
X54389897Y-39845843D01*
X54397451Y-39832759D01*
X54397452Y-39832757D01*
X54400752Y-39827041D01*
X54402792Y-39820763D01*
X54403298Y-39819626D01*
X54449278Y-39765531D01*
X54517206Y-39744882D01*
X54585513Y-39764235D01*
X54607499Y-39781781D01*
X54865292Y-40039574D01*
X54876159Y-40051965D01*
X54895620Y-40077327D01*
X54902170Y-40082353D01*
X54927532Y-40101814D01*
X54927535Y-40101817D01*
X55009591Y-40164781D01*
X55022731Y-40174864D01*
X55170756Y-40236178D01*
X55178943Y-40237256D01*
X55178944Y-40237256D01*
X55190149Y-40238731D01*
X55221345Y-40242838D01*
X55289722Y-40251840D01*
X55289725Y-40251840D01*
X55289733Y-40251841D01*
X55321418Y-40256012D01*
X55329607Y-40257090D01*
X55361300Y-40252918D01*
X55377743Y-40251840D01*
X60733870Y-40251840D01*
X60785119Y-40262733D01*
X60816487Y-40276699D01*
X60898960Y-40294229D01*
X60986550Y-40312847D01*
X60986554Y-40312847D01*
X60993007Y-40314219D01*
X61173471Y-40314219D01*
X61179924Y-40312847D01*
X61179928Y-40312847D01*
X61267518Y-40294229D01*
X61349991Y-40276699D01*
X61354100Y-40274870D01*
X61424286Y-40272864D01*
X61481274Y-40305552D01*
X61593177Y-40417260D01*
X61604588Y-40426272D01*
X61737628Y-40508278D01*
X61750809Y-40514425D01*
X61899562Y-40563765D01*
X61912938Y-40566632D01*
X62003845Y-40575946D01*
X62008874Y-40576203D01*
X62023872Y-40571799D01*
X62025077Y-40570409D01*
X62026748Y-40562726D01*
X62026748Y-38628389D01*
X62022273Y-38613150D01*
X62020883Y-38611945D01*
X62013200Y-38610274D01*
X62010310Y-38610274D01*
X62003795Y-38610611D01*
X61911691Y-38620168D01*
X61898292Y-38623062D01*
X61749641Y-38672655D01*
X61736463Y-38678829D01*
X61666928Y-38721858D01*
X61598476Y-38740696D01*
X61526564Y-38716649D01*
X61514854Y-38708141D01*
X61449018Y-38678829D01*
X61356022Y-38637424D01*
X61356020Y-38637424D01*
X61349991Y-38634739D01*
X61253719Y-38614276D01*
X61179928Y-38598591D01*
X61179924Y-38598591D01*
X61173471Y-38597219D01*
X60993007Y-38597219D01*
X60986554Y-38598591D01*
X60986550Y-38598591D01*
X60912759Y-38614276D01*
X60816487Y-38634739D01*
X60810458Y-38637423D01*
X60810456Y-38637424D01*
X60657655Y-38705456D01*
X60657653Y-38705457D01*
X60651625Y-38708141D01*
X60646284Y-38712021D01*
X60646283Y-38712022D01*
X60510970Y-38810332D01*
X60510968Y-38810334D01*
X60505626Y-38814215D01*
X60501205Y-38819125D01*
X60501204Y-38819126D01*
X60392497Y-38939858D01*
X60384872Y-38948326D01*
X60371296Y-38971841D01*
X60319913Y-39020834D01*
X60262177Y-39034840D01*
X55633846Y-39034840D01*
X55565725Y-39014838D01*
X55544751Y-38997935D01*
X55482839Y-38936023D01*
X55448813Y-38873711D01*
X55453878Y-38802896D01*
X55468431Y-38776616D01*
X55468427Y-38776614D01*
X55468561Y-38776383D01*
X55471970Y-38770226D01*
X55477582Y-38762912D01*
X55479000Y-38764000D01*
X55510878Y-38732124D01*
X55510088Y-38731094D01*
X55598100Y-38663560D01*
X55601375Y-38661047D01*
X55617691Y-38644731D01*
X55680003Y-38610705D01*
X55723232Y-38608904D01*
X55774892Y-38615705D01*
X55774898Y-38615706D01*
X55774909Y-38615707D01*
X55774913Y-38615707D01*
X55774923Y-38615708D01*
X55814794Y-38620957D01*
X55846487Y-38616785D01*
X55862930Y-38615707D01*
X58071658Y-38615707D01*
X58088101Y-38616785D01*
X58119794Y-38620957D01*
X58127983Y-38619879D01*
X58159668Y-38615708D01*
X58159678Y-38615707D01*
X58159679Y-38615707D01*
X58159695Y-38615705D01*
X58261622Y-38602286D01*
X58270457Y-38601123D01*
X58270458Y-38601123D01*
X58278645Y-38600045D01*
X58426670Y-38538731D01*
X58437000Y-38530805D01*
X58521866Y-38465684D01*
X58521869Y-38465681D01*
X58532794Y-38457298D01*
X58553781Y-38441194D01*
X58560241Y-38432775D01*
X58573246Y-38415828D01*
X58584113Y-38403437D01*
X59672206Y-37315344D01*
X59734518Y-37281318D01*
X59761301Y-37278439D01*
X60977189Y-37278439D01*
X60993632Y-37279517D01*
X61025325Y-37283689D01*
X61033514Y-37282611D01*
X61065199Y-37278440D01*
X61065209Y-37278439D01*
X61065210Y-37278439D01*
X61174749Y-37264018D01*
X61175989Y-37263855D01*
X61175991Y-37263855D01*
X61184176Y-37262777D01*
X61332201Y-37201463D01*
X61341701Y-37194174D01*
X61427397Y-37128416D01*
X61427400Y-37128413D01*
X61452759Y-37108954D01*
X61459312Y-37103926D01*
X61464532Y-37097123D01*
X61478777Y-37078560D01*
X61489644Y-37066169D01*
X61496392Y-37059421D01*
X61558704Y-37025395D01*
X61585487Y-37022516D01*
X61621480Y-37022516D01*
X61627933Y-37021144D01*
X61627937Y-37021144D01*
X61709740Y-37003756D01*
X61798000Y-36984996D01*
X61804031Y-36982311D01*
X61956833Y-36914279D01*
X61956835Y-36914278D01*
X61962863Y-36911594D01*
X61968205Y-36907713D01*
X62103517Y-36809403D01*
X62103519Y-36809401D01*
X62108861Y-36805520D01*
X62121841Y-36791104D01*
X62225196Y-36676317D01*
X62225197Y-36676316D01*
X62229615Y-36671409D01*
X62237129Y-36658394D01*
X62288510Y-36609401D01*
X62358224Y-36595964D01*
X62424135Y-36622350D01*
X62465318Y-36680182D01*
X62472248Y-36721394D01*
X62472248Y-37349078D01*
X62452246Y-37417199D01*
X62439884Y-37433388D01*
X62419073Y-37456501D01*
X62328841Y-37612787D01*
X62315618Y-37653485D01*
X62277109Y-37772005D01*
X62273075Y-37784419D01*
X62272385Y-37790982D01*
X62272385Y-37790983D01*
X62259751Y-37911183D01*
X62254211Y-37963894D01*
X62254901Y-37970459D01*
X62266117Y-38077165D01*
X62273075Y-38143369D01*
X62275115Y-38149647D01*
X62275115Y-38149648D01*
X62289406Y-38193630D01*
X62328841Y-38315001D01*
X62332144Y-38320723D01*
X62332145Y-38320724D01*
X62357875Y-38365290D01*
X62419073Y-38471287D01*
X62502385Y-38563815D01*
X62533101Y-38627820D01*
X62534748Y-38648123D01*
X62534748Y-40558159D01*
X62539223Y-40573398D01*
X62540613Y-40574603D01*
X62548296Y-40576274D01*
X62551186Y-40576274D01*
X62557701Y-40575937D01*
X62649805Y-40566380D01*
X62663204Y-40563486D01*
X62811855Y-40513893D01*
X62825034Y-40507719D01*
X62957921Y-40425486D01*
X62975059Y-40411903D01*
X62976589Y-40413833D01*
X63028628Y-40385371D01*
X63099447Y-40390387D01*
X63136365Y-40414073D01*
X63137120Y-40413117D01*
X63142866Y-40417655D01*
X63148046Y-40422826D01*
X63154276Y-40426666D01*
X63154277Y-40426667D01*
X63285768Y-40507719D01*
X63293647Y-40512576D01*
X63455991Y-40566423D01*
X63462828Y-40567123D01*
X63462830Y-40567124D01*
X63504149Y-40571357D01*
X63557016Y-40576774D01*
X64104480Y-40576774D01*
X64107726Y-40576437D01*
X64107730Y-40576437D01*
X64141831Y-40572899D01*
X64206767Y-40566161D01*
X64322977Y-40527390D01*
X64362072Y-40514347D01*
X64362074Y-40514346D01*
X64369016Y-40512030D01*
X64444950Y-40465041D01*
X64508233Y-40425880D01*
X64514461Y-40422026D01*
X64523355Y-40413117D01*
X64630129Y-40306156D01*
X64635300Y-40300976D01*
X64650265Y-40276699D01*
X64721210Y-40161605D01*
X64721211Y-40161603D01*
X64725050Y-40155375D01*
X64778897Y-39993031D01*
X64779892Y-39983327D01*
X64787460Y-39909456D01*
X64789248Y-39892006D01*
X64789248Y-39839328D01*
X65799499Y-39839328D01*
X65799836Y-39845843D01*
X65809393Y-39937947D01*
X65812287Y-39951346D01*
X65861880Y-40099997D01*
X65868054Y-40113176D01*
X65950287Y-40246063D01*
X65959323Y-40257464D01*
X66069928Y-40367876D01*
X66081339Y-40376888D01*
X66214379Y-40458894D01*
X66227560Y-40465041D01*
X66376313Y-40514381D01*
X66389689Y-40517248D01*
X66480596Y-40526562D01*
X66485625Y-40526819D01*
X66500623Y-40522415D01*
X66501828Y-40521025D01*
X66503499Y-40513342D01*
X66503499Y-39816005D01*
X66499024Y-39800766D01*
X66497634Y-39799561D01*
X66489951Y-39797890D01*
X65817614Y-39797890D01*
X65802375Y-39802365D01*
X65801170Y-39803755D01*
X65799499Y-39811438D01*
X65799499Y-39839328D01*
X64789248Y-39839328D01*
X64789248Y-39547513D01*
X64809250Y-39479392D01*
X64826153Y-39458418D01*
X64990276Y-39294295D01*
X65052588Y-39260269D01*
X65079371Y-39257390D01*
X65722790Y-39257390D01*
X65790911Y-39277392D01*
X65805302Y-39288165D01*
X65805364Y-39288219D01*
X65813047Y-39289890D01*
X66885499Y-39289890D01*
X66953620Y-39309892D01*
X67000113Y-39363548D01*
X67011499Y-39415890D01*
X67011499Y-40508775D01*
X67015974Y-40524014D01*
X67017364Y-40525219D01*
X67025047Y-40526890D01*
X67027937Y-40526890D01*
X67034452Y-40526553D01*
X67126556Y-40516996D01*
X67139955Y-40514102D01*
X67288606Y-40464509D01*
X67301785Y-40458335D01*
X67434672Y-40376102D01*
X67451810Y-40362519D01*
X67453340Y-40364449D01*
X67505379Y-40335987D01*
X67576198Y-40341003D01*
X67613116Y-40364689D01*
X67613871Y-40363733D01*
X67619617Y-40368271D01*
X67624797Y-40373442D01*
X67631027Y-40377282D01*
X67631028Y-40377283D01*
X67762519Y-40458335D01*
X67770398Y-40463192D01*
X67932742Y-40517039D01*
X67939579Y-40517739D01*
X67939581Y-40517740D01*
X67980900Y-40521973D01*
X68033767Y-40527390D01*
X68581231Y-40527390D01*
X68584477Y-40527053D01*
X68584481Y-40527053D01*
X68618582Y-40523515D01*
X68683518Y-40516777D01*
X68718236Y-40505194D01*
X68838823Y-40464963D01*
X68838825Y-40464962D01*
X68845767Y-40462646D01*
X68903909Y-40426667D01*
X68984984Y-40376496D01*
X68991212Y-40372642D01*
X69000106Y-40363733D01*
X69106880Y-40256772D01*
X69112051Y-40251592D01*
X69124188Y-40231903D01*
X69136287Y-40212274D01*
X69189059Y-40164781D01*
X69243547Y-40152390D01*
X69654186Y-40152390D01*
X69670629Y-40153468D01*
X69702322Y-40157640D01*
X69710511Y-40156562D01*
X69742196Y-40152391D01*
X69742206Y-40152390D01*
X69742207Y-40152390D01*
X69809589Y-40143519D01*
X69841779Y-40139281D01*
X69852986Y-40137806D01*
X69852988Y-40137805D01*
X69861173Y-40136728D01*
X70009198Y-40075414D01*
X70045037Y-40047914D01*
X70104394Y-40002367D01*
X70104397Y-40002364D01*
X70122810Y-39988235D01*
X70136309Y-39977877D01*
X70144067Y-39967767D01*
X70155774Y-39952511D01*
X70166641Y-39940120D01*
X71532296Y-38574465D01*
X71594608Y-38540439D01*
X71621391Y-38537560D01*
X72315586Y-38537560D01*
X72377768Y-38530805D01*
X72386320Y-38527599D01*
X72387281Y-38527529D01*
X72392852Y-38526204D01*
X72393066Y-38527105D01*
X72457127Y-38522414D01*
X72519496Y-38556334D01*
X72553627Y-38618588D01*
X72556552Y-38645580D01*
X72556552Y-40626044D01*
X72563307Y-40688226D01*
X72581196Y-40735943D01*
X72600118Y-40786418D01*
X72605301Y-40857225D01*
X72571380Y-40919594D01*
X72509125Y-40953724D01*
X72482136Y-40956648D01*
X28188183Y-40956648D01*
X28168798Y-40955148D01*
X28153965Y-40952838D01*
X28153961Y-40952838D01*
X28145092Y-40951457D01*
X28136191Y-40952621D01*
X28136187Y-40952621D01*
X28128804Y-40953587D01*
X28104226Y-40954381D01*
X27887109Y-40940152D01*
X27870769Y-40938001D01*
X27754109Y-40914797D01*
X27631470Y-40890405D01*
X27615552Y-40886140D01*
X27530368Y-40857225D01*
X27384500Y-40807711D01*
X27369279Y-40801406D01*
X27150448Y-40693492D01*
X27136176Y-40685252D01*
X26933315Y-40549709D01*
X26920239Y-40539676D01*
X26736786Y-40378796D01*
X26725132Y-40367142D01*
X26722771Y-40364449D01*
X26564257Y-40183705D01*
X26554228Y-40170635D01*
X26550928Y-40165696D01*
X26418672Y-39967767D01*
X26410432Y-39953496D01*
X26407336Y-39947217D01*
X26302513Y-39734666D01*
X26296206Y-39719439D01*
X26223516Y-39505314D01*
X26217777Y-39488409D01*
X26213511Y-39472492D01*
X26165904Y-39233171D01*
X26163754Y-39216841D01*
X26161766Y-39186509D01*
X26150010Y-39007203D01*
X26151100Y-38982728D01*
X26151130Y-38980287D01*
X26152511Y-38971414D01*
X26148384Y-38939858D01*
X26147320Y-38923518D01*
X26147320Y-36276513D01*
X28112381Y-36276513D01*
X28112751Y-36283334D01*
X28118275Y-36334196D01*
X28121901Y-36349448D01*
X28167056Y-36469898D01*
X28175594Y-36485493D01*
X28252095Y-36587568D01*
X28264656Y-36600129D01*
X28345616Y-36660805D01*
X28388131Y-36717664D01*
X28393157Y-36788482D01*
X28359224Y-36850649D01*
X28293160Y-36916828D01*
X28284148Y-36928239D01*
X28202142Y-37061279D01*
X28195995Y-37074460D01*
X28146655Y-37223213D01*
X28143788Y-37236589D01*
X28134474Y-37327496D01*
X28134146Y-37333913D01*
X28134146Y-37357284D01*
X28138621Y-37372523D01*
X28140011Y-37373728D01*
X28147694Y-37375399D01*
X28820031Y-37375399D01*
X28835270Y-37370924D01*
X28836475Y-37369534D01*
X28838146Y-37361851D01*
X28838146Y-36678646D01*
X28858148Y-36610525D01*
X28864896Y-36601511D01*
X28866780Y-36592851D01*
X28866780Y-35879109D01*
X28862305Y-35863870D01*
X28860915Y-35862665D01*
X28853232Y-35860994D01*
X28130496Y-35860994D01*
X28115257Y-35865469D01*
X28114052Y-35866859D01*
X28112381Y-35874542D01*
X28112381Y-36276513D01*
X26147320Y-36276513D01*
X26147320Y-35334879D01*
X28112380Y-35334879D01*
X28116855Y-35350118D01*
X28118245Y-35351323D01*
X28125928Y-35352994D01*
X28848665Y-35352994D01*
X28863904Y-35348519D01*
X28865109Y-35347129D01*
X28866780Y-35339446D01*
X28866780Y-34492260D01*
X28862305Y-34477021D01*
X28860915Y-34475816D01*
X28853232Y-34474145D01*
X28575711Y-34474145D01*
X28568890Y-34474515D01*
X28518028Y-34480039D01*
X28502776Y-34483665D01*
X28382326Y-34528820D01*
X28366731Y-34537358D01*
X28264656Y-34613859D01*
X28252095Y-34626420D01*
X28175594Y-34728495D01*
X28167056Y-34744090D01*
X28121902Y-34864538D01*
X28118275Y-34879793D01*
X28112749Y-34930658D01*
X28112380Y-34937472D01*
X28112380Y-35334879D01*
X26147320Y-35334879D01*
X26147320Y-32527513D01*
X28112381Y-32527513D01*
X28112751Y-32534334D01*
X28118275Y-32585196D01*
X28121901Y-32600448D01*
X28167056Y-32720898D01*
X28175594Y-32736493D01*
X28252095Y-32838568D01*
X28264656Y-32851129D01*
X28366731Y-32927630D01*
X28382326Y-32936168D01*
X28502774Y-32981322D01*
X28518029Y-32984949D01*
X28568894Y-32990475D01*
X28575708Y-32990844D01*
X28848665Y-32990844D01*
X28863904Y-32986369D01*
X28865109Y-32984979D01*
X28866780Y-32977296D01*
X28866780Y-32130109D01*
X28862305Y-32114870D01*
X28860915Y-32113665D01*
X28853232Y-32111994D01*
X28130496Y-32111994D01*
X28115257Y-32116469D01*
X28114052Y-32117859D01*
X28112381Y-32125542D01*
X28112381Y-32527513D01*
X26147320Y-32527513D01*
X26147320Y-25014515D01*
X26148820Y-24995130D01*
X26151130Y-24980297D01*
X26151130Y-24980293D01*
X26152511Y-24971424D01*
X26150381Y-24955136D01*
X26149587Y-24930558D01*
X26163818Y-24713448D01*
X26165969Y-24697108D01*
X26197372Y-24539233D01*
X26213569Y-24457806D01*
X26217834Y-24441889D01*
X26219776Y-24436170D01*
X26287991Y-24235213D01*
X26296258Y-24210860D01*
X26302565Y-24195632D01*
X26410480Y-23976803D01*
X26418721Y-23962530D01*
X26486494Y-23861100D01*
X26554269Y-23759667D01*
X26564297Y-23746598D01*
X26725172Y-23563155D01*
X26736826Y-23551501D01*
X26920265Y-23390629D01*
X26933341Y-23380596D01*
X27136204Y-23245048D01*
X27150478Y-23236807D01*
X27369301Y-23128896D01*
X27384528Y-23122589D01*
X27581827Y-23055615D01*
X27615563Y-23044163D01*
X27631477Y-23039899D01*
X27838196Y-22998780D01*
X27870779Y-22992299D01*
X27887119Y-22990148D01*
X28097069Y-22976387D01*
X28120168Y-22977415D01*
X28123673Y-22977458D01*
X28132544Y-22978839D01*
X28141446Y-22977675D01*
X28141448Y-22977675D01*
X28158254Y-22975477D01*
X28164106Y-22974712D01*
X28180441Y-22973648D01*
X47362090Y-22973648D01*
X47430211Y-22993650D01*
G37*
%TD.AperFunction*%
%TA.AperFunction,Conductor*%
G36*
X52842324Y-35420042D02*
G01*
X52863298Y-35436945D01*
X53038377Y-35612024D01*
X53072403Y-35674336D01*
X53075282Y-35701119D01*
X53075282Y-36306819D01*
X53067834Y-36349497D01*
X53066018Y-36354542D01*
X53062420Y-36361603D01*
X53060691Y-36369339D01*
X53060690Y-36369341D01*
X53051866Y-36408819D01*
X53026126Y-36523972D01*
X53031352Y-36690266D01*
X53044655Y-36736056D01*
X53072556Y-36832090D01*
X53077769Y-36850035D01*
X53081804Y-36856857D01*
X53081804Y-36856858D01*
X53150324Y-36972720D01*
X53162461Y-36993242D01*
X53320332Y-37151113D01*
X53354358Y-37213425D01*
X53349293Y-37284240D01*
X53307941Y-37340170D01*
X53242564Y-37390335D01*
X53242548Y-37390349D01*
X53239277Y-37392859D01*
X53079126Y-37553010D01*
X53009079Y-37644297D01*
X52957768Y-37768174D01*
X52913220Y-37823455D01*
X52845857Y-37845876D01*
X52793141Y-37836365D01*
X52757432Y-37821574D01*
X52675576Y-37787668D01*
X52667389Y-37786590D01*
X52667388Y-37786590D01*
X52650896Y-37784419D01*
X52556610Y-37772006D01*
X52556601Y-37772005D01*
X52521269Y-37767354D01*
X52456341Y-37738633D01*
X52421304Y-37690649D01*
X52405266Y-37651928D01*
X52405265Y-37651927D01*
X52402105Y-37644297D01*
X52332058Y-37553010D01*
X52171907Y-37392859D01*
X52080620Y-37322812D01*
X52081571Y-37321573D01*
X52049791Y-37289793D01*
X52048552Y-37290744D01*
X52043561Y-37284240D01*
X51978505Y-37199457D01*
X51818354Y-37039306D01*
X51727067Y-36969259D01*
X51728018Y-36968020D01*
X51696238Y-36936240D01*
X51694999Y-36937191D01*
X51661305Y-36893280D01*
X51624952Y-36845904D01*
X51464801Y-36685753D01*
X51373514Y-36615706D01*
X51374463Y-36614470D01*
X51342681Y-36582688D01*
X51341445Y-36583637D01*
X51273913Y-36495628D01*
X51271398Y-36492350D01*
X51111247Y-36332199D01*
X51019960Y-36262152D01*
X51020751Y-36261122D01*
X50988876Y-36229247D01*
X50987456Y-36230336D01*
X50951087Y-36182938D01*
X50939494Y-36174473D01*
X50921871Y-36184233D01*
X50852588Y-36199737D01*
X50844387Y-36198930D01*
X50810496Y-36194468D01*
X50745570Y-36165745D01*
X50706479Y-36106480D01*
X50702022Y-36085995D01*
X50698439Y-36058785D01*
X50697546Y-36052000D01*
X50708484Y-35981853D01*
X50711881Y-35975166D01*
X50721995Y-35956644D01*
X50713857Y-35945638D01*
X50666155Y-35909035D01*
X50667243Y-35907617D01*
X50635368Y-35875740D01*
X50634338Y-35876530D01*
X50620802Y-35858890D01*
X50564291Y-35785243D01*
X50404140Y-35625092D01*
X50400874Y-35622586D01*
X50398798Y-35620765D01*
X50360775Y-35560809D01*
X50361203Y-35489814D01*
X50399946Y-35430320D01*
X50464703Y-35401217D01*
X50481883Y-35400040D01*
X52774203Y-35400040D01*
X52842324Y-35420042D01*
G37*
%TD.AperFunction*%
%TA.AperFunction,Conductor*%
G36*
X47752486Y-36594787D02*
G01*
X47771200Y-36603578D01*
X47771402Y-36603694D01*
X47810596Y-36642800D01*
X47811844Y-36641842D01*
X47881891Y-36733129D01*
X48042042Y-36893280D01*
X48098029Y-36936240D01*
X48133329Y-36963327D01*
X48132378Y-36964566D01*
X48164158Y-36996346D01*
X48165397Y-36995395D01*
X48235444Y-37086682D01*
X48395595Y-37246833D01*
X48436785Y-37278439D01*
X48486882Y-37316880D01*
X48485931Y-37318119D01*
X48517711Y-37349899D01*
X48518950Y-37348948D01*
X48588997Y-37440235D01*
X48717979Y-37569217D01*
X48752005Y-37631529D01*
X48746940Y-37702344D01*
X48704393Y-37759180D01*
X48637873Y-37783991D01*
X48628884Y-37784312D01*
X47132884Y-37784312D01*
X47064763Y-37764310D01*
X47058823Y-37760248D01*
X46974681Y-37699115D01*
X46974680Y-37699114D01*
X46969339Y-37695234D01*
X46963311Y-37692550D01*
X46963309Y-37692549D01*
X46845194Y-37639961D01*
X46791098Y-37593981D01*
X46770449Y-37526053D01*
X46789801Y-37457745D01*
X46807348Y-37435759D01*
X47619359Y-36623748D01*
X47681671Y-36589722D01*
X47752486Y-36594787D01*
G37*
%TD.AperFunction*%
%TA.AperFunction,Conductor*%
G36*
X74191195Y-33746086D02*
G01*
X74208004Y-33758984D01*
X74220395Y-33769852D01*
X74554063Y-34103520D01*
X74588089Y-34165832D01*
X74590968Y-34192615D01*
X74590968Y-35011688D01*
X74570966Y-35079809D01*
X74554063Y-35100783D01*
X74220391Y-35434455D01*
X74208000Y-35445322D01*
X74182638Y-35464783D01*
X74158151Y-35496695D01*
X74158148Y-35496698D01*
X74158142Y-35496706D01*
X74095432Y-35578431D01*
X74085101Y-35591894D01*
X74023787Y-35739919D01*
X74023787Y-35739920D01*
X74022039Y-35753196D01*
X74017240Y-35789652D01*
X74008125Y-35858885D01*
X74008125Y-35858890D01*
X74002875Y-35898770D01*
X74003953Y-35906958D01*
X74007047Y-35930460D01*
X74008125Y-35946906D01*
X74008125Y-36086710D01*
X73988123Y-36154831D01*
X73971220Y-36175805D01*
X73763620Y-36383405D01*
X73701308Y-36417431D01*
X73674525Y-36420310D01*
X73446812Y-36420310D01*
X73378691Y-36400308D01*
X73332198Y-36346652D01*
X73320812Y-36294310D01*
X73320812Y-35240918D01*
X73321890Y-35224472D01*
X73324984Y-35200970D01*
X73326062Y-35192782D01*
X73320812Y-35152902D01*
X73320812Y-35152897D01*
X73305150Y-35033932D01*
X73300563Y-35022857D01*
X73298983Y-35019043D01*
X73246996Y-34893534D01*
X73246995Y-34893532D01*
X73243836Y-34885906D01*
X73222382Y-34857947D01*
X73196781Y-34791727D01*
X73211045Y-34722178D01*
X73260646Y-34671381D01*
X73296148Y-34657995D01*
X73388008Y-34638470D01*
X73388011Y-34638469D01*
X73394466Y-34637097D01*
X73419249Y-34626063D01*
X73553299Y-34566380D01*
X73553301Y-34566379D01*
X73559329Y-34563695D01*
X73581332Y-34547709D01*
X73699983Y-34461504D01*
X73699985Y-34461502D01*
X73705327Y-34457621D01*
X73737674Y-34421696D01*
X73821662Y-34328418D01*
X73821663Y-34328417D01*
X73826081Y-34323510D01*
X73900717Y-34194237D01*
X73913009Y-34172947D01*
X73913010Y-34172946D01*
X73916313Y-34167224D01*
X73956045Y-34044940D01*
X73970039Y-34001871D01*
X73970039Y-34001870D01*
X73972079Y-33995592D01*
X73989181Y-33832877D01*
X74016194Y-33767222D01*
X74074416Y-33726592D01*
X74145361Y-33723889D01*
X74191195Y-33746086D01*
G37*
%TD.AperFunction*%
%TA.AperFunction,Conductor*%
G36*
X69872306Y-27486078D02*
G01*
X69931291Y-27525591D01*
X69959776Y-27592666D01*
X69961635Y-27609772D01*
X69962246Y-27615400D01*
X69962246Y-27642616D01*
X69958052Y-27681226D01*
X69958052Y-28077194D01*
X69958421Y-28080589D01*
X69958421Y-28080593D01*
X69962246Y-28115803D01*
X69962246Y-28143016D01*
X69958052Y-28181626D01*
X69958052Y-28577594D01*
X69958421Y-28580991D01*
X69962105Y-28614902D01*
X69962105Y-28642116D01*
X69958052Y-28679426D01*
X69958052Y-29075394D01*
X69958421Y-29078789D01*
X69958421Y-29078793D01*
X69962246Y-29114003D01*
X69962246Y-29141216D01*
X69962224Y-29141421D01*
X69959669Y-29164939D01*
X69932426Y-29230501D01*
X69874063Y-29270926D01*
X69803109Y-29273381D01*
X69760348Y-29253267D01*
X69655476Y-29177073D01*
X69646890Y-29170835D01*
X69646889Y-29170834D01*
X69641548Y-29166954D01*
X69635520Y-29164270D01*
X69635518Y-29164269D01*
X69482716Y-29096237D01*
X69482714Y-29096237D01*
X69476685Y-29093552D01*
X69375177Y-29071976D01*
X69306622Y-29057404D01*
X69306618Y-29057404D01*
X69300165Y-29056032D01*
X69119701Y-29056032D01*
X69113248Y-29057404D01*
X69113244Y-29057404D01*
X69044689Y-29071976D01*
X68943181Y-29093552D01*
X68937152Y-29096236D01*
X68937150Y-29096237D01*
X68784349Y-29164269D01*
X68784347Y-29164270D01*
X68778319Y-29166954D01*
X68772978Y-29170834D01*
X68772977Y-29170835D01*
X68637664Y-29269145D01*
X68637662Y-29269147D01*
X68632320Y-29273028D01*
X68627902Y-29277934D01*
X68627895Y-29277941D01*
X68626497Y-29279494D01*
X68625463Y-29280131D01*
X68622993Y-29282355D01*
X68622586Y-29281903D01*
X68566051Y-29316734D01*
X68506664Y-29318431D01*
X68443459Y-29304996D01*
X68443455Y-29304996D01*
X68437002Y-29303624D01*
X68256538Y-29303624D01*
X68250085Y-29304996D01*
X68250081Y-29304996D01*
X68183653Y-29319116D01*
X68080018Y-29341144D01*
X68073989Y-29343828D01*
X68073987Y-29343829D01*
X67921186Y-29411861D01*
X67921184Y-29411862D01*
X67915156Y-29414546D01*
X67909815Y-29418426D01*
X67909814Y-29418427D01*
X67774501Y-29516737D01*
X67774499Y-29516739D01*
X67769157Y-29520620D01*
X67764736Y-29525530D01*
X67764735Y-29525531D01*
X67665250Y-29636021D01*
X67648403Y-29654731D01*
X67615070Y-29712465D01*
X67563505Y-29801779D01*
X67558171Y-29811017D01*
X67553592Y-29825111D01*
X67522407Y-29921090D01*
X67502405Y-29982649D01*
X67501715Y-29989212D01*
X67501715Y-29989213D01*
X67486321Y-30135670D01*
X67483541Y-30162124D01*
X67483771Y-30164315D01*
X67464229Y-30230871D01*
X67410573Y-30277364D01*
X67358231Y-30288750D01*
X67207531Y-30288750D01*
X67201078Y-30290122D01*
X67201074Y-30290122D01*
X67119271Y-30307510D01*
X67031011Y-30326270D01*
X67024982Y-30328954D01*
X67024980Y-30328955D01*
X66872179Y-30396987D01*
X66872177Y-30396988D01*
X66866149Y-30399672D01*
X66860808Y-30403552D01*
X66860807Y-30403553D01*
X66725494Y-30501863D01*
X66725492Y-30501865D01*
X66720150Y-30505746D01*
X66715729Y-30510656D01*
X66715728Y-30510657D01*
X66605548Y-30633025D01*
X66599396Y-30639857D01*
X66552933Y-30720333D01*
X66524145Y-30770196D01*
X66509164Y-30796143D01*
X66493633Y-30843944D01*
X66460196Y-30946854D01*
X66453398Y-30967775D01*
X66452708Y-30974338D01*
X66452708Y-30974339D01*
X66439449Y-31100492D01*
X66434534Y-31147250D01*
X66435224Y-31153815D01*
X66452436Y-31317571D01*
X66453243Y-31325248D01*
X66453398Y-31326725D01*
X66453128Y-31326753D01*
X66447984Y-31394148D01*
X66405166Y-31450779D01*
X66370016Y-31469075D01*
X66226392Y-31516991D01*
X66213213Y-31523165D01*
X66080326Y-31605398D01*
X66068925Y-31614434D01*
X65958513Y-31725039D01*
X65949501Y-31736450D01*
X65867495Y-31869490D01*
X65861348Y-31882671D01*
X65812008Y-32031424D01*
X65809141Y-32044800D01*
X65799827Y-32135707D01*
X65799499Y-32142124D01*
X65799499Y-32165495D01*
X65803974Y-32180734D01*
X65805364Y-32181939D01*
X65813047Y-32183610D01*
X66885499Y-32183610D01*
X66953620Y-32203612D01*
X67000113Y-32257268D01*
X67011499Y-32309610D01*
X67011499Y-32565610D01*
X66991497Y-32633731D01*
X66937841Y-32680224D01*
X66885499Y-32691610D01*
X65817614Y-32691610D01*
X65802375Y-32696085D01*
X65801170Y-32697475D01*
X65799499Y-32705158D01*
X65799499Y-32733048D01*
X65799836Y-32739563D01*
X65809393Y-32831667D01*
X65812287Y-32845066D01*
X65861880Y-32993717D01*
X65868054Y-33006896D01*
X65950287Y-33139783D01*
X65959323Y-33151184D01*
X66064049Y-33255727D01*
X66098128Y-33318009D01*
X66093125Y-33388829D01*
X66050628Y-33445702D01*
X65984130Y-33470571D01*
X65982572Y-33470627D01*
X65976454Y-33469822D01*
X65968265Y-33470900D01*
X65936580Y-33475071D01*
X65936571Y-33475072D01*
X65936569Y-33475072D01*
X65936563Y-33475073D01*
X65936561Y-33475073D01*
X65836997Y-33488181D01*
X65825790Y-33489656D01*
X65825788Y-33489657D01*
X65817603Y-33490734D01*
X65669578Y-33552048D01*
X65663027Y-33557075D01*
X65663025Y-33557076D01*
X65631194Y-33581501D01*
X65574382Y-33625095D01*
X65574379Y-33625098D01*
X65542467Y-33649585D01*
X65537437Y-33656140D01*
X65523002Y-33674951D01*
X65512135Y-33687342D01*
X64917427Y-34282050D01*
X64855115Y-34316076D01*
X64784300Y-34311011D01*
X64727464Y-34268464D01*
X64721202Y-34259280D01*
X64634500Y-34119171D01*
X64513450Y-33998332D01*
X64507219Y-33994491D01*
X64374079Y-33912422D01*
X64374077Y-33912421D01*
X64367849Y-33908582D01*
X64205505Y-33854735D01*
X64198668Y-33854035D01*
X64198666Y-33854034D01*
X64144632Y-33848498D01*
X64104480Y-33844384D01*
X63815248Y-33844384D01*
X63747127Y-33824382D01*
X63700634Y-33770726D01*
X63689248Y-33718384D01*
X63689248Y-33542394D01*
X63690326Y-33525948D01*
X63693421Y-33502438D01*
X63694499Y-33494250D01*
X63689219Y-33454144D01*
X63688141Y-33437698D01*
X63688141Y-32533302D01*
X63708143Y-32465181D01*
X63720500Y-32448998D01*
X63728615Y-32439985D01*
X63818847Y-32283699D01*
X63851368Y-32183610D01*
X63872573Y-32118346D01*
X63872573Y-32118345D01*
X63874613Y-32112067D01*
X63882264Y-32039272D01*
X63909277Y-31973615D01*
X63956325Y-31937335D01*
X64080430Y-31882080D01*
X64080432Y-31882079D01*
X64086460Y-31879395D01*
X64100093Y-31869490D01*
X64227114Y-31777204D01*
X64227116Y-31777202D01*
X64232458Y-31773321D01*
X64276357Y-31724566D01*
X64348793Y-31644118D01*
X64348794Y-31644117D01*
X64353212Y-31639210D01*
X64415254Y-31531750D01*
X64440140Y-31488647D01*
X64440141Y-31488646D01*
X64443444Y-31482924D01*
X64485173Y-31354495D01*
X64497170Y-31317571D01*
X64497170Y-31317570D01*
X64499210Y-31311292D01*
X64502227Y-31282593D01*
X64517384Y-31138382D01*
X64518074Y-31131817D01*
X64501128Y-30970591D01*
X64513900Y-30900753D01*
X64537265Y-30868402D01*
X64553629Y-30852010D01*
X64635300Y-30770196D01*
X64677665Y-30701467D01*
X64721210Y-30630825D01*
X64721211Y-30630823D01*
X64725050Y-30624595D01*
X64778897Y-30462251D01*
X64780812Y-30443567D01*
X64786705Y-30386045D01*
X64789248Y-30361226D01*
X64789248Y-30087444D01*
X64809250Y-30019323D01*
X64826153Y-29998349D01*
X67214730Y-27609772D01*
X67277042Y-27575746D01*
X67303825Y-27572867D01*
X68537576Y-27572867D01*
X68605697Y-27592869D01*
X68611637Y-27596931D01*
X68691978Y-27655302D01*
X68701121Y-27661945D01*
X68707149Y-27664629D01*
X68707151Y-27664630D01*
X68859953Y-27732662D01*
X68865984Y-27735347D01*
X68935063Y-27750030D01*
X69036047Y-27771495D01*
X69036051Y-27771495D01*
X69042504Y-27772867D01*
X69222968Y-27772867D01*
X69229421Y-27771495D01*
X69229425Y-27771495D01*
X69330409Y-27750030D01*
X69399488Y-27735347D01*
X69405519Y-27732662D01*
X69558321Y-27664630D01*
X69558323Y-27664629D01*
X69564351Y-27661945D01*
X69572103Y-27656313D01*
X69705005Y-27559754D01*
X69705007Y-27559752D01*
X69710349Y-27555871D01*
X69740879Y-27521964D01*
X69801322Y-27484726D01*
X69872306Y-27486078D01*
G37*
%TD.AperFunction*%
%TA.AperFunction,Conductor*%
G36*
X42505993Y-25251102D02*
G01*
X42552486Y-25304758D01*
X42563872Y-25357100D01*
X42563872Y-25550600D01*
X42543870Y-25618721D01*
X42490214Y-25665214D01*
X42437872Y-25676600D01*
X41344987Y-25676600D01*
X41329748Y-25681075D01*
X41328543Y-25682465D01*
X41326872Y-25690148D01*
X41326872Y-25693038D01*
X41327209Y-25699553D01*
X41336766Y-25791657D01*
X41339660Y-25805056D01*
X41389253Y-25953707D01*
X41395427Y-25966886D01*
X41477660Y-26099773D01*
X41491243Y-26116911D01*
X41489313Y-26118441D01*
X41517775Y-26170480D01*
X41512759Y-26241299D01*
X41489073Y-26278217D01*
X41490029Y-26278972D01*
X41485491Y-26284718D01*
X41480320Y-26289898D01*
X41476480Y-26296128D01*
X41476479Y-26296129D01*
X41395127Y-26428107D01*
X41390570Y-26435499D01*
X41336723Y-26597843D01*
X41336023Y-26604680D01*
X41336022Y-26604682D01*
X41332979Y-26634385D01*
X41326372Y-26698868D01*
X41326372Y-27246332D01*
X41326709Y-27249578D01*
X41326709Y-27249582D01*
X41327958Y-27261618D01*
X41336985Y-27348619D01*
X41344931Y-27372436D01*
X41388409Y-27502753D01*
X41391116Y-27510868D01*
X41394968Y-27517092D01*
X41394968Y-27517093D01*
X41429482Y-27572867D01*
X41481120Y-27656313D01*
X41486302Y-27661486D01*
X41509500Y-27684644D01*
X41602170Y-27777152D01*
X41608400Y-27780992D01*
X41608401Y-27780993D01*
X41693993Y-27833753D01*
X41741487Y-27886526D01*
X41753877Y-27941013D01*
X41753877Y-28208140D01*
X41733875Y-28276261D01*
X41680219Y-28322754D01*
X41672107Y-28326122D01*
X41626285Y-28343300D01*
X41615672Y-28347279D01*
X41499116Y-28434633D01*
X41411762Y-28551189D01*
X41360632Y-28687578D01*
X41353877Y-28749760D01*
X41353877Y-30024655D01*
X41333875Y-30092776D01*
X41280219Y-30139269D01*
X41209945Y-30149373D01*
X41145365Y-30119879D01*
X41138782Y-30113750D01*
X40907782Y-29882750D01*
X40873756Y-29820438D01*
X40870877Y-29793655D01*
X40870877Y-28749760D01*
X40864122Y-28687578D01*
X40812992Y-28551189D01*
X40725638Y-28434633D01*
X40609082Y-28347279D01*
X40598469Y-28343300D01*
X40552647Y-28326122D01*
X40495882Y-28283480D01*
X40471183Y-28216918D01*
X40470877Y-28208140D01*
X40470877Y-27871738D01*
X40490879Y-27803617D01*
X40507704Y-27782720D01*
X40611209Y-27679034D01*
X40616380Y-27673854D01*
X40626113Y-27658064D01*
X40702290Y-27534483D01*
X40702291Y-27534481D01*
X40706130Y-27528253D01*
X40759977Y-27365909D01*
X40761079Y-27355159D01*
X40770000Y-27268082D01*
X40770328Y-27264884D01*
X40770328Y-26717420D01*
X40769348Y-26707969D01*
X40762112Y-26638235D01*
X40759715Y-26615133D01*
X40728715Y-26522215D01*
X40707901Y-26459828D01*
X40707900Y-26459826D01*
X40705584Y-26452884D01*
X40699126Y-26442447D01*
X40619434Y-26313667D01*
X40615580Y-26307439D01*
X40610398Y-26302266D01*
X40605851Y-26296529D01*
X40607658Y-26295097D01*
X40578926Y-26242577D01*
X40583936Y-26171757D01*
X40607327Y-26135299D01*
X40606276Y-26134469D01*
X40619826Y-26117312D01*
X40701832Y-25984272D01*
X40707979Y-25971091D01*
X40757319Y-25822338D01*
X40760186Y-25808962D01*
X40769500Y-25718055D01*
X40769757Y-25713026D01*
X40765353Y-25698028D01*
X40763963Y-25696823D01*
X40756280Y-25695152D01*
X38821943Y-25695152D01*
X38806704Y-25699627D01*
X38805499Y-25701017D01*
X38803828Y-25708700D01*
X38803828Y-25711590D01*
X38804165Y-25718105D01*
X38813722Y-25810209D01*
X38816616Y-25823608D01*
X38866209Y-25972259D01*
X38872383Y-25985438D01*
X38954616Y-26118325D01*
X38968199Y-26135463D01*
X38966269Y-26136993D01*
X38994731Y-26189032D01*
X38989715Y-26259851D01*
X38966029Y-26296769D01*
X38966985Y-26297524D01*
X38962447Y-26303270D01*
X38957276Y-26308450D01*
X38953436Y-26314680D01*
X38953435Y-26314681D01*
X38872083Y-26446659D01*
X38867526Y-26454051D01*
X38813679Y-26616395D01*
X38812979Y-26623232D01*
X38812978Y-26623234D01*
X38811441Y-26638235D01*
X38803328Y-26717420D01*
X38803328Y-27264884D01*
X38803665Y-27268130D01*
X38803665Y-27268134D01*
X38805463Y-27285458D01*
X38813941Y-27367171D01*
X38816123Y-27373711D01*
X38865365Y-27521305D01*
X38868072Y-27529420D01*
X38871924Y-27535644D01*
X38871924Y-27535645D01*
X38894585Y-27572265D01*
X38958076Y-27674865D01*
X39079126Y-27795704D01*
X39179396Y-27857511D01*
X39193993Y-27866509D01*
X39241486Y-27919281D01*
X39253877Y-27973769D01*
X39253877Y-28208140D01*
X39233875Y-28276261D01*
X39180219Y-28322754D01*
X39172107Y-28326122D01*
X39126285Y-28343300D01*
X39115672Y-28347279D01*
X38999116Y-28434633D01*
X38911762Y-28551189D01*
X38860632Y-28687578D01*
X38853877Y-28749760D01*
X38853877Y-30646028D01*
X38860632Y-30708210D01*
X38911762Y-30844599D01*
X38999116Y-30961155D01*
X39115672Y-31048509D01*
X39252061Y-31099639D01*
X39314243Y-31106394D01*
X40358138Y-31106394D01*
X40426259Y-31126396D01*
X40447233Y-31143299D01*
X42401558Y-33097624D01*
X42435584Y-33159936D01*
X42430519Y-33230751D01*
X42387972Y-33287587D01*
X42321452Y-33312398D01*
X42312463Y-33312719D01*
X36909472Y-33312719D01*
X36841351Y-33292717D01*
X36794858Y-33239061D01*
X36784754Y-33168787D01*
X36814248Y-33104207D01*
X36820377Y-33097624D01*
X38058746Y-31859255D01*
X38071137Y-31848388D01*
X38089949Y-31833953D01*
X38096499Y-31828927D01*
X38120986Y-31797015D01*
X38120992Y-31797009D01*
X38189008Y-31708369D01*
X38189009Y-31708367D01*
X38194036Y-31701816D01*
X38255350Y-31553791D01*
X38258407Y-31530570D01*
X38271012Y-31434825D01*
X38271012Y-31434820D01*
X38274114Y-31411257D01*
X38275184Y-31403129D01*
X38276262Y-31394940D01*
X38272090Y-31363247D01*
X38271012Y-31346804D01*
X38271012Y-25691860D01*
X38291014Y-25623739D01*
X38307917Y-25602765D01*
X38642677Y-25268005D01*
X38704989Y-25233979D01*
X38731772Y-25231100D01*
X42437872Y-25231100D01*
X42505993Y-25251102D01*
G37*
%TD.AperFunction*%
%TA.AperFunction,Conductor*%
G36*
X62476869Y-29828496D02*
G01*
X62523362Y-29882152D01*
X62534748Y-29934494D01*
X62534748Y-31027379D01*
X62540500Y-31046969D01*
X62574179Y-31099375D01*
X62574179Y-31170371D01*
X62535795Y-31230098D01*
X62527344Y-31236809D01*
X62457979Y-31287205D01*
X62457977Y-31287207D01*
X62452635Y-31291088D01*
X62376735Y-31375384D01*
X62316290Y-31412622D01*
X62245306Y-31411270D01*
X62186322Y-31371756D01*
X62158064Y-31306626D01*
X62157100Y-31291072D01*
X62157100Y-30900269D01*
X62158178Y-30883823D01*
X62161272Y-30860321D01*
X62162350Y-30852133D01*
X62157100Y-30812253D01*
X62157100Y-30812248D01*
X62143403Y-30708210D01*
X62141438Y-30693282D01*
X62138279Y-30685655D01*
X62083284Y-30552885D01*
X62083283Y-30552883D01*
X62080124Y-30545257D01*
X62076978Y-30541157D01*
X62060498Y-30479659D01*
X62060498Y-29934494D01*
X62080500Y-29866373D01*
X62134156Y-29819880D01*
X62186498Y-29808494D01*
X62408748Y-29808494D01*
X62476869Y-29828496D01*
G37*
%TD.AperFunction*%
%TA.AperFunction,Conductor*%
G36*
X72871754Y-22993650D02*
G01*
X72918247Y-23047306D01*
X72928351Y-23117580D01*
X72898857Y-23182160D01*
X72847862Y-23217630D01*
X72826757Y-23225542D01*
X72826756Y-23225543D01*
X72818347Y-23228695D01*
X72701791Y-23316049D01*
X72614437Y-23432605D01*
X72563307Y-23568994D01*
X72556552Y-23631176D01*
X72556552Y-24601496D01*
X72536550Y-24669617D01*
X72482894Y-24716110D01*
X72414106Y-24726418D01*
X72401325Y-24724735D01*
X72386863Y-24722831D01*
X72386850Y-24722830D01*
X72355165Y-24718659D01*
X72346976Y-24717581D01*
X72315283Y-24721753D01*
X72298840Y-24722831D01*
X69243467Y-24722831D01*
X69175346Y-24702829D01*
X69136323Y-24663134D01*
X69121105Y-24638541D01*
X69111251Y-24622618D01*
X69073100Y-24584533D01*
X68995381Y-24506950D01*
X68990201Y-24501779D01*
X68951756Y-24478081D01*
X68850830Y-24415869D01*
X68850828Y-24415868D01*
X68844600Y-24412029D01*
X68682256Y-24358182D01*
X68675419Y-24357482D01*
X68675417Y-24357481D01*
X68634098Y-24353248D01*
X68581231Y-24347831D01*
X68033767Y-24347831D01*
X68030521Y-24348168D01*
X68030517Y-24348168D01*
X68001229Y-24351207D01*
X67931480Y-24358444D01*
X67896852Y-24369997D01*
X67776175Y-24410258D01*
X67776173Y-24410259D01*
X67769231Y-24412575D01*
X67763007Y-24416427D01*
X67763006Y-24416427D01*
X67664061Y-24477656D01*
X67623786Y-24502579D01*
X67618613Y-24507761D01*
X67612876Y-24512308D01*
X67611444Y-24510501D01*
X67558924Y-24539233D01*
X67488104Y-24534223D01*
X67451646Y-24510832D01*
X67450816Y-24511883D01*
X67433659Y-24498333D01*
X67300619Y-24416327D01*
X67287438Y-24410180D01*
X67138685Y-24360840D01*
X67125309Y-24357973D01*
X67034402Y-24348659D01*
X67029373Y-24348402D01*
X67014375Y-24352806D01*
X67013170Y-24354196D01*
X67011499Y-24361879D01*
X67011499Y-25445258D01*
X66991497Y-25513379D01*
X66937841Y-25559872D01*
X66885499Y-25571258D01*
X65017641Y-25571258D01*
X64949520Y-25551256D01*
X64928546Y-25534353D01*
X64826153Y-25431960D01*
X64792127Y-25369648D01*
X64789248Y-25342865D01*
X64789248Y-25059216D01*
X65799499Y-25059216D01*
X65803974Y-25074455D01*
X65805364Y-25075660D01*
X65813047Y-25077331D01*
X66485384Y-25077331D01*
X66500623Y-25072856D01*
X66501828Y-25071466D01*
X66503499Y-25063783D01*
X66503499Y-24366446D01*
X66499024Y-24351207D01*
X66497634Y-24350002D01*
X66489951Y-24348331D01*
X66487061Y-24348331D01*
X66480546Y-24348668D01*
X66388442Y-24358225D01*
X66375043Y-24361119D01*
X66226392Y-24410712D01*
X66213213Y-24416886D01*
X66080326Y-24499119D01*
X66068925Y-24508155D01*
X65958513Y-24618760D01*
X65949501Y-24630171D01*
X65867495Y-24763211D01*
X65861348Y-24776392D01*
X65812009Y-24925143D01*
X65809141Y-24938521D01*
X65799827Y-25029428D01*
X65799499Y-25035845D01*
X65799499Y-25059216D01*
X64789248Y-25059216D01*
X64789248Y-24998372D01*
X64787858Y-24984970D01*
X64782317Y-24931574D01*
X64778635Y-24896085D01*
X64739849Y-24779830D01*
X64726821Y-24740780D01*
X64726820Y-24740778D01*
X64724504Y-24733836D01*
X64718877Y-24724742D01*
X64638354Y-24594619D01*
X64634500Y-24588391D01*
X64513450Y-24467552D01*
X64484502Y-24449708D01*
X64374079Y-24381642D01*
X64374077Y-24381641D01*
X64367849Y-24377802D01*
X64205505Y-24323955D01*
X64198668Y-24323255D01*
X64198666Y-24323254D01*
X64157347Y-24319021D01*
X64104480Y-24313604D01*
X63557016Y-24313604D01*
X63553770Y-24313941D01*
X63553766Y-24313941D01*
X63524478Y-24316980D01*
X63454729Y-24324217D01*
X63446711Y-24326892D01*
X63299424Y-24376031D01*
X63299422Y-24376032D01*
X63292480Y-24378348D01*
X63286256Y-24382200D01*
X63286255Y-24382200D01*
X63230945Y-24416427D01*
X63147035Y-24468352D01*
X63141862Y-24473534D01*
X63136125Y-24478081D01*
X63134693Y-24476274D01*
X63082173Y-24505006D01*
X63011353Y-24499996D01*
X62974895Y-24476605D01*
X62974065Y-24477656D01*
X62956908Y-24464106D01*
X62823868Y-24382100D01*
X62810687Y-24375953D01*
X62661934Y-24326613D01*
X62648558Y-24323746D01*
X62557651Y-24314432D01*
X62552622Y-24314175D01*
X62537624Y-24318579D01*
X62536419Y-24319969D01*
X62534748Y-24327652D01*
X62534748Y-26261989D01*
X62539223Y-26277228D01*
X62540613Y-26278433D01*
X62548296Y-26280104D01*
X62551186Y-26280104D01*
X62557701Y-26279767D01*
X62649805Y-26270210D01*
X62663204Y-26267316D01*
X62811855Y-26217723D01*
X62825034Y-26211549D01*
X62957921Y-26129316D01*
X62975059Y-26115733D01*
X62976589Y-26117663D01*
X63028628Y-26089201D01*
X63099447Y-26094217D01*
X63136365Y-26117903D01*
X63137120Y-26116947D01*
X63142866Y-26121485D01*
X63148046Y-26126656D01*
X63154276Y-26130496D01*
X63154277Y-26130497D01*
X63285768Y-26211549D01*
X63293647Y-26216406D01*
X63455991Y-26270253D01*
X63462828Y-26270953D01*
X63462830Y-26270954D01*
X63504149Y-26275187D01*
X63557016Y-26280604D01*
X63901509Y-26280604D01*
X63969630Y-26300606D01*
X63990604Y-26317509D01*
X64249087Y-26575992D01*
X64259954Y-26588383D01*
X64279415Y-26613745D01*
X64285965Y-26618771D01*
X64311323Y-26638229D01*
X64311330Y-26638235D01*
X64333188Y-26655007D01*
X64406527Y-26711282D01*
X64554552Y-26772596D01*
X64673517Y-26788258D01*
X64673522Y-26788258D01*
X64673531Y-26788259D01*
X64705214Y-26792430D01*
X64713402Y-26793508D01*
X64745095Y-26789336D01*
X64761538Y-26788258D01*
X65869534Y-26788258D01*
X65937655Y-26808260D01*
X65984148Y-26861916D01*
X65994252Y-26932190D01*
X65964758Y-26996770D01*
X65958629Y-27003353D01*
X63919893Y-29042089D01*
X63857581Y-29076115D01*
X63830798Y-29078994D01*
X63557016Y-29078994D01*
X63553770Y-29079331D01*
X63553766Y-29079331D01*
X63519665Y-29082869D01*
X63454729Y-29089607D01*
X63434857Y-29096237D01*
X63299424Y-29141421D01*
X63299422Y-29141422D01*
X63292480Y-29143738D01*
X63286256Y-29147590D01*
X63286255Y-29147590D01*
X63254963Y-29166954D01*
X63147035Y-29233742D01*
X63141862Y-29238924D01*
X63136125Y-29243471D01*
X63134693Y-29241664D01*
X63082173Y-29270396D01*
X63011353Y-29265386D01*
X62974895Y-29241995D01*
X62974065Y-29243046D01*
X62956908Y-29229496D01*
X62823868Y-29147490D01*
X62810687Y-29141343D01*
X62661934Y-29092003D01*
X62648558Y-29089136D01*
X62557651Y-29079822D01*
X62551234Y-29079494D01*
X62387132Y-29079494D01*
X62319011Y-29059492D01*
X62272518Y-29005836D01*
X62262414Y-28935562D01*
X62267299Y-28914559D01*
X62294322Y-28831389D01*
X62294323Y-28831385D01*
X62296363Y-28825106D01*
X62315227Y-28645631D01*
X62309255Y-28588808D01*
X62297053Y-28472720D01*
X62297053Y-28472719D01*
X62296363Y-28466156D01*
X62294029Y-28458971D01*
X62242639Y-28300809D01*
X62240597Y-28294524D01*
X62150365Y-28138238D01*
X62130165Y-28115803D01*
X62034033Y-28009038D01*
X62034032Y-28009037D01*
X62029611Y-28004127D01*
X61955758Y-27950469D01*
X61888955Y-27901934D01*
X61888954Y-27901933D01*
X61883613Y-27898053D01*
X61877585Y-27895369D01*
X61877583Y-27895368D01*
X61724781Y-27827336D01*
X61724779Y-27827336D01*
X61718750Y-27824651D01*
X61619792Y-27803617D01*
X61548687Y-27788503D01*
X61548683Y-27788503D01*
X61542230Y-27787131D01*
X61361766Y-27787131D01*
X61355313Y-27788503D01*
X61355309Y-27788503D01*
X61284204Y-27803617D01*
X61185246Y-27824651D01*
X61179217Y-27827335D01*
X61179215Y-27827336D01*
X61026414Y-27895368D01*
X61026412Y-27895369D01*
X61020384Y-27898053D01*
X61015043Y-27901933D01*
X61015042Y-27901934D01*
X60879729Y-28000244D01*
X60879727Y-28000246D01*
X60874385Y-28004127D01*
X60869964Y-28009037D01*
X60869963Y-28009038D01*
X60773832Y-28115803D01*
X60753631Y-28138238D01*
X60663399Y-28294524D01*
X60661357Y-28300809D01*
X60609968Y-28458971D01*
X60607633Y-28466156D01*
X60606943Y-28472719D01*
X60606943Y-28472720D01*
X60594741Y-28588808D01*
X60588769Y-28645631D01*
X60607633Y-28825106D01*
X60609673Y-28831384D01*
X60609673Y-28831385D01*
X60620484Y-28864659D01*
X60663399Y-28996738D01*
X60666702Y-29002460D01*
X60666703Y-29002461D01*
X60723305Y-29100498D01*
X60753631Y-29153024D01*
X60758049Y-29157931D01*
X60758050Y-29157932D01*
X60811134Y-29216887D01*
X60841851Y-29280895D01*
X60843498Y-29301198D01*
X60843498Y-30283806D01*
X60823496Y-30351927D01*
X60769840Y-30398420D01*
X60699566Y-30408524D01*
X60693842Y-30407505D01*
X60693026Y-30407419D01*
X60686570Y-30406047D01*
X60529939Y-30406047D01*
X60461818Y-30386045D01*
X60415325Y-30332389D01*
X60405221Y-30262115D01*
X60420820Y-30217047D01*
X60422741Y-30213720D01*
X60427767Y-30207170D01*
X60430927Y-30199542D01*
X60483402Y-30072856D01*
X60483403Y-30072853D01*
X60486562Y-30065226D01*
X60506616Y-29912902D01*
X60486561Y-29760578D01*
X60427767Y-29618635D01*
X60357720Y-29527348D01*
X60197569Y-29367197D01*
X60106282Y-29297150D01*
X60107233Y-29295911D01*
X60075453Y-29264131D01*
X60074214Y-29265082D01*
X60043465Y-29225009D01*
X60004167Y-29173795D01*
X59844016Y-29013644D01*
X59752729Y-28943597D01*
X59753680Y-28942358D01*
X59721900Y-28910578D01*
X59720661Y-28911529D01*
X59672511Y-28848779D01*
X59650614Y-28820242D01*
X59490463Y-28660091D01*
X59399176Y-28590044D01*
X59400125Y-28588808D01*
X59368343Y-28557026D01*
X59367107Y-28557975D01*
X59353383Y-28540089D01*
X59297060Y-28466688D01*
X59136909Y-28306537D01*
X59045622Y-28236490D01*
X59046573Y-28235251D01*
X59014793Y-28203471D01*
X59013554Y-28204422D01*
X58946022Y-28116413D01*
X58943507Y-28113135D01*
X58783356Y-27952984D01*
X58692069Y-27882937D01*
X58693018Y-27881701D01*
X58661236Y-27849919D01*
X58660000Y-27850868D01*
X58628769Y-27810167D01*
X58589953Y-27759581D01*
X58429802Y-27599430D01*
X58338515Y-27529383D01*
X58339466Y-27528144D01*
X58307686Y-27496364D01*
X58306447Y-27497315D01*
X58278436Y-27460811D01*
X58236400Y-27406028D01*
X58076249Y-27245877D01*
X57984962Y-27175830D01*
X57985913Y-27174591D01*
X57954133Y-27142811D01*
X57952894Y-27143762D01*
X57924517Y-27106781D01*
X57882847Y-27052475D01*
X57722696Y-26892324D01*
X57631409Y-26822277D01*
X57632358Y-26821041D01*
X57600576Y-26789259D01*
X57599340Y-26790208D01*
X57536452Y-26708251D01*
X57529293Y-26698921D01*
X57369142Y-26538770D01*
X57301937Y-26487201D01*
X57260070Y-26429864D01*
X57255848Y-26358993D01*
X57290612Y-26297090D01*
X57339701Y-26267407D01*
X57340516Y-26267142D01*
X57346967Y-26265771D01*
X57352994Y-26263088D01*
X57352996Y-26263087D01*
X57505800Y-26195054D01*
X57505802Y-26195053D01*
X57511830Y-26192369D01*
X57517645Y-26188144D01*
X57652484Y-26090178D01*
X57652486Y-26090176D01*
X57657828Y-26086295D01*
X57696572Y-26043265D01*
X57774163Y-25957092D01*
X57774164Y-25957091D01*
X57778582Y-25952184D01*
X57846475Y-25834591D01*
X57865510Y-25801621D01*
X57865511Y-25801620D01*
X57868814Y-25795898D01*
X57924580Y-25624266D01*
X57927816Y-25593483D01*
X57927915Y-25592542D01*
X61322748Y-25592542D01*
X61323085Y-25599057D01*
X61332642Y-25691161D01*
X61335536Y-25704560D01*
X61385129Y-25853211D01*
X61391303Y-25866390D01*
X61473536Y-25999277D01*
X61482572Y-26010678D01*
X61593177Y-26121090D01*
X61604588Y-26130102D01*
X61737628Y-26212108D01*
X61750809Y-26218255D01*
X61899562Y-26267595D01*
X61912938Y-26270462D01*
X62003845Y-26279776D01*
X62008874Y-26280033D01*
X62023872Y-26275629D01*
X62025077Y-26274239D01*
X62026748Y-26266556D01*
X62026748Y-25569219D01*
X62022273Y-25553980D01*
X62020883Y-25552775D01*
X62013200Y-25551104D01*
X61340863Y-25551104D01*
X61325624Y-25555579D01*
X61324419Y-25556969D01*
X61322748Y-25564652D01*
X61322748Y-25592542D01*
X57927915Y-25592542D01*
X57942754Y-25451356D01*
X57943444Y-25444791D01*
X57942095Y-25431960D01*
X57925270Y-25271880D01*
X57925270Y-25271879D01*
X57924580Y-25265316D01*
X57910229Y-25221148D01*
X57908202Y-25150180D01*
X57940967Y-25093117D01*
X58009095Y-25024989D01*
X61322748Y-25024989D01*
X61327223Y-25040228D01*
X61328613Y-25041433D01*
X61336296Y-25043104D01*
X62008633Y-25043104D01*
X62023872Y-25038629D01*
X62025077Y-25037239D01*
X62026748Y-25029556D01*
X62026748Y-24332219D01*
X62022273Y-24316980D01*
X62020883Y-24315775D01*
X62013200Y-24314104D01*
X62010310Y-24314104D01*
X62003795Y-24314441D01*
X61911691Y-24323998D01*
X61898292Y-24326892D01*
X61749641Y-24376485D01*
X61736462Y-24382659D01*
X61603575Y-24464892D01*
X61592174Y-24473928D01*
X61481762Y-24584533D01*
X61472750Y-24595944D01*
X61390744Y-24728984D01*
X61384597Y-24742165D01*
X61335257Y-24890918D01*
X61332390Y-24904294D01*
X61323076Y-24995201D01*
X61322748Y-25001618D01*
X61322748Y-25024989D01*
X58009095Y-25024989D01*
X58180977Y-24853107D01*
X58243289Y-24819081D01*
X58314104Y-24824146D01*
X58344133Y-24840266D01*
X58372228Y-24860678D01*
X58400921Y-24881525D01*
X58406949Y-24884209D01*
X58406951Y-24884210D01*
X58544541Y-24945469D01*
X58565784Y-24954927D01*
X58654044Y-24973687D01*
X58735847Y-24991075D01*
X58735851Y-24991075D01*
X58742304Y-24992447D01*
X58922768Y-24992447D01*
X58929221Y-24991075D01*
X58929225Y-24991075D01*
X59011028Y-24973687D01*
X59099288Y-24954927D01*
X59120531Y-24945469D01*
X59258121Y-24884210D01*
X59258123Y-24884209D01*
X59264151Y-24881525D01*
X59269493Y-24877644D01*
X59404805Y-24779334D01*
X59404807Y-24779332D01*
X59410149Y-24775451D01*
X59414571Y-24770540D01*
X59526484Y-24646248D01*
X59526485Y-24646247D01*
X59530903Y-24641340D01*
X59613242Y-24498725D01*
X59617831Y-24490777D01*
X59617832Y-24490776D01*
X59621135Y-24485054D01*
X59653220Y-24386306D01*
X59674861Y-24319701D01*
X59674861Y-24319700D01*
X59676901Y-24313422D01*
X59679025Y-24293219D01*
X59695075Y-24140512D01*
X59695765Y-24133947D01*
X59676901Y-23954472D01*
X59670593Y-23935056D01*
X59623177Y-23789125D01*
X59621135Y-23782840D01*
X59613261Y-23769201D01*
X59534204Y-23632272D01*
X59530903Y-23626554D01*
X59523252Y-23618056D01*
X59414571Y-23497354D01*
X59414570Y-23497353D01*
X59410149Y-23492443D01*
X59363913Y-23458850D01*
X59269493Y-23390250D01*
X59269492Y-23390249D01*
X59264151Y-23386369D01*
X59258123Y-23383685D01*
X59258121Y-23383684D01*
X59105319Y-23315652D01*
X59105317Y-23315652D01*
X59099288Y-23312967D01*
X59011028Y-23294207D01*
X58929225Y-23276819D01*
X58929221Y-23276819D01*
X58922768Y-23275447D01*
X58742304Y-23275447D01*
X58735851Y-23276819D01*
X58735847Y-23276819D01*
X58654044Y-23294207D01*
X58565784Y-23312967D01*
X58559755Y-23315651D01*
X58559753Y-23315652D01*
X58406952Y-23383684D01*
X58406950Y-23383685D01*
X58400922Y-23386369D01*
X58395581Y-23390249D01*
X58395580Y-23390250D01*
X58260267Y-23488560D01*
X58260265Y-23488562D01*
X58254923Y-23492443D01*
X58253663Y-23493842D01*
X58191235Y-23523801D01*
X58170933Y-23525447D01*
X58087724Y-23525447D01*
X58071278Y-23524369D01*
X58047776Y-23521275D01*
X58039588Y-23520197D01*
X58031400Y-23521275D01*
X57999717Y-23525446D01*
X57999708Y-23525447D01*
X57999703Y-23525447D01*
X57880738Y-23541109D01*
X57873111Y-23544268D01*
X57873108Y-23544269D01*
X57813417Y-23568994D01*
X57794026Y-23577026D01*
X57732712Y-23602423D01*
X57726161Y-23607450D01*
X57726159Y-23607451D01*
X57637516Y-23675470D01*
X57637513Y-23675473D01*
X57605601Y-23699960D01*
X57600571Y-23706515D01*
X57586136Y-23725326D01*
X57575269Y-23737717D01*
X57113600Y-24199386D01*
X57051288Y-24233412D01*
X57024505Y-24236291D01*
X56442990Y-24236291D01*
X56426544Y-24235213D01*
X56403034Y-24232118D01*
X56394846Y-24231040D01*
X56235995Y-24251953D01*
X56087970Y-24313267D01*
X56054712Y-24338787D01*
X55992783Y-24386306D01*
X55992767Y-24386320D01*
X55967412Y-24405775D01*
X55967409Y-24405778D01*
X55960859Y-24410804D01*
X55955829Y-24417359D01*
X55941394Y-24436170D01*
X55930527Y-24448561D01*
X55683307Y-24695781D01*
X55620995Y-24729807D01*
X55550180Y-24724742D01*
X55517513Y-24706652D01*
X55510093Y-24700959D01*
X55510883Y-24699930D01*
X55479004Y-24668051D01*
X55477584Y-24669140D01*
X55441215Y-24621742D01*
X55429622Y-24613277D01*
X55411999Y-24623037D01*
X55342716Y-24638541D01*
X55334515Y-24637734D01*
X55300626Y-24633272D01*
X55235699Y-24604549D01*
X55196608Y-24545284D01*
X55192151Y-24524798D01*
X55187675Y-24490803D01*
X55198614Y-24420654D01*
X55202010Y-24413968D01*
X55212123Y-24395448D01*
X55203985Y-24384442D01*
X55156283Y-24347839D01*
X55157372Y-24346419D01*
X55125497Y-24314544D01*
X55124467Y-24315335D01*
X55109085Y-24295289D01*
X55054420Y-24224048D01*
X54894269Y-24063897D01*
X54802982Y-23993850D01*
X54661038Y-23935055D01*
X54508715Y-23915001D01*
X54500527Y-23916079D01*
X54364576Y-23933978D01*
X54364573Y-23933979D01*
X54356391Y-23935056D01*
X54348767Y-23938214D01*
X54348763Y-23938215D01*
X54222078Y-23990689D01*
X54214447Y-23993850D01*
X54147012Y-24045595D01*
X54080795Y-24071195D01*
X54011246Y-24056931D01*
X53981218Y-24034730D01*
X53135230Y-23188741D01*
X53101206Y-23126431D01*
X53106271Y-23055615D01*
X53148818Y-22998780D01*
X53215338Y-22973969D01*
X53224327Y-22973648D01*
X72803633Y-22973648D01*
X72871754Y-22993650D01*
G37*
%TD.AperFunction*%
%TA.AperFunction,Conductor*%
G36*
X73950246Y-29008112D02*
G01*
X73996739Y-29061768D01*
X74008125Y-29114110D01*
X74008125Y-29168695D01*
X73988123Y-29236816D01*
X73971220Y-29257790D01*
X73945973Y-29283037D01*
X73933582Y-29293904D01*
X73908220Y-29313365D01*
X73883733Y-29345277D01*
X73883730Y-29345280D01*
X73883724Y-29345288D01*
X73816384Y-29433047D01*
X73810683Y-29440476D01*
X73793847Y-29481122D01*
X73753227Y-29579188D01*
X73749369Y-29588501D01*
X73748994Y-29591350D01*
X73748291Y-29596693D01*
X73748290Y-29596695D01*
X73744397Y-29626265D01*
X73740725Y-29654164D01*
X73740635Y-29654844D01*
X73711913Y-29719771D01*
X73666964Y-29753503D01*
X73567251Y-29797899D01*
X73557110Y-29805267D01*
X73446438Y-29885674D01*
X73379570Y-29909532D01*
X73321129Y-29898844D01*
X73186136Y-29838741D01*
X73186134Y-29838741D01*
X73180105Y-29836056D01*
X73091845Y-29817296D01*
X73010042Y-29799908D01*
X73010038Y-29799908D01*
X73003585Y-29798536D01*
X72901032Y-29798536D01*
X72832911Y-29778534D01*
X72786418Y-29724878D01*
X72775216Y-29679352D01*
X72775081Y-29676869D01*
X72771505Y-29643940D01*
X72771505Y-29616726D01*
X72772010Y-29612084D01*
X72775952Y-29575794D01*
X72775952Y-29179826D01*
X72774976Y-29170835D01*
X72771758Y-29141217D01*
X72771758Y-29114003D01*
X72773225Y-29100498D01*
X72800470Y-29034937D01*
X72858834Y-28994513D01*
X72898488Y-28988110D01*
X73882125Y-28988110D01*
X73950246Y-29008112D01*
G37*
%TD.AperFunction*%
%TA.AperFunction,Conductor*%
G36*
X43501384Y-25498259D02*
G01*
X43507967Y-25504388D01*
X44299618Y-26296039D01*
X44333644Y-26358351D01*
X44330356Y-26424070D01*
X44315848Y-26468723D01*
X44296427Y-26528494D01*
X44295737Y-26535057D01*
X44295737Y-26535058D01*
X44283130Y-26655007D01*
X44277563Y-26707969D01*
X44278253Y-26714534D01*
X44289578Y-26822277D01*
X44296427Y-26887444D01*
X44298467Y-26893722D01*
X44298467Y-26893723D01*
X44300208Y-26899080D01*
X44352193Y-27059076D01*
X44355496Y-27064798D01*
X44355497Y-27064799D01*
X44377297Y-27102557D01*
X44442425Y-27215362D01*
X44446843Y-27220269D01*
X44446844Y-27220270D01*
X44542633Y-27326654D01*
X44563179Y-27349473D01*
X44568521Y-27353354D01*
X44568523Y-27353356D01*
X44702837Y-27450941D01*
X44709177Y-27455547D01*
X44715205Y-27458231D01*
X44715207Y-27458232D01*
X44868009Y-27526264D01*
X44874040Y-27528949D01*
X44962300Y-27547709D01*
X45044103Y-27565097D01*
X45044107Y-27565097D01*
X45050560Y-27566469D01*
X45231024Y-27566469D01*
X45237477Y-27565097D01*
X45237481Y-27565097D01*
X45319284Y-27547709D01*
X45407544Y-27528949D01*
X45413575Y-27526264D01*
X45566377Y-27458232D01*
X45566379Y-27458231D01*
X45572407Y-27455547D01*
X45578747Y-27450941D01*
X45713061Y-27353356D01*
X45713063Y-27353354D01*
X45718405Y-27349473D01*
X45719832Y-27347888D01*
X45782344Y-27317889D01*
X45852797Y-27326654D01*
X45891741Y-27353148D01*
X46290465Y-27751872D01*
X46324491Y-27814184D01*
X46327370Y-27840967D01*
X46327370Y-28203659D01*
X46307368Y-28271780D01*
X46280437Y-28301052D01*
X46280655Y-28301301D01*
X46278342Y-28303330D01*
X46278073Y-28303622D01*
X46277560Y-28304016D01*
X46274275Y-28306537D01*
X46114124Y-28466688D01*
X46044077Y-28557975D01*
X46042841Y-28557026D01*
X46011059Y-28588808D01*
X46012008Y-28590044D01*
X45920721Y-28660091D01*
X45760570Y-28820242D01*
X45690523Y-28911529D01*
X45689493Y-28910738D01*
X45657618Y-28942613D01*
X45658707Y-28944033D01*
X45611309Y-28980402D01*
X45602844Y-28991995D01*
X45612604Y-29009618D01*
X45628108Y-29078901D01*
X45627301Y-29087102D01*
X45624128Y-29111200D01*
X45622839Y-29120991D01*
X45594116Y-29185918D01*
X45534851Y-29225009D01*
X45514365Y-29229466D01*
X45480370Y-29233942D01*
X45410221Y-29223003D01*
X45403535Y-29219607D01*
X45385015Y-29209494D01*
X45374009Y-29217632D01*
X45337406Y-29265334D01*
X45335986Y-29264245D01*
X45304111Y-29296120D01*
X45304902Y-29297150D01*
X45213615Y-29367197D01*
X45210697Y-29370115D01*
X45210689Y-29370122D01*
X45209435Y-29371376D01*
X45208969Y-29371630D01*
X45207599Y-29372832D01*
X45207330Y-29372525D01*
X45147123Y-29405402D01*
X45076308Y-29400337D01*
X45019472Y-29357790D01*
X44999812Y-29314466D01*
X44999120Y-29314691D01*
X44997119Y-29308532D01*
X44997118Y-29308531D01*
X44943354Y-29143059D01*
X44934435Y-29127610D01*
X44883874Y-29040037D01*
X44853122Y-28986773D01*
X44843464Y-28976046D01*
X44736790Y-28857573D01*
X44736789Y-28857572D01*
X44732368Y-28852662D01*
X44720657Y-28844153D01*
X44591712Y-28750469D01*
X44591711Y-28750468D01*
X44586370Y-28746588D01*
X44580342Y-28743904D01*
X44580340Y-28743903D01*
X44427538Y-28675871D01*
X44427536Y-28675871D01*
X44421507Y-28673186D01*
X44322756Y-28652196D01*
X44251444Y-28637038D01*
X44251440Y-28637038D01*
X44244987Y-28635666D01*
X44064523Y-28635666D01*
X44058070Y-28637038D01*
X44058066Y-28637038D01*
X43986754Y-28652196D01*
X43888003Y-28673186D01*
X43881974Y-28675870D01*
X43881972Y-28675871D01*
X43729171Y-28743903D01*
X43729169Y-28743904D01*
X43723141Y-28746588D01*
X43717800Y-28750468D01*
X43717799Y-28750469D01*
X43582486Y-28848779D01*
X43582484Y-28848781D01*
X43580274Y-28850387D01*
X43580271Y-28850388D01*
X43577142Y-28852662D01*
X43576726Y-28852090D01*
X43517179Y-28880666D01*
X43446725Y-28871901D01*
X43392195Y-28826437D01*
X43370877Y-28756312D01*
X43370877Y-28749760D01*
X43364122Y-28687578D01*
X43312992Y-28551189D01*
X43225638Y-28434633D01*
X43109082Y-28347279D01*
X43098469Y-28343300D01*
X43052647Y-28326122D01*
X42995882Y-28283480D01*
X42971183Y-28216918D01*
X42970877Y-28208140D01*
X42970877Y-27873994D01*
X42990879Y-27805873D01*
X43016374Y-27777720D01*
X43018585Y-27776352D01*
X43032055Y-27762859D01*
X43134253Y-27660482D01*
X43139424Y-27655302D01*
X43143504Y-27648683D01*
X43225334Y-27515931D01*
X43225335Y-27515929D01*
X43229174Y-27509701D01*
X43283021Y-27347357D01*
X43285187Y-27326223D01*
X43291218Y-27267353D01*
X43293372Y-27246332D01*
X43293372Y-26698868D01*
X43291506Y-26680878D01*
X43287081Y-26638235D01*
X43282759Y-26596581D01*
X43263472Y-26538770D01*
X43230945Y-26441276D01*
X43230944Y-26441274D01*
X43228628Y-26434332D01*
X43173576Y-26345368D01*
X43142478Y-26295115D01*
X43138624Y-26288887D01*
X43133442Y-26283714D01*
X43128895Y-26277977D01*
X43130702Y-26276545D01*
X43101970Y-26224025D01*
X43106980Y-26153205D01*
X43130371Y-26116747D01*
X43129320Y-26115917D01*
X43142870Y-26098760D01*
X43224876Y-25965720D01*
X43231023Y-25952539D01*
X43280363Y-25803786D01*
X43283230Y-25790410D01*
X43292544Y-25699503D01*
X43292872Y-25693087D01*
X43292872Y-25593483D01*
X43312874Y-25525362D01*
X43366530Y-25478869D01*
X43436804Y-25468765D01*
X43501384Y-25498259D01*
G37*
%TD.AperFunction*%
%TD*%
M02*
