%TF.GenerationSoftware,KiCad,Pcbnew,(6.0.6-1)-1*%
%TF.CreationDate,2022-08-11T03:14:31+08:00*%
%TF.ProjectId,card,63617264-2e6b-4696-9361-645f70636258,rev?*%
%TF.SameCoordinates,Original*%
%TF.FileFunction,Soldermask,Bot*%
%TF.FilePolarity,Negative*%
%FSLAX46Y46*%
G04 Gerber Fmt 4.6, Leading zero omitted, Abs format (unit mm)*
G04 Created by KiCad (PCBNEW (6.0.6-1)-1) date 2022-08-11 03:14:31*
%MOMM*%
%LPD*%
G01*
G04 APERTURE LIST*
G04 Aperture macros list*
%AMRoundRect*
0 Rectangle with rounded corners*
0 $1 Rounding radius*
0 $2 $3 $4 $5 $6 $7 $8 $9 X,Y pos of 4 corners*
0 Add a 4 corners polygon primitive as box body*
4,1,4,$2,$3,$4,$5,$6,$7,$8,$9,$2,$3,0*
0 Add four circle primitives for the rounded corners*
1,1,$1+$1,$2,$3*
1,1,$1+$1,$4,$5*
1,1,$1+$1,$6,$7*
1,1,$1+$1,$8,$9*
0 Add four rect primitives between the rounded corners*
20,1,$1+$1,$2,$3,$4,$5,0*
20,1,$1+$1,$4,$5,$6,$7,0*
20,1,$1+$1,$6,$7,$8,$9,0*
20,1,$1+$1,$8,$9,$2,$3,0*%
G04 Aperture macros list end*
%ADD10RoundRect,0.050000X0.650000X-0.150000X0.650000X0.150000X-0.650000X0.150000X-0.650000X-0.150000X0*%
%ADD11O,1.901600X1.301600*%
%ADD12O,2.101600X1.301600*%
%ADD13C,0.700000*%
%ADD14C,0.899200*%
%ADD15RoundRect,0.200000X-0.275000X0.200000X-0.275000X-0.200000X0.275000X-0.200000X0.275000X0.200000X0*%
%ADD16R,0.450000X0.700000*%
%ADD17RoundRect,0.225000X-0.225000X-0.250000X0.225000X-0.250000X0.225000X0.250000X-0.225000X0.250000X0*%
%ADD18RoundRect,0.225000X0.225000X0.250000X-0.225000X0.250000X-0.225000X-0.250000X0.225000X-0.250000X0*%
%ADD19R,1.500000X2.000000*%
%ADD20R,3.800000X2.000000*%
%ADD21RoundRect,0.200000X-0.200000X-0.275000X0.200000X-0.275000X0.200000X0.275000X-0.200000X0.275000X0*%
%ADD22RoundRect,0.218750X0.381250X-0.218750X0.381250X0.218750X-0.381250X0.218750X-0.381250X-0.218750X0*%
%ADD23RoundRect,0.225000X-0.250000X0.225000X-0.250000X-0.225000X0.250000X-0.225000X0.250000X0.225000X0*%
%ADD24RoundRect,0.218750X-0.218750X-0.381250X0.218750X-0.381250X0.218750X0.381250X-0.218750X0.381250X0*%
%ADD25RoundRect,0.250000X-0.625000X0.375000X-0.625000X-0.375000X0.625000X-0.375000X0.625000X0.375000X0*%
%ADD26RoundRect,0.050800X0.449950X-0.500000X0.449950X0.500000X-0.449950X0.500000X-0.449950X-0.500000X0*%
%ADD27R,0.900000X1.200000*%
%ADD28RoundRect,0.200000X0.275000X-0.200000X0.275000X0.200000X-0.275000X0.200000X-0.275000X-0.200000X0*%
G04 APERTURE END LIST*
D10*
%TO.C,USB1*%
X33531584Y-37733632D03*
X33531584Y-36933532D03*
X33531584Y-36433732D03*
X33531584Y-35433732D03*
X33531584Y-33933532D03*
X33531584Y-32933532D03*
X33531384Y-32433732D03*
X33531584Y-31633632D03*
X33531584Y-31333632D03*
X33531384Y-32133432D03*
X33531584Y-33433932D03*
X33531584Y-34433732D03*
X33531584Y-34933532D03*
X33531584Y-35933532D03*
X33531584Y-37233532D03*
X33531584Y-38033632D03*
D11*
X28701584Y-30363632D03*
X28701584Y-39003732D03*
D12*
X32881684Y-30363632D03*
X32881684Y-39003732D03*
D13*
X32351484Y-31793632D03*
X32351484Y-37573632D03*
%TD*%
D14*
%TO.C,SW1*%
X32780825Y-25252064D03*
X29781125Y-25252064D03*
%TD*%
D15*
%TO.C,R1*%
X70991925Y-37130229D03*
X70991925Y-38780229D03*
%TD*%
D16*
%TO.C,Q1*%
X70966800Y-33991352D03*
X69666800Y-33991352D03*
X70316800Y-31991352D03*
%TD*%
D17*
%TO.C,C6*%
X36678323Y-33366148D03*
X38228323Y-33366148D03*
%TD*%
D18*
%TO.C,C2*%
X45837163Y-39410764D03*
X44287163Y-39410764D03*
%TD*%
D19*
%TO.C,U1*%
X45559769Y-30960030D03*
X43259769Y-30960030D03*
D20*
X43259769Y-24660030D03*
D19*
X40959769Y-30960030D03*
%TD*%
D18*
%TO.C,C5*%
X45796621Y-36649241D03*
X44246621Y-36649241D03*
%TD*%
D21*
%TO.C,R11*%
X56212031Y-37239263D03*
X57862031Y-37239263D03*
%TD*%
D22*
%TO.C,L1*%
X74343531Y-33983538D03*
X74343531Y-31858538D03*
%TD*%
D15*
%TO.C,R2*%
X67570772Y-37130229D03*
X67570772Y-38780229D03*
%TD*%
D23*
%TO.C,C1*%
X74413078Y-37180229D03*
X74413078Y-38730229D03*
%TD*%
D17*
%TO.C,C10*%
X36720517Y-39410764D03*
X38270517Y-39410764D03*
%TD*%
D21*
%TO.C,R5*%
X56211691Y-24621076D03*
X57861691Y-24621076D03*
%TD*%
D24*
%TO.C,L2*%
X42065022Y-33486148D03*
X44190022Y-33486148D03*
%TD*%
D25*
%TO.C,F1*%
X36625123Y-24334876D03*
X36625123Y-27134876D03*
%TD*%
D18*
%TO.C,C8*%
X41871765Y-39410764D03*
X40321765Y-39410764D03*
%TD*%
D21*
%TO.C,R8*%
X56185310Y-30930170D03*
X57835310Y-30930170D03*
%TD*%
%TO.C,R10*%
X56185310Y-35136232D03*
X57835310Y-35136232D03*
%TD*%
D26*
%TO.C,LED6*%
X49266576Y-35105241D03*
X50966576Y-35105241D03*
%TD*%
D17*
%TO.C,C16*%
X36738302Y-36649241D03*
X38288302Y-36649241D03*
%TD*%
D26*
%TO.C,LED2*%
X49266576Y-26773177D03*
X50966576Y-26773177D03*
%TD*%
D23*
%TO.C,C7*%
X64149618Y-37180229D03*
X64149618Y-38730229D03*
%TD*%
D26*
%TO.C,LED3*%
X49266576Y-28856193D03*
X50966576Y-28856193D03*
%TD*%
%TO.C,LED7*%
X49266576Y-37188257D03*
X50966576Y-37188257D03*
%TD*%
D23*
%TO.C,C4*%
X70316800Y-27874520D03*
X70316800Y-29424520D03*
%TD*%
D26*
%TO.C,LED4*%
X49266576Y-30939209D03*
X50966576Y-30939209D03*
%TD*%
D27*
%TO.C,D2*%
X64087916Y-29562624D03*
X67387916Y-29562624D03*
%TD*%
D26*
%TO.C,LED1*%
X49266576Y-24690155D03*
X50966576Y-24690155D03*
%TD*%
D21*
%TO.C,R6*%
X56185310Y-26724108D03*
X57835310Y-26724108D03*
%TD*%
D27*
%TO.C,D1*%
X67387916Y-25800562D03*
X64087916Y-25800562D03*
%TD*%
%TO.C,D3*%
X64087916Y-33324687D03*
X67387916Y-33324687D03*
%TD*%
D18*
%TO.C,C20*%
X41924886Y-36649241D03*
X40374886Y-36649241D03*
%TD*%
D26*
%TO.C,LED5*%
X49266576Y-33022225D03*
X50966576Y-33022225D03*
%TD*%
D21*
%TO.C,R9*%
X56149475Y-33033201D03*
X57799475Y-33033201D03*
%TD*%
D26*
%TO.C,LED8*%
X49266576Y-39271273D03*
X50966576Y-39271273D03*
%TD*%
D21*
%TO.C,R12*%
X56211691Y-39342294D03*
X57861691Y-39342294D03*
%TD*%
%TO.C,R7*%
X56185310Y-28827139D03*
X57835310Y-28827139D03*
%TD*%
D28*
%TO.C,R4*%
X36678747Y-31175650D03*
X36678747Y-29525650D03*
%TD*%
M02*
