%TF.GenerationSoftware,KiCad,Pcbnew,(6.0.6-1)-1*%
%TF.CreationDate,2022-08-11T03:14:31+08:00*%
%TF.ProjectId,card,63617264-2e6b-4696-9361-645f70636258,rev?*%
%TF.SameCoordinates,Original*%
%TF.FileFunction,Legend,Top*%
%TF.FilePolarity,Positive*%
%FSLAX46Y46*%
G04 Gerber Fmt 4.6, Leading zero omitted, Abs format (unit mm)*
G04 Created by KiCad (PCBNEW (6.0.6-1)-1) date 2022-08-11 03:14:31*
%MOMM*%
%LPD*%
G01*
G04 APERTURE LIST*
%ADD10C,0.150000*%
%ADD11C,0.149900*%
%ADD12C,0.120000*%
%ADD13C,0.254000*%
G04 APERTURE END LIST*
D10*
X27855013Y-23314954D02*
X27950252Y-23314954D01*
X28045490Y-23362574D01*
X28093109Y-23410193D01*
X28140728Y-23505431D01*
X28188347Y-23695907D01*
X28188347Y-23934002D01*
X28140728Y-24124478D01*
X28093109Y-24219716D01*
X28045490Y-24267335D01*
X27950252Y-24314954D01*
X27855013Y-24314954D01*
X27759775Y-24267335D01*
X27712156Y-24219716D01*
X27664537Y-24124478D01*
X27616918Y-23934002D01*
X27616918Y-23695907D01*
X27664537Y-23505431D01*
X27712156Y-23410193D01*
X27759775Y-23362574D01*
X27855013Y-23314954D01*
X34983858Y-24152773D02*
X34412429Y-24152773D01*
X34698144Y-24152773D02*
X34698144Y-23152773D01*
X34602905Y-23295631D01*
X34507667Y-23390869D01*
X34412429Y-23438488D01*
%TO.C,Y1*%
X44164048Y-37523004D02*
X44640238Y-37523004D01*
X43640238Y-37856337D02*
X44164048Y-37523004D01*
X43640238Y-37189671D01*
X44640238Y-36332528D02*
X44640238Y-36903956D01*
X44640238Y-36618242D02*
X43640238Y-36618242D01*
X43783096Y-36713480D01*
X43878334Y-36808718D01*
X43925953Y-36903956D01*
D11*
%TO.C,SW1*%
X27397692Y-27273286D02*
X27445311Y-27130429D01*
X27445311Y-26892333D01*
X27397692Y-26797095D01*
X27350073Y-26749476D01*
X27254835Y-26701857D01*
X27159597Y-26701857D01*
X27064359Y-26749476D01*
X27016740Y-26797095D01*
X26969121Y-26892333D01*
X26921502Y-27082810D01*
X26873883Y-27178048D01*
X26826264Y-27225667D01*
X26731026Y-27273286D01*
X26635788Y-27273286D01*
X26540550Y-27225667D01*
X26492931Y-27178048D01*
X26445311Y-27082810D01*
X26445311Y-26844714D01*
X26492931Y-26701857D01*
X26445311Y-26368524D02*
X27445311Y-26130429D01*
X26731026Y-25939953D01*
X27445311Y-25749476D01*
X26445311Y-25511381D01*
X27445311Y-24606619D02*
X27445311Y-25178048D01*
X27445311Y-24892333D02*
X26445311Y-24892333D01*
X26588169Y-24987572D01*
X26683407Y-25082810D01*
X26731026Y-25178048D01*
D10*
%TO.C,C13*%
X62412890Y-33755026D02*
X62365271Y-33802645D01*
X62222414Y-33850264D01*
X62127176Y-33850264D01*
X61984319Y-33802645D01*
X61889081Y-33707407D01*
X61841462Y-33612169D01*
X61793843Y-33421693D01*
X61793843Y-33278836D01*
X61841462Y-33088360D01*
X61889081Y-32993122D01*
X61984319Y-32897884D01*
X62127176Y-32850264D01*
X62222414Y-32850264D01*
X62365271Y-32897884D01*
X62412890Y-32945503D01*
X63365271Y-33850264D02*
X62793843Y-33850264D01*
X63079557Y-33850264D02*
X63079557Y-32850264D01*
X62984319Y-32993122D01*
X62889081Y-33088360D01*
X62793843Y-33135979D01*
X63698605Y-32850264D02*
X64317652Y-32850264D01*
X63984319Y-33231217D01*
X64127176Y-33231217D01*
X64222414Y-33278836D01*
X64270033Y-33326455D01*
X64317652Y-33421693D01*
X64317652Y-33659788D01*
X64270033Y-33755026D01*
X64222414Y-33802645D01*
X64127176Y-33850264D01*
X63841462Y-33850264D01*
X63746224Y-33802645D01*
X63698605Y-33755026D01*
%TO.C,R3*%
X29463279Y-28245785D02*
X28987089Y-28579119D01*
X29463279Y-28817214D02*
X28463279Y-28817214D01*
X28463279Y-28436261D01*
X28510899Y-28341023D01*
X28558518Y-28293404D01*
X28653756Y-28245785D01*
X28796613Y-28245785D01*
X28891851Y-28293404D01*
X28939470Y-28341023D01*
X28987089Y-28436261D01*
X28987089Y-28817214D01*
X28463279Y-27912452D02*
X28463279Y-27293404D01*
X28844232Y-27626738D01*
X28844232Y-27483880D01*
X28891851Y-27388642D01*
X28939470Y-27341023D01*
X29034708Y-27293404D01*
X29272803Y-27293404D01*
X29368041Y-27341023D01*
X29415660Y-27388642D01*
X29463279Y-27483880D01*
X29463279Y-27769595D01*
X29415660Y-27864833D01*
X29368041Y-27912452D01*
%TO.C,C3*%
X27893349Y-37732030D02*
X27940968Y-37779649D01*
X27988587Y-37922506D01*
X27988587Y-38017744D01*
X27940968Y-38160602D01*
X27845730Y-38255840D01*
X27750492Y-38303459D01*
X27560016Y-38351078D01*
X27417159Y-38351078D01*
X27226683Y-38303459D01*
X27131445Y-38255840D01*
X27036207Y-38160602D01*
X26988587Y-38017744D01*
X26988587Y-37922506D01*
X27036207Y-37779649D01*
X27083826Y-37732030D01*
X26988587Y-37398697D02*
X26988587Y-36779649D01*
X27369540Y-37112983D01*
X27369540Y-36970125D01*
X27417159Y-36874887D01*
X27464778Y-36827268D01*
X27560016Y-36779649D01*
X27798111Y-36779649D01*
X27893349Y-36827268D01*
X27940968Y-36874887D01*
X27988587Y-36970125D01*
X27988587Y-37255840D01*
X27940968Y-37351078D01*
X27893349Y-37398697D01*
%TO.C,C22*%
X38595188Y-26871117D02*
X38642807Y-26918736D01*
X38690426Y-27061593D01*
X38690426Y-27156831D01*
X38642807Y-27299688D01*
X38547569Y-27394926D01*
X38452331Y-27442545D01*
X38261855Y-27490164D01*
X38118998Y-27490164D01*
X37928522Y-27442545D01*
X37833284Y-27394926D01*
X37738046Y-27299688D01*
X37690426Y-27156831D01*
X37690426Y-27061593D01*
X37738046Y-26918736D01*
X37785665Y-26871117D01*
X37785665Y-26490164D02*
X37738046Y-26442545D01*
X37690426Y-26347307D01*
X37690426Y-26109212D01*
X37738046Y-26013974D01*
X37785665Y-25966355D01*
X37880903Y-25918736D01*
X37976141Y-25918736D01*
X38118998Y-25966355D01*
X38690426Y-26537783D01*
X38690426Y-25918736D01*
X37785665Y-25537783D02*
X37738046Y-25490164D01*
X37690426Y-25394926D01*
X37690426Y-25156831D01*
X37738046Y-25061593D01*
X37785665Y-25013974D01*
X37880903Y-24966355D01*
X37976141Y-24966355D01*
X38118998Y-25013974D01*
X38690426Y-25585402D01*
X38690426Y-24966355D01*
%TO.C,Y2*%
X40636186Y-31761956D02*
X40636186Y-32238146D01*
X40302853Y-31238146D02*
X40636186Y-31761956D01*
X40969519Y-31238146D01*
X41255234Y-31333385D02*
X41302853Y-31285766D01*
X41398091Y-31238146D01*
X41636186Y-31238146D01*
X41731424Y-31285766D01*
X41779043Y-31333385D01*
X41826662Y-31428623D01*
X41826662Y-31523861D01*
X41779043Y-31666718D01*
X41207615Y-32238146D01*
X41826662Y-32238146D01*
%TO.C,C11*%
X62412890Y-24224246D02*
X62365271Y-24271865D01*
X62222414Y-24319484D01*
X62127176Y-24319484D01*
X61984319Y-24271865D01*
X61889081Y-24176627D01*
X61841462Y-24081389D01*
X61793843Y-23890913D01*
X61793843Y-23748056D01*
X61841462Y-23557580D01*
X61889081Y-23462342D01*
X61984319Y-23367104D01*
X62127176Y-23319484D01*
X62222414Y-23319484D01*
X62365271Y-23367104D01*
X62412890Y-23414723D01*
X63365271Y-24319484D02*
X62793843Y-24319484D01*
X63079557Y-24319484D02*
X63079557Y-23319484D01*
X62984319Y-23462342D01*
X62889081Y-23557580D01*
X62793843Y-23605199D01*
X64317652Y-24319484D02*
X63746224Y-24319484D01*
X64031938Y-24319484D02*
X64031938Y-23319484D01*
X63936700Y-23462342D01*
X63841462Y-23557580D01*
X63746224Y-23605199D01*
%TO.C,C17*%
X66889641Y-24258473D02*
X66842022Y-24306092D01*
X66699165Y-24353711D01*
X66603927Y-24353711D01*
X66461070Y-24306092D01*
X66365832Y-24210854D01*
X66318213Y-24115616D01*
X66270594Y-23925140D01*
X66270594Y-23782283D01*
X66318213Y-23591807D01*
X66365832Y-23496569D01*
X66461070Y-23401331D01*
X66603927Y-23353711D01*
X66699165Y-23353711D01*
X66842022Y-23401331D01*
X66889641Y-23448950D01*
X67842022Y-24353711D02*
X67270594Y-24353711D01*
X67556308Y-24353711D02*
X67556308Y-23353711D01*
X67461070Y-23496569D01*
X67365832Y-23591807D01*
X67270594Y-23639426D01*
X68175356Y-23353711D02*
X68842022Y-23353711D01*
X68413451Y-24353711D01*
%TO.C,U2*%
X46547028Y-26634957D02*
X47119448Y-27207377D01*
X47220463Y-27241049D01*
X47287807Y-27241049D01*
X47388822Y-27207377D01*
X47523509Y-27072690D01*
X47557181Y-26971675D01*
X47557181Y-26904331D01*
X47523509Y-26803316D01*
X46951089Y-26230896D01*
X47321479Y-25995194D02*
X47321479Y-25927851D01*
X47355150Y-25826835D01*
X47523509Y-25658477D01*
X47624524Y-25624805D01*
X47691868Y-25624805D01*
X47792883Y-25658477D01*
X47860227Y-25725820D01*
X47927570Y-25860507D01*
X47927570Y-26668629D01*
X48365303Y-26230896D01*
%TO.C,C19*%
X66889641Y-38471032D02*
X66842022Y-38518651D01*
X66699165Y-38566270D01*
X66603927Y-38566270D01*
X66461070Y-38518651D01*
X66365832Y-38423413D01*
X66318213Y-38328175D01*
X66270594Y-38137699D01*
X66270594Y-37994842D01*
X66318213Y-37804366D01*
X66365832Y-37709128D01*
X66461070Y-37613890D01*
X66603927Y-37566270D01*
X66699165Y-37566270D01*
X66842022Y-37613890D01*
X66889641Y-37661509D01*
X67842022Y-38566270D02*
X67270594Y-38566270D01*
X67556308Y-38566270D02*
X67556308Y-37566270D01*
X67461070Y-37709128D01*
X67365832Y-37804366D01*
X67270594Y-37851985D01*
X68318213Y-38566270D02*
X68508689Y-38566270D01*
X68603927Y-38518651D01*
X68651546Y-38471032D01*
X68746784Y-38328175D01*
X68794403Y-38137699D01*
X68794403Y-37756747D01*
X68746784Y-37661509D01*
X68699165Y-37613890D01*
X68603927Y-37566270D01*
X68413451Y-37566270D01*
X68318213Y-37613890D01*
X68270594Y-37661509D01*
X68222975Y-37756747D01*
X68222975Y-37994842D01*
X68270594Y-38090080D01*
X68318213Y-38137699D01*
X68413451Y-38185318D01*
X68603927Y-38185318D01*
X68699165Y-38137699D01*
X68746784Y-38090080D01*
X68794403Y-37994842D01*
%TO.C,C15*%
X36654112Y-38387346D02*
X36606493Y-38434965D01*
X36463636Y-38482584D01*
X36368398Y-38482584D01*
X36225541Y-38434965D01*
X36130303Y-38339727D01*
X36082684Y-38244489D01*
X36035065Y-38054013D01*
X36035065Y-37911156D01*
X36082684Y-37720680D01*
X36130303Y-37625442D01*
X36225541Y-37530204D01*
X36368398Y-37482584D01*
X36463636Y-37482584D01*
X36606493Y-37530204D01*
X36654112Y-37577823D01*
X37606493Y-38482584D02*
X37035065Y-38482584D01*
X37320779Y-38482584D02*
X37320779Y-37482584D01*
X37225541Y-37625442D01*
X37130303Y-37720680D01*
X37035065Y-37768299D01*
X38511255Y-37482584D02*
X38035065Y-37482584D01*
X37987446Y-37958775D01*
X38035065Y-37911156D01*
X38130303Y-37863537D01*
X38368398Y-37863537D01*
X38463636Y-37911156D01*
X38511255Y-37958775D01*
X38558874Y-38054013D01*
X38558874Y-38292108D01*
X38511255Y-38387346D01*
X38463636Y-38434965D01*
X38368398Y-38482584D01*
X38130303Y-38482584D01*
X38035065Y-38434965D01*
X37987446Y-38387346D01*
%TO.C,C9*%
X37079148Y-36533361D02*
X37031529Y-36580980D01*
X36888672Y-36628599D01*
X36793434Y-36628599D01*
X36650576Y-36580980D01*
X36555338Y-36485742D01*
X36507719Y-36390504D01*
X36460100Y-36200028D01*
X36460100Y-36057171D01*
X36507719Y-35866695D01*
X36555338Y-35771457D01*
X36650576Y-35676219D01*
X36793434Y-35628599D01*
X36888672Y-35628599D01*
X37031529Y-35676219D01*
X37079148Y-35723838D01*
X37555338Y-36628599D02*
X37745815Y-36628599D01*
X37841053Y-36580980D01*
X37888672Y-36533361D01*
X37983910Y-36390504D01*
X38031529Y-36200028D01*
X38031529Y-35819076D01*
X37983910Y-35723838D01*
X37936291Y-35676219D01*
X37841053Y-35628599D01*
X37650576Y-35628599D01*
X37555338Y-35676219D01*
X37507719Y-35723838D01*
X37460100Y-35819076D01*
X37460100Y-36057171D01*
X37507719Y-36152409D01*
X37555338Y-36200028D01*
X37650576Y-36247647D01*
X37841053Y-36247647D01*
X37936291Y-36200028D01*
X37983910Y-36152409D01*
X38031529Y-36057171D01*
D11*
%TO.C,P1*%
X73797682Y-32866705D02*
X72797682Y-32866705D01*
X72797682Y-32485752D01*
X72845302Y-32390514D01*
X72892921Y-32342895D01*
X72988159Y-32295276D01*
X73131016Y-32295276D01*
X73226254Y-32342895D01*
X73273873Y-32390514D01*
X73321492Y-32485752D01*
X73321492Y-32866705D01*
X73797682Y-31342895D02*
X73797682Y-31914324D01*
X73797682Y-31628610D02*
X72797682Y-31628610D01*
X72940540Y-31723848D01*
X73035778Y-31819086D01*
X73083397Y-31914324D01*
D10*
%TO.C,C21*%
X44204558Y-26941834D02*
X44252177Y-26989453D01*
X44299796Y-27132310D01*
X44299796Y-27227548D01*
X44252177Y-27370405D01*
X44156939Y-27465643D01*
X44061701Y-27513262D01*
X43871225Y-27560881D01*
X43728368Y-27560881D01*
X43537892Y-27513262D01*
X43442654Y-27465643D01*
X43347416Y-27370405D01*
X43299796Y-27227548D01*
X43299796Y-27132310D01*
X43347416Y-26989453D01*
X43395035Y-26941834D01*
X43395035Y-26560881D02*
X43347416Y-26513262D01*
X43299796Y-26418024D01*
X43299796Y-26179929D01*
X43347416Y-26084691D01*
X43395035Y-26037072D01*
X43490273Y-25989453D01*
X43585511Y-25989453D01*
X43728368Y-26037072D01*
X44299796Y-26608500D01*
X44299796Y-25989453D01*
X44299796Y-25037072D02*
X44299796Y-25608500D01*
X44299796Y-25322786D02*
X43299796Y-25322786D01*
X43442654Y-25418024D01*
X43537892Y-25513262D01*
X43585511Y-25608500D01*
%TO.C,C18*%
X66889641Y-31364752D02*
X66842022Y-31412371D01*
X66699165Y-31459990D01*
X66603927Y-31459990D01*
X66461070Y-31412371D01*
X66365832Y-31317133D01*
X66318213Y-31221895D01*
X66270594Y-31031419D01*
X66270594Y-30888562D01*
X66318213Y-30698086D01*
X66365832Y-30602848D01*
X66461070Y-30507610D01*
X66603927Y-30459990D01*
X66699165Y-30459990D01*
X66842022Y-30507610D01*
X66889641Y-30555229D01*
X67842022Y-31459990D02*
X67270594Y-31459990D01*
X67556308Y-31459990D02*
X67556308Y-30459990D01*
X67461070Y-30602848D01*
X67365832Y-30698086D01*
X67270594Y-30745705D01*
X68413451Y-30888562D02*
X68318213Y-30840943D01*
X68270594Y-30793324D01*
X68222975Y-30698086D01*
X68222975Y-30650467D01*
X68270594Y-30555229D01*
X68318213Y-30507610D01*
X68413451Y-30459990D01*
X68603927Y-30459990D01*
X68699165Y-30507610D01*
X68746784Y-30555229D01*
X68794403Y-30650467D01*
X68794403Y-30698086D01*
X68746784Y-30793324D01*
X68699165Y-30840943D01*
X68603927Y-30888562D01*
X68413451Y-30888562D01*
X68318213Y-30936181D01*
X68270594Y-30983800D01*
X68222975Y-31079038D01*
X68222975Y-31269514D01*
X68270594Y-31364752D01*
X68318213Y-31412371D01*
X68413451Y-31459990D01*
X68603927Y-31459990D01*
X68699165Y-31412371D01*
X68746784Y-31364752D01*
X68794403Y-31269514D01*
X68794403Y-31079038D01*
X68746784Y-30983800D01*
X68699165Y-30936181D01*
X68603927Y-30888562D01*
%TO.C,C14*%
X62412890Y-38520416D02*
X62365271Y-38568035D01*
X62222414Y-38615654D01*
X62127176Y-38615654D01*
X61984319Y-38568035D01*
X61889081Y-38472797D01*
X61841462Y-38377559D01*
X61793843Y-38187083D01*
X61793843Y-38044226D01*
X61841462Y-37853750D01*
X61889081Y-37758512D01*
X61984319Y-37663274D01*
X62127176Y-37615654D01*
X62222414Y-37615654D01*
X62365271Y-37663274D01*
X62412890Y-37710893D01*
X63365271Y-38615654D02*
X62793843Y-38615654D01*
X63079557Y-38615654D02*
X63079557Y-37615654D01*
X62984319Y-37758512D01*
X62889081Y-37853750D01*
X62793843Y-37901369D01*
X64222414Y-37948988D02*
X64222414Y-38615654D01*
X63984319Y-37568035D02*
X63746224Y-38282321D01*
X64365271Y-38282321D01*
D11*
%TO.C,SW2*%
X32588066Y-35041545D02*
X32635685Y-34898688D01*
X32635685Y-34660592D01*
X32588066Y-34565354D01*
X32540447Y-34517735D01*
X32445209Y-34470116D01*
X32349971Y-34470116D01*
X32254733Y-34517735D01*
X32207114Y-34565354D01*
X32159495Y-34660592D01*
X32111876Y-34851069D01*
X32064257Y-34946307D01*
X32016638Y-34993926D01*
X31921400Y-35041545D01*
X31826162Y-35041545D01*
X31730924Y-34993926D01*
X31683305Y-34946307D01*
X31635685Y-34851069D01*
X31635685Y-34612973D01*
X31683305Y-34470116D01*
X31635685Y-34136783D02*
X32635685Y-33898688D01*
X31921400Y-33708212D01*
X32635685Y-33517735D01*
X31635685Y-33279640D01*
X31730924Y-32946307D02*
X31683305Y-32898688D01*
X31635685Y-32803450D01*
X31635685Y-32565354D01*
X31683305Y-32470116D01*
X31730924Y-32422497D01*
X31826162Y-32374878D01*
X31921400Y-32374878D01*
X32064257Y-32422497D01*
X32635685Y-32993926D01*
X32635685Y-32374878D01*
D10*
%TO.C,C12*%
X62412890Y-28989636D02*
X62365271Y-29037255D01*
X62222414Y-29084874D01*
X62127176Y-29084874D01*
X61984319Y-29037255D01*
X61889081Y-28942017D01*
X61841462Y-28846779D01*
X61793843Y-28656303D01*
X61793843Y-28513446D01*
X61841462Y-28322970D01*
X61889081Y-28227732D01*
X61984319Y-28132494D01*
X62127176Y-28084874D01*
X62222414Y-28084874D01*
X62365271Y-28132494D01*
X62412890Y-28180113D01*
X63365271Y-29084874D02*
X62793843Y-29084874D01*
X63079557Y-29084874D02*
X63079557Y-28084874D01*
X62984319Y-28227732D01*
X62889081Y-28322970D01*
X62793843Y-28370589D01*
X63746224Y-28180113D02*
X63793843Y-28132494D01*
X63889081Y-28084874D01*
X64127176Y-28084874D01*
X64222414Y-28132494D01*
X64270033Y-28180113D01*
X64317652Y-28275351D01*
X64317652Y-28370589D01*
X64270033Y-28513446D01*
X63698605Y-29084874D01*
X64317652Y-29084874D01*
D12*
%TO.C,Y1*%
X43187858Y-39746814D02*
X43187858Y-33996814D01*
X43187858Y-33996814D02*
X39587858Y-33996814D01*
X39587858Y-33996814D02*
X39587858Y-39746814D01*
D13*
%TO.C,SW1*%
X34033025Y-23928764D02*
X28531425Y-23928764D01*
X32333825Y-23928764D02*
X32783325Y-23928764D01*
X28531425Y-24596764D02*
X28531425Y-23928764D01*
X32783325Y-23928764D02*
X32783325Y-24429164D01*
X31228925Y-23928764D02*
X31228925Y-22628264D01*
X31228925Y-22628264D02*
X30027425Y-22628264D01*
X29750625Y-26428164D02*
X28531425Y-26428164D01*
X34033025Y-25760064D02*
X34033025Y-26428164D01*
X29781125Y-24429164D02*
X29781125Y-23928764D01*
X32783325Y-24429164D02*
X29781125Y-24429164D01*
X28531425Y-26428164D02*
X28531425Y-25760064D01*
X34033025Y-26428164D02*
X32813825Y-26428164D01*
X34033025Y-23928764D02*
X34033025Y-24596764D01*
X30027425Y-22628264D02*
X30027425Y-23928764D01*
D12*
%TO.C,C13*%
X62915168Y-34317884D02*
X63196328Y-34317884D01*
X62915168Y-35337884D02*
X63196328Y-35337884D01*
%TO.C,R3*%
X31027960Y-27746457D02*
X31502476Y-27746457D01*
X31027960Y-28791457D02*
X31502476Y-28791457D01*
%TO.C,C3*%
X30007726Y-37119399D02*
X29726566Y-37119399D01*
X30007726Y-38139399D02*
X29726566Y-38139399D01*
%TO.C,C22*%
X40296828Y-26356732D02*
X40296828Y-26075572D01*
X39276828Y-26356732D02*
X39276828Y-26075572D01*
%TO.C,Y2*%
X40437377Y-28822894D02*
X41787377Y-28822894D01*
X40437377Y-30572894D02*
X41787377Y-30572894D01*
%TO.C,C11*%
X62915168Y-25807104D02*
X63196328Y-25807104D01*
X62915168Y-24787104D02*
X63196328Y-24787104D01*
%TO.C,C17*%
X67391919Y-24821331D02*
X67673079Y-24821331D01*
X67391919Y-25841331D02*
X67673079Y-25841331D01*
%TO.C,U2*%
X53377343Y-38270905D02*
X52705592Y-38942656D01*
X52705592Y-24489394D02*
X53377343Y-25161145D01*
X46150712Y-31044274D02*
X45478961Y-31716025D01*
X52705592Y-38942656D02*
X52033841Y-38270905D01*
X46150712Y-32387776D02*
X45203189Y-33335300D01*
X59932223Y-31716025D02*
X59260472Y-31044274D01*
X59260472Y-32387776D02*
X59932223Y-31716025D01*
X52033841Y-25161145D02*
X52705592Y-24489394D01*
X45478961Y-31716025D02*
X46150712Y-32387776D01*
%TO.C,C19*%
X67391919Y-40053890D02*
X67673079Y-40053890D01*
X67391919Y-39033890D02*
X67673079Y-39033890D01*
%TO.C,C15*%
X37386395Y-39908510D02*
X37105235Y-39908510D01*
X37386395Y-38888510D02*
X37105235Y-38888510D01*
%TO.C,C9*%
X37386395Y-34236219D02*
X37105235Y-34236219D01*
X37386395Y-35256219D02*
X37105235Y-35256219D01*
D13*
%TO.C,P1*%
X71692102Y-23929510D02*
X71692102Y-25997010D01*
X71692102Y-38260210D02*
X71692102Y-40327710D01*
X71966502Y-23929510D02*
X71692102Y-23929510D01*
X72835102Y-23929510D02*
X71966502Y-23929510D01*
X76965202Y-23929510D02*
X74798602Y-23929510D01*
X76965202Y-40327710D02*
X74798602Y-40327710D01*
X71692102Y-40327710D02*
X71966502Y-40327710D01*
X72835102Y-40327710D02*
X71966502Y-40327710D01*
X76965202Y-40327710D02*
X76965202Y-23929510D01*
X70158002Y-26365310D02*
G75*
G03*
X70158002Y-26365310I-127000J0D01*
G01*
D12*
%TO.C,C21*%
X41799872Y-26338180D02*
X41799872Y-26057020D01*
X42819872Y-26338180D02*
X42819872Y-26057020D01*
%TO.C,C18*%
X67391919Y-31927610D02*
X67673079Y-31927610D01*
X67391919Y-32947610D02*
X67673079Y-32947610D01*
%TO.C,C14*%
X62915168Y-39083274D02*
X63196328Y-39083274D01*
X62915168Y-40103274D02*
X63196328Y-40103274D01*
D13*
%TO.C,SW2*%
X31371180Y-35533394D02*
X31371180Y-31931594D01*
X28368980Y-31931594D02*
X28440080Y-31931594D01*
X31300080Y-31931594D02*
X31371180Y-31931594D01*
X28368980Y-35533394D02*
X28440080Y-35533394D01*
X31300080Y-35533394D02*
X31371180Y-35533394D01*
X28368980Y-35533394D02*
X28368980Y-31931594D01*
X30863180Y-33732494D02*
G75*
G03*
X30863180Y-33732494I-993100J0D01*
G01*
D12*
%TO.C,C12*%
X62915168Y-30572494D02*
X63196328Y-30572494D01*
X62915168Y-29552494D02*
X63196328Y-29552494D01*
%TD*%
M02*
