M48
; DRILL file {KiCad (6.0.6-1)-1} date 
; FORMAT={-:-/ absolute / inch / decimal}
; #@! TF.CreationDate,2022-08-11T03:16:17+08:00
; #@! TF.GenerationSoftware,Kicad,Pcbnew,(6.0.6-1)-1
; #@! TF.FileFunction,Plated,1,2,PTH
FMAT,2
INCH
; #@! TA.AperFunction,Plated,PTH,ViaDrill
T1C0.0157
; #@! TA.AperFunction,Plated,PTH,ComponentDrill
T2C0.0276
%
G90
G05
T1
X1.2133Y-1.1633
X1.3841Y-1.3347
X1.4026Y-1.5864
X1.4409Y-1.1203
X1.7039Y-1.5864
X1.7077Y-1.3618
X1.7384Y-1.1612
X1.7739Y-1.4943
X1.7772Y-1.0515
X1.7776Y-1.1322
X1.8322Y-1.5135
X1.8476Y-1.4781
X1.8667Y-1.0038
X1.872Y-1.2478
X1.8849Y-0.9426
X1.9016Y-1.2313
X1.9735Y-1.3382
X1.9743Y-1.2558
X2.0561Y-1.1945
X2.0638Y-1.082
X2.0652Y-1.5556
X2.0888Y-1.1125
X2.1107Y-1.5542
X2.2473Y-1.0018
X2.3162Y-0.9502
X2.3191Y-1.5044
X2.3787Y-1.3782
X2.379Y-1.4201
X2.3857Y-1.2309
X2.4023Y-0.9463
X2.4049Y-1.5534
X2.4194Y-1.1278
X2.4225Y-1.3111
X2.4225Y-1.4238
X2.4815Y-1.2572
X2.4849Y-1.4946
X2.5061Y-1.2257
X2.5245Y-1.2582
X2.55Y-1.3894
X2.5685Y-1.5836
X2.6495Y-1.2263
X2.679Y-1.3681
X2.6908Y-1.1875
X2.6924Y-1.3156
X2.7218Y-1.0596
X2.7248Y-1.1777
X2.7284Y-1.2431
X2.7298Y-1.472
X2.7315Y-1.4348
X2.7359Y-1.2856
X2.7465Y-1.3843
X2.8706Y-1.0923
X2.8706Y-1.207
X2.872Y-1.2542
X2.8766Y-1.0594
X2.879Y-1.3313
X2.8906Y-1.3897
X2.9103Y-1.2911
X2.9106Y-1.1476
X2.9133Y-1.2026
X2.9646Y-1.1695
X2.9821Y-1.4082
X3.0402Y-1.1774
T2
G00X1.1162Y-1.1954
M15
G01X1.1438Y-1.1954
M16
G05
G00X1.1162Y-1.5356
M15
G01X1.1438Y-1.5356
M16
G05
G00X1.2749Y-1.1954
M15
G01X1.3142Y-1.1954
M16
G05
G00X1.2749Y-1.5356
M15
G01X1.3142Y-1.5356
M16
G05
T0
M30
